M48
;GenerationSoftware,Autodesk,EAGLE,9.6.2*%
;CreationDate,2022-06-10T14:17:33Z*%
FMAT,2
ICI,OFF
METRIC,TZ,000.000
T4C0.305
T3C0.350
T2C1.016
T1C3.048
%
G90
M71
T1
X152400Y2540
X152400Y22860
X2540Y48768
X2540Y28448
X22860Y28448
X22860Y48768
X28448Y48768
X28448Y28448
X48768Y28448
X48768Y48768
X54356Y48768
X54356Y28448
X74676Y28448
X74676Y48768
X80264Y48768
X80264Y28448
X100584Y28448
X100584Y48768
X106172Y48768
X106172Y28448
X126492Y28448
X126492Y48768
X132080Y48768
X132080Y28448
X152400Y28448
X152400Y48768
X2540Y74676
X2540Y54356
X22860Y54356
X22860Y74676
X28448Y74676
X28448Y54356
X48768Y54356
X48768Y74676
X54356Y74676
X54356Y54356
X74676Y54356
X74676Y74676
X80264Y74676
X80264Y54356
X100584Y54356
X100584Y74676
X106172Y74676
X106172Y54356
X126492Y54356
X126492Y74676
X132080Y74676
X132080Y54356
X152400Y54356
X152400Y74676
X2540Y100584
X2540Y80264
X22860Y80264
X22860Y100584
X28448Y100584
X28448Y80264
X48768Y80264
X48768Y100584
X54356Y100584
X54356Y80264
X74676Y80264
X74676Y100584
X80264Y100584
X80264Y80264
X100584Y80264
X100584Y100584
X106172Y100584
X106172Y80264
X126492Y80264
X126492Y100584
X132080Y100584
X132080Y80264
X152400Y80264
X152400Y100584
X2540Y22860
X2540Y2540
X22860Y2540
X22860Y22860
X28448Y22860
X28448Y2540
X48768Y2540
X48768Y22860
X54356Y22860
X54356Y2540
X74676Y2540
X74676Y22860
X80264Y22860
X80264Y2540
X100584Y2540
X100584Y22860
X106172Y22860
X106172Y2540
X126492Y2540
X126492Y22860
X132080Y22860
X132080Y2540
T2
X96774Y50038
X122682Y27178
X120142Y27178
X117602Y27178
X115062Y27178
X112522Y27178
X109982Y27178
X109982Y50038
X112522Y50038
X115062Y50038
X117602Y50038
X120142Y50038
X122682Y50038
X148590Y27178
X146050Y27178
X143510Y27178
X140970Y27178
X138430Y27178
X148590Y101854
X135890Y27178
X135890Y50038
X138430Y50038
X140970Y50038
X143510Y50038
X146050Y50038
X148590Y50038
X19050Y53086
X16510Y53086
X13970Y53086
X11430Y53086
X8890Y53086
X6350Y53086
X6350Y75946
X8890Y75946
X11430Y75946
X13970Y75946
X16510Y75946
X19050Y75946
X44958Y53086
X42418Y53086
X39878Y53086
X37338Y53086
X34798Y53086
X32258Y53086
X32258Y75946
X34798Y75946
X37338Y75946
X39878Y75946
X42418Y75946
X44958Y75946
X70866Y53086
X68326Y53086
X65786Y53086
X63246Y53086
X60706Y53086
X58166Y53086
X58166Y75946
X60706Y75946
X63246Y75946
X65786Y75946
X68326Y75946
X70866Y75946
X96774Y53086
X94234Y53086
X91694Y53086
X89154Y53086
X86614Y53086
X84074Y53086
X84074Y75946
X16510Y24130
X86614Y75946
X89154Y75946
X91694Y75946
X94234Y75946
X96774Y75946
X122682Y53086
X120142Y53086
X117602Y53086
X115062Y53086
X112522Y53086
X109982Y53086
X109982Y75946
X112522Y75946
X115062Y75946
X117602Y75946
X120142Y75946
X122682Y75946
X148590Y53086
X146050Y53086
X143510Y53086
X140970Y53086
X138430Y53086
X135890Y53086
X135890Y75946
X138430Y75946
X140970Y75946
X143510Y75946
X146050Y75946
X148590Y75946
X19050Y78994
X13970Y78994
X11430Y78994
X8890Y78994
X6350Y78994
X6350Y101854
X8890Y101854
X11430Y101854
X13970Y101854
X16510Y101854
X19050Y101854
X44958Y78994
X42418Y78994
X39878Y78994
X37338Y78994
X34798Y78994
X32258Y78994
X32258Y101854
X34798Y101854
X37338Y101854
X39878Y101854
X42418Y101854
X44958Y101854
X70866Y78994
X68326Y78994
X65786Y78994
X63246Y78994
X60706Y78994
X58166Y78994
X58166Y101854
X60706Y101854
X63246Y101854
X65786Y101854
X68326Y101854
X70866Y101854
X96774Y78994
X94234Y78994
X91694Y78994
X89154Y78994
X86614Y78994
X84074Y78994
X84074Y101854
X86614Y101854
X89154Y101854
X91694Y101854
X94234Y101854
X96774Y101854
X122682Y78994
X120142Y78994
X117602Y78994
X115062Y78994
X112522Y78994
X109982Y78994
X109982Y101854
X112522Y101854
X115062Y101854
X117602Y101854
X120142Y101854
X122682Y101854
X148590Y78994
X146050Y78994
X143510Y78994
X140970Y78994
X148590Y24130
X138430Y78994
X135890Y78994
X135890Y101854
X138430Y101854
X140970Y101854
X143510Y101854
X146050Y101854
X19050Y1270
X16510Y1270
X13970Y1270
X11430Y1270
X8890Y1270
X6350Y1270
X6350Y24130
X8890Y24130
X11430Y24130
X13970Y24130
X16510Y78994
X19050Y24130
X44958Y1270
X42418Y1270
X39878Y1270
X37338Y1270
X34798Y1270
X32258Y1270
X32258Y24130
X34798Y24130
X37338Y24130
X39878Y24130
X42418Y24130
X44958Y24130
X70866Y1270
X68326Y1270
X65786Y1270
X63246Y1270
X60706Y1270
X58166Y1270
X58166Y24130
X60706Y24130
X63246Y24130
X65786Y24130
X68326Y24130
X70866Y24130
X96774Y1270
X94234Y1270
X91694Y1270
X89154Y1270
X86614Y1270
X84074Y1270
X84074Y24130
X86614Y24130
X89154Y24130
X91694Y24130
X94234Y24130
X96774Y24130
X122682Y1270
X120142Y1270
X117602Y1270
X115062Y1270
X112522Y1270
X109982Y1270
X109982Y24130
X112522Y24130
X115062Y24130
X117602Y24130
X120142Y24130
X122682Y24130
X148590Y1270
X146050Y1270
X143510Y1270
X140970Y1270
X138430Y1270
X135890Y1270
X135890Y24130
X138430Y24130
X140970Y24130
X143510Y24130
X146050Y24130
X19050Y27178
X16510Y27178
X13970Y27178
X11430Y27178
X8890Y27178
X6350Y27178
X6350Y50038
X8890Y50038
X11430Y50038
X13970Y50038
X16510Y50038
X19050Y50038
X44958Y27178
X42418Y27178
X39878Y27178
X37338Y27178
X34798Y27178
X32258Y27178
X32258Y50038
X34798Y50038
X37338Y50038
X39878Y50038
X42418Y50038
X44958Y50038
X70866Y27178
X68326Y27178
X65786Y27178
X63246Y27178
X60706Y27178
X58166Y27178
X58166Y50038
X60706Y50038
X63246Y50038
X65786Y50038
X68326Y50038
X70866Y50038
X96774Y27178
X94234Y27178
X91694Y27178
X89154Y27178
X86614Y27178
X84074Y27178
X84074Y50038
X86614Y50038
X89154Y50038
X91694Y50038
X94234Y50038
T3
X37211Y21209
X9779Y67818
X43307Y16205
X44092Y16880
X95767Y14596
X87503Y16002
X94361Y17094
X16637Y68910
X43307Y68021
X44092Y68696
X144602Y43004
X140843Y47117
X69215Y68021
X43951Y40504
X35687Y41910
X42545Y43002
X69859Y40504
X61595Y41910
X92786Y17096
X89027Y21209
X68453Y43002
X95123Y16205
X95908Y16880
X146939Y42113
X18043Y40504
X9779Y41910
X16637Y43002
X118694Y43004
X114935Y47117
X147724Y42788
X121031Y42113
X121816Y42788
X69859Y66412
X18043Y14596
X9779Y16002
X16637Y17094
X95767Y40504
X87503Y41910
X40970Y43004
X37211Y47117
X94361Y43002
X147583Y14596
X69859Y14596
X61595Y16002
X68453Y17094
X139319Y16002
X146177Y17094
X43307Y42113
X15062Y17096
X11303Y21209
X15062Y43004
X17399Y16205
X18184Y16880
X11303Y47117
X44092Y42788
X17399Y42113
X18184Y42788
X61595Y67818
X68453Y68910
X66878Y43004
X63119Y47117
X66878Y17096
X63119Y21209
X66878Y68912
X69215Y16205
X70000Y16880
X69215Y42113
X144602Y17096
X70000Y42788
X146939Y16205
X147724Y16880
X43951Y66412
X121675Y14596
X113411Y16002
X120269Y17094
X35687Y67818
X42545Y68910
X63119Y73025
X147583Y40504
X139319Y41910
X146177Y43002
X40970Y68912
X15062Y68912
X92786Y43004
X89027Y47117
X11303Y73025
X95123Y42113
X118694Y17096
X43951Y14596
X35687Y16002
X42545Y17094
X114935Y21209
X95908Y42788
X121031Y16205
X121816Y16880
X37211Y73025
X121675Y40504
X113411Y41910
X120269Y43002
X17399Y68021
X18184Y68696
X70000Y68696
X18043Y66412
X40970Y17096
X95767Y66412
X87503Y67818
X94361Y68910
X92786Y68912
X89027Y73025
X95123Y68021
X95908Y68696
X121675Y66412
X113411Y67818
X120269Y68910
X118694Y68912
X114935Y73025
X121031Y68021
X121816Y68696
X147583Y66412
X139319Y67818
X146177Y68910
X144602Y68912
X140843Y73025
X146939Y68021
X147724Y68696
X18043Y92320
X9779Y93726
X16637Y94818
X15062Y94820
X11303Y98933
X17399Y93929
X18184Y94604
X43951Y92320
X35687Y93726
X42545Y94818
X40970Y94820
X37211Y98933
X43307Y93929
X44092Y94604
X69859Y92320
X61595Y93726
X68453Y94818
X66878Y94820
X63119Y98933
X69215Y93929
X70000Y94604
X95767Y92320
X87503Y93726
X94361Y94818
X92786Y94820
X89027Y98933
X95123Y93929
X95908Y94604
X121675Y92320
X113411Y93726
X120269Y94818
X118694Y94820
X114935Y98933
X121031Y93929
X121816Y94604
X147583Y92320
X139319Y93726
X146177Y94818
X144602Y94820
X140843Y98933
X146939Y93929
X147724Y94604
X140843Y21209
T4
X100457Y33274
X87630Y40005
X88138Y38862
X88392Y34798
X85344Y45466
X88138Y46990
X94539Y46812
X96647Y46761
X96520Y45085
X90678Y29718
X88392Y29591
X87376Y33020
X95047Y33325
X85725Y32131
X83058Y32512
X83439Y35687
X81026Y34163
X95885Y41910
X93548Y43002
X95072Y34493
X92558Y34341
X88697Y31623
X92583Y32080
X93548Y45796
X93548Y44171
X93777Y32563
X90043Y48768
X92837Y35052
X99314Y38100
X99314Y44704
X99314Y34798
X86614Y37719
X92329Y38100
X92329Y41148
X92583Y31369
X88773Y33274
X102108Y45720
X95622Y34941
X95580Y32868
X92519Y29019
X88011Y31623
X88392Y35814
X88392Y37211
X111252Y42418
X119126Y38989
X122555Y37084
X125222Y37084
X107315Y40132
X109982Y40132
X126365Y33274
X113538Y40005
X114046Y38862
X114300Y34798
X111252Y45466
X114046Y46990
X120447Y46812
X122555Y46761
X122428Y45085
X116586Y29718
X114300Y29591
X113284Y33020
X120955Y33325
X111633Y32131
X108966Y32512
X109347Y35687
X106934Y34163
X121793Y41910
X119456Y43002
X120980Y34493
X118466Y34341
X114605Y31623
X118491Y32080
X119456Y45796
X119456Y44171
X119685Y32563
X115951Y48768
X118745Y35052
X125222Y38100
X125222Y44704
X125222Y34798
X112522Y37719
X118237Y38100
X118237Y41148
X118491Y31369
X114681Y33274
X128016Y45720
X121530Y34941
X121488Y32868
X118427Y29019
X113919Y31623
X114300Y35814
X114300Y37211
X137160Y42418
X145034Y38989
X148463Y37084
X151130Y37084
X133223Y40132
X135890Y40132
X152273Y33274
X139446Y40005
X139954Y38862
X140208Y34798
X137160Y45466
X139954Y46990
X146355Y46812
X148463Y46761
X148336Y45085
X142494Y29718
X140208Y29591
X139192Y33020
X146863Y33325
X137541Y32131
X134874Y32512
X135255Y35687
X132842Y34163
X147701Y41910
X145364Y43002
X146888Y34493
X144374Y34341
X140513Y31623
X144399Y32080
X145364Y45796
X145364Y44171
X145593Y32563
X141859Y48768
X144653Y35052
X151130Y38100
X151130Y44704
X151130Y34798
X138430Y37719
X144145Y38100
X144145Y41148
X144399Y31369
X140589Y33274
X153924Y45720
X147438Y34941
X147396Y32868
X144336Y29019
X139827Y31623
X140208Y35814
X140208Y37211
X7620Y68326
X15494Y64897
X18923Y62992
X21590Y62992
X3683Y66040
X6350Y66040
X22733Y59182
X9906Y65913
X10414Y64770
X10668Y60706
X7620Y71374
X10414Y72898
X16815Y72720
X18923Y72669
X18796Y70993
X12954Y55626
X10668Y55499
X9652Y58928
X17323Y59233
X8001Y58039
X5334Y58420
X5715Y61595
X3302Y60071
X18161Y67818
X15824Y68910
X17348Y60401
X14834Y60249
X10973Y57531
X14859Y57988
X15824Y71704
X15824Y70079
X16053Y58471
X12319Y74676
X15113Y60960
X21590Y64008
X21590Y70612
X21590Y60706
X8890Y63627
X14605Y64008
X14605Y67056
X14859Y57277
X11049Y59182
X24384Y71628
X17898Y60849
X17856Y58776
X14795Y54927
X10287Y57531
X10668Y61722
X10668Y63119
X33528Y68326
X41402Y64897
X44831Y62992
X47498Y62992
X29591Y66040
X32258Y66040
X48641Y59182
X35814Y65913
X36322Y64770
X36576Y60706
X33528Y71374
X36322Y72898
X42723Y72720
X44831Y72669
X44704Y70993
X38862Y55626
X36576Y55499
X35560Y58928
X43231Y59233
X33909Y58039
X31242Y58420
X31623Y61595
X29210Y60071
X44069Y67818
X41732Y68910
X43256Y60401
X40742Y60249
X36881Y57531
X40767Y57988
X41732Y71704
X41732Y70079
X41961Y58471
X38227Y74676
X41021Y60960
X47498Y64008
X47498Y70612
X47498Y60706
X34798Y63627
X40513Y64008
X40513Y67056
X40767Y57277
X36957Y59182
X50292Y71628
X43806Y60849
X43764Y58776
X40704Y54927
X36195Y57531
X36576Y61722
X36576Y63119
X59436Y68326
X67310Y64897
X70739Y62992
X73406Y62992
X55499Y66040
X58166Y66040
X74549Y59182
X61722Y65913
X62230Y64770
X62484Y60706
X59436Y71374
X62230Y72898
X68631Y72720
X70739Y72669
X70612Y70993
X64770Y55626
X62484Y55499
X61468Y58928
X69139Y59233
X59817Y58039
X57150Y58420
X57531Y61595
X55118Y60071
X69977Y67818
X67640Y68910
X69164Y60401
X66650Y60249
X62789Y57531
X66675Y57988
X67640Y71704
X67640Y70079
X67869Y58471
X64135Y74676
X66929Y60960
X73406Y64008
X73406Y70612
X73406Y60706
X60706Y63627
X66421Y64008
X66421Y67056
X66675Y57277
X62865Y59182
X76200Y71628
X69714Y60849
X69672Y58776
X66612Y54927
X62103Y57531
X62484Y61722
X62484Y63119
X85344Y68326
X93218Y64897
X96647Y62992
X99314Y62992
X81407Y66040
X84074Y66040
X100457Y59182
X87630Y65913
X88138Y64770
X88392Y60706
X85344Y71374
X88138Y72898
X94539Y72720
X96647Y72669
X96520Y70993
X90678Y55626
X88392Y55499
X87376Y58928
X95047Y59233
X85725Y58039
X83058Y58420
X83439Y61595
X81026Y60071
X95885Y67818
X92519Y3111
X95072Y60401
X92558Y60249
X88697Y57531
X92583Y57988
X93548Y71704
X93548Y70079
X93777Y58471
X90043Y74676
X92837Y60960
X7620Y16510
X15494Y13081
X18923Y11176
X99314Y64008
X99314Y70612
X99314Y60706
X86614Y63627
X92329Y64008
X92329Y67056
X92583Y57277
X88773Y59182
X102108Y71628
X95622Y60849
X95580Y58776
X92519Y54927
X21590Y11176
X3683Y14224
X88011Y57531
X6350Y14224
X22733Y7366
X88392Y61722
X88392Y63119
X111252Y68326
X119126Y64897
X122555Y62992
X125222Y62992
X107315Y66040
X109982Y66040
X126365Y59182
X113538Y65913
X114046Y64770
X114300Y60706
X111252Y71374
X114046Y72898
X120447Y72720
X122555Y72669
X122428Y70993
X116586Y55626
X114300Y55499
X113284Y58928
X120955Y59233
X111633Y58039
X108966Y58420
X109347Y61595
X106934Y60071
X121793Y67818
X119456Y68910
X120980Y60401
X118466Y60249
X114605Y57531
X118491Y57988
X119456Y71704
X119456Y70079
X119685Y58471
X115951Y74676
X118745Y60960
X9906Y14097
X10414Y12954
X10668Y8890
X125222Y64008
X125222Y70612
X125222Y60706
X112522Y63627
X118237Y64008
X118237Y67056
X118491Y57277
X114681Y59182
X128016Y71628
X121530Y60849
X121488Y58776
X118427Y54927
X7620Y19558
X10414Y21082
X113919Y57531
X16815Y20904
X18923Y20853
X114300Y61722
X114300Y63119
X137160Y68326
X145034Y64897
X148463Y62992
X151130Y62992
X133223Y66040
X135890Y66040
X152273Y59182
X139446Y65913
X139954Y64770
X140208Y60706
X137160Y71374
X139954Y72898
X146355Y72720
X148463Y72669
X148336Y70993
X142494Y55626
X140208Y55499
X139192Y58928
X146863Y59233
X137541Y58039
X134874Y58420
X135255Y61595
X132842Y60071
X147701Y67818
X145364Y68910
X146888Y60401
X144374Y60249
X140513Y57531
X144399Y57988
X145364Y71704
X145364Y70079
X145593Y58471
X141859Y74676
X144653Y60960
X18796Y19177
X12954Y3810
X10668Y3683
X151130Y64008
X151130Y70612
X151130Y60706
X138430Y63627
X144145Y64008
X144145Y67056
X144399Y57277
X140589Y59182
X153924Y71628
X147438Y60849
X147396Y58776
X144336Y54927
X9652Y7112
X17323Y7417
X139827Y57531
X8001Y6223
X5334Y6604
X140208Y61722
X140208Y63119
X7620Y94234
X15494Y90805
X18923Y88900
X21590Y88900
X3683Y91948
X6350Y91948
X22733Y85090
X9906Y91821
X10414Y90678
X10668Y86614
X7620Y97282
X10414Y98806
X16815Y98628
X18923Y98577
X18796Y96901
X12954Y81534
X10668Y81407
X9652Y84836
X17323Y85141
X8001Y83947
X5334Y84328
X5715Y87503
X3302Y85979
X18161Y93726
X15824Y94818
X17348Y86309
X14834Y86157
X10973Y83439
X14859Y83896
X15824Y97612
X15824Y95987
X16053Y84379
X12319Y100584
X15113Y86868
X5715Y9779
X3302Y8255
X18161Y16002
X21590Y89916
X21590Y96520
X21590Y86614
X8890Y89535
X14605Y89916
X14605Y92964
X14859Y83185
X11049Y85090
X24384Y97536
X17898Y86757
X17856Y84684
X14795Y80836
X15824Y17094
X17348Y8585
X10287Y83439
X14834Y8433
X10973Y5715
X10668Y87630
X10668Y89027
X33528Y94234
X41402Y90805
X44831Y88900
X47498Y88900
X29591Y91948
X32258Y91948
X48641Y85090
X35814Y91821
X36322Y90678
X36576Y86614
X33528Y97282
X36322Y98806
X42723Y98628
X44831Y98577
X44704Y96901
X38862Y81534
X36576Y81407
X35560Y84836
X43231Y85141
X33909Y83947
X31242Y84328
X31623Y87503
X29210Y85979
X44069Y93726
X41732Y94818
X43256Y86309
X40742Y86157
X36881Y83439
X40767Y83896
X41732Y97612
X41732Y95987
X41961Y84379
X38227Y100584
X41021Y86868
X14859Y6172
X15824Y19888
X15824Y18263
X47498Y89916
X47498Y96520
X47498Y86614
X34798Y89535
X40513Y89916
X40513Y92964
X40767Y83185
X36957Y85090
X50292Y97536
X43806Y86757
X43764Y84684
X40704Y80836
X16053Y6655
X12319Y22860
X36195Y83439
X15113Y9144
X21590Y12192
X36576Y87630
X36576Y89027
X59436Y94234
X67310Y90805
X70739Y88900
X73406Y88900
X55499Y91948
X58166Y91948
X74549Y85090
X61722Y91821
X62230Y90678
X62484Y86614
X59436Y97282
X62230Y98806
X68631Y98628
X70739Y98577
X70612Y96901
X64770Y81534
X62484Y81407
X61468Y84836
X69139Y85141
X59817Y83947
X57150Y84328
X57531Y87503
X55118Y85979
X69977Y93726
X67640Y94818
X69164Y86309
X66650Y86157
X62789Y83439
X66675Y83896
X67640Y97612
X67640Y95987
X67869Y84379
X64135Y100584
X66929Y86868
X21590Y18796
X21590Y8890
X8890Y11811
X73406Y89916
X73406Y96520
X73406Y86614
X60706Y89535
X66421Y89916
X66421Y92964
X66675Y83185
X62865Y85090
X76200Y97536
X69714Y86757
X69672Y84684
X66612Y80836
X14605Y12192
X14605Y15240
X62103Y83439
X14859Y5461
X11049Y7366
X62484Y87630
X62484Y89027
X85344Y94234
X93218Y90805
X96647Y88900
X99314Y88900
X81407Y91948
X84074Y91948
X100457Y85090
X87630Y91821
X88138Y90678
X88392Y86614
X85344Y97282
X88138Y98806
X94539Y98628
X96647Y98577
X96520Y96901
X90678Y81534
X88392Y81407
X87376Y84836
X95047Y85141
X85725Y83947
X83058Y84328
X83439Y87503
X81026Y85979
X95885Y93726
X93548Y94818
X95072Y86309
X92558Y86157
X88697Y83439
X92583Y83896
X93548Y97612
X93548Y95987
X93777Y84379
X90043Y100584
X92837Y86868
X24384Y19812
X17898Y9033
X17856Y6960
X99314Y89916
X99314Y96520
X99314Y86614
X86614Y89535
X92329Y89916
X92329Y92964
X92583Y83185
X88773Y85090
X102108Y97536
X95622Y86757
X95580Y84684
X92519Y80836
X14795Y3111
X10287Y5715
X88011Y83439
X10668Y9906
X10668Y11303
X88392Y87630
X88392Y89027
X111252Y94234
X119126Y90805
X122555Y88900
X125222Y88900
X107315Y91948
X109982Y91948
X126365Y85090
X113538Y91821
X114046Y90678
X114300Y86614
X111252Y97282
X114046Y98806
X120447Y98628
X122555Y98577
X122428Y96901
X116586Y81534
X114300Y81407
X113284Y84836
X120955Y85141
X111633Y83947
X108966Y84328
X109347Y87503
X106934Y85979
X121793Y93726
X119456Y94818
X120980Y86309
X118466Y86157
X114605Y83439
X118491Y83896
X119456Y97612
X119456Y95987
X119685Y84379
X115951Y100584
X118745Y86868
X33528Y16510
X41402Y13081
X44831Y11176
X125222Y89916
X125222Y96520
X125222Y86614
X112522Y89535
X118237Y89916
X118237Y92964
X118491Y83185
X114681Y85090
X128016Y97536
X121530Y86757
X121488Y84684
X118427Y80836
X47498Y11176
X29591Y14224
X113919Y83439
X32258Y14224
X48641Y7366
X114300Y87630
X114300Y89027
X137160Y94234
X145034Y90805
X148463Y88900
X151130Y88900
X133223Y91948
X135890Y91948
X152273Y85090
X35814Y14097
X139954Y90678
X140208Y86614
X137160Y97282
X139954Y98806
X146355Y98628
X148463Y98577
X148336Y96901
X142494Y81534
X140208Y81407
X139192Y84836
X146863Y85141
X137541Y83947
X134874Y84328
X135255Y87503
X132842Y85979
X147701Y93726
X145364Y94818
X146888Y86309
X144374Y86157
X140513Y83439
X144399Y83896
X145364Y97612
X145364Y95987
X145593Y84379
X141859Y100584
X144653Y86868
X36322Y12954
X36576Y8890
X33528Y19558
X151130Y89916
X151130Y96520
X151130Y86614
X138430Y89535
X144145Y89916
X144145Y92964
X144399Y83185
X140589Y85090
X153924Y97536
X147438Y86757
X147396Y84684
X144336Y80836
X36322Y21082
X42723Y20904
X139827Y83439
X44831Y20853
X44704Y19177
X140208Y87630
X140208Y89027
X38862Y3810
X36576Y3683
X35560Y7112
X43231Y7417
X33909Y6223
X31242Y6604
X31623Y9779
X29210Y8255
X44069Y16002
X41732Y17094
X43256Y8585
X40742Y8433
X36881Y5715
X40767Y6172
X41732Y19888
X41732Y18263
X41961Y6655
X38227Y22860
X41021Y9144
X47498Y12192
X47498Y18796
X47498Y8890
X34798Y11811
X40513Y12192
X40513Y15240
X40767Y5461
X36957Y7366
X50292Y19812
X43806Y9033
X43764Y6960
X40704Y3111
X36195Y5715
X36576Y9906
X36576Y11303
X59436Y16510
X67310Y13081
X70739Y11176
X73406Y11176
X55499Y14224
X58166Y14224
X74549Y7366
X61722Y14097
X62230Y12954
X62484Y8890
X59436Y19558
X62230Y21082
X68631Y20904
X70739Y20853
X70612Y19177
X64770Y3810
X62484Y3683
X61468Y7112
X69139Y7417
X59817Y6223
X57150Y6604
X57531Y9779
X55118Y8255
X69977Y16002
X67640Y17094
X69164Y8585
X66650Y8433
X62789Y5715
X66675Y6172
X67640Y19888
X67640Y18263
X67869Y6655
X64135Y22860
X66929Y9144
X73406Y12192
X73406Y18796
X73406Y8890
X60706Y11811
X66421Y12192
X66421Y15240
X66675Y5461
X62865Y7366
X76200Y19812
X69714Y9033
X69672Y6960
X66612Y3111
X62103Y5715
X62484Y9906
X62484Y11303
X85344Y16510
X93218Y13081
X96647Y11176
X99314Y11176
X81407Y14224
X84074Y14224
X100457Y7366
X87630Y14097
X88138Y12954
X88392Y8890
X85344Y19558
X88138Y21082
X94539Y20904
X96647Y20853
X96520Y19177
X90678Y3810
X88392Y3683
X87376Y7112
X95047Y7417
X85725Y6223
X83058Y6604
X83439Y9779
X81026Y8255
X95885Y16002
X93548Y17094
X95072Y8585
X92558Y8433
X88697Y5715
X92583Y6172
X93548Y19888
X93548Y18263
X93777Y6655
X90043Y22860
X92837Y9144
X99314Y12192
X99314Y18796
X99314Y8890
X86614Y11811
X92329Y12192
X92329Y15240
X92583Y5461
X88773Y7366
X102108Y19812
X95622Y9033
X95580Y6960
X88011Y5715
X88392Y9906
X88392Y11303
X111252Y16510
X119126Y13081
X122555Y11176
X125222Y11176
X107315Y14224
X109982Y14224
X126365Y7366
X113538Y14097
X114046Y12954
X114300Y8890
X111252Y19558
X114046Y21082
X120447Y20904
X122555Y20853
X122428Y19177
X116586Y3810
X114300Y3683
X113284Y7112
X120955Y7417
X111633Y6223
X108966Y6604
X109347Y9779
X106934Y8255
X121793Y16002
X119456Y17094
X120980Y8585
X118466Y8433
X114605Y5715
X118491Y6172
X119456Y19888
X119456Y18263
X119685Y6655
X115951Y22860
X118745Y9144
X125222Y12192
X125222Y18796
X93548Y68910
X125222Y8890
X112522Y11811
X118237Y12192
X118237Y15240
X118491Y5461
X114681Y7366
X128016Y19812
X121530Y9033
X121488Y6960
X118427Y3111
X113919Y5715
X114300Y9906
X114300Y11303
X137160Y16510
X145034Y13081
X148463Y11176
X151130Y11176
X133223Y14224
X135890Y14224
X152273Y7366
X139446Y14097
X139954Y12954
X140208Y8890
X137160Y19558
X139954Y21082
X146355Y20904
X148463Y20853
X148336Y19177
X142494Y3810
X140208Y3683
X139192Y7112
X146863Y7417
X137541Y6223
X134874Y6604
X135255Y9779
X132842Y8255
X147701Y16002
X145364Y17094
X146888Y8585
X144374Y8433
X140513Y5715
X144399Y6172
X145364Y19888
X145364Y18263
X145593Y6655
X141859Y22860
X144653Y9144
X151130Y12192
X151130Y18796
X151130Y8890
X138430Y11811
X144145Y12192
X144145Y15240
X144399Y5461
X140589Y7366
X153924Y19812
X147438Y9033
X147396Y6960
X144336Y3111
X139827Y5715
X140208Y9906
X140208Y11303
X7620Y42418
X15494Y38989
X18923Y37084
X21590Y37084
X3683Y40132
X6350Y40132
X22733Y33274
X9906Y40005
X10414Y38862
X10668Y34798
X7620Y45466
X10414Y46990
X16815Y46812
X18923Y46761
X18796Y45085
X12954Y29718
X10668Y29591
X9652Y33020
X17323Y33325
X8001Y32131
X5334Y32512
X5715Y35687
X3302Y34163
X18161Y41910
X15824Y43002
X17348Y34493
X14834Y34341
X10973Y31623
X14859Y32080
X15824Y45796
X15824Y44171
X16053Y32563
X12319Y48768
X15113Y35052
X21590Y38100
X21590Y44704
X21590Y34798
X8890Y37719
X14605Y38100
X14605Y41148
X14859Y31369
X11049Y33274
X24384Y45720
X17898Y34941
X17856Y32868
X14795Y29019
X10287Y31623
X10668Y35814
X10668Y37211
X33528Y42418
X41402Y38989
X44831Y37084
X47498Y37084
X29591Y40132
X32258Y40132
X48641Y33274
X35814Y40005
X36322Y38862
X36576Y34798
X33528Y45466
X36322Y46990
X42723Y46812
X44831Y46761
X44704Y45085
X38862Y29718
X36576Y29591
X35560Y33020
X43231Y33325
X33909Y32131
X31242Y32512
X31623Y35687
X29210Y34163
X44069Y41910
X41732Y43002
X43256Y34493
X40742Y34341
X36881Y31623
X40767Y32080
X41732Y45796
X41732Y44171
X41961Y32563
X38227Y48768
X41021Y35052
X47498Y38100
X47498Y44704
X47498Y34798
X34798Y37719
X40513Y38100
X40513Y41148
X40767Y31369
X36957Y33274
X50292Y45720
X43806Y34941
X43764Y32868
X40704Y29019
X36195Y31623
X36576Y35814
X36576Y37211
X59436Y42418
X67310Y38989
X70739Y37084
X73406Y37084
X55499Y40132
X58166Y40132
X74549Y33274
X61722Y40005
X62230Y38862
X62484Y34798
X59436Y45466
X62230Y46990
X68631Y46812
X70739Y46761
X70612Y45085
X64770Y29718
X62484Y29591
X61468Y33020
X69139Y33325
X59817Y32131
X57150Y32512
X57531Y35687
X55118Y34163
X69977Y41910
X67640Y43002
X69164Y34493
X66650Y34341
X62789Y31623
X66675Y32080
X67640Y45796
X67640Y44171
X67869Y32563
X64135Y48768
X66929Y35052
X73406Y38100
X73406Y44704
X73406Y34798
X60706Y37719
X66421Y38100
X66421Y41148
X66675Y31369
X62865Y33274
X76200Y45720
X69714Y34941
X69672Y32868
X66612Y29019
X62103Y31623
X62484Y35814
X62484Y37211
X85344Y42418
X93218Y38989
X96647Y37084
X99314Y37084
X81407Y40132
X84074Y40132
X139446Y91821
M30