G04 EAGLE Gerber RS-274X export*
G75*
%MOMM*%
%FSLAX34Y34*%
%LPD*%
%INBottom Copper*%
%IPPOS*%
%AMOC8*
5,1,8,0,0,1.08239X$1,22.5*%
G01*
%ADD10C,0.177800*%
%ADD11C,0.099059*%
%ADD12C,1.879600*%
%ADD13C,0.635000*%
%ADD14C,0.558800*%
%ADD15C,0.203200*%
%ADD16C,0.604000*%
%ADD17C,0.406400*%

G36*
X53596Y2812D02*
X53596Y2812D01*
X53734Y2825D01*
X53753Y2832D01*
X53773Y2835D01*
X53902Y2886D01*
X54033Y2933D01*
X54050Y2944D01*
X54068Y2952D01*
X54181Y3033D01*
X54296Y3112D01*
X54310Y3127D01*
X54326Y3138D01*
X54415Y3246D01*
X54507Y3350D01*
X54516Y3368D01*
X54529Y3383D01*
X54588Y3509D01*
X54651Y3634D01*
X54656Y3653D01*
X54664Y3671D01*
X54690Y3808D01*
X54721Y3944D01*
X54720Y3964D01*
X54724Y3983D01*
X54715Y4122D01*
X54711Y4262D01*
X54705Y4281D01*
X54704Y4301D01*
X54661Y4433D01*
X54622Y4567D01*
X54612Y4584D01*
X54606Y4603D01*
X54531Y4721D01*
X54461Y4841D01*
X54442Y4862D01*
X54436Y4872D01*
X54421Y4886D01*
X54416Y4892D01*
X53289Y6443D01*
X52436Y8117D01*
X51855Y9904D01*
X51815Y10161D01*
X62230Y10161D01*
X62348Y10176D01*
X62467Y10183D01*
X62505Y10196D01*
X62545Y10201D01*
X62656Y10244D01*
X62769Y10281D01*
X62803Y10303D01*
X62841Y10318D01*
X62937Y10388D01*
X63038Y10451D01*
X63066Y10481D01*
X63098Y10504D01*
X63174Y10596D01*
X63256Y10683D01*
X63275Y10718D01*
X63301Y10749D01*
X63352Y10857D01*
X63409Y10961D01*
X63420Y11001D01*
X63437Y11037D01*
X63459Y11154D01*
X63489Y11269D01*
X63493Y11330D01*
X63497Y11350D01*
X63495Y11370D01*
X63499Y11430D01*
X63499Y12701D01*
X64770Y12701D01*
X64888Y12716D01*
X65007Y12723D01*
X65045Y12736D01*
X65085Y12741D01*
X65196Y12785D01*
X65309Y12821D01*
X65344Y12843D01*
X65381Y12858D01*
X65477Y12928D01*
X65578Y12991D01*
X65606Y13021D01*
X65639Y13045D01*
X65714Y13136D01*
X65796Y13223D01*
X65816Y13258D01*
X65841Y13290D01*
X65892Y13397D01*
X65950Y13502D01*
X65960Y13541D01*
X65977Y13577D01*
X65999Y13694D01*
X66029Y13809D01*
X66033Y13870D01*
X66037Y13890D01*
X66035Y13910D01*
X66039Y13970D01*
X66039Y24385D01*
X66296Y24345D01*
X68083Y23764D01*
X69757Y22911D01*
X71278Y21806D01*
X72606Y20478D01*
X73711Y18957D01*
X74564Y17283D01*
X75145Y15496D01*
X75220Y15023D01*
X75255Y14900D01*
X75286Y14774D01*
X75300Y14747D01*
X75308Y14718D01*
X75374Y14607D01*
X75434Y14493D01*
X75455Y14470D01*
X75470Y14444D01*
X75562Y14353D01*
X75648Y14257D01*
X75674Y14241D01*
X75695Y14219D01*
X75806Y14153D01*
X75914Y14082D01*
X75943Y14073D01*
X75969Y14057D01*
X76093Y14021D01*
X76215Y13979D01*
X76245Y13977D01*
X76274Y13968D01*
X76403Y13964D01*
X76532Y13954D01*
X76562Y13959D01*
X76592Y13958D01*
X76718Y13986D01*
X76845Y14008D01*
X76873Y14021D01*
X76902Y14027D01*
X77017Y14086D01*
X77135Y14139D01*
X77159Y14158D01*
X77186Y14171D01*
X77282Y14257D01*
X77384Y14338D01*
X77402Y14362D01*
X77424Y14382D01*
X77497Y14488D01*
X77575Y14592D01*
X77594Y14630D01*
X77603Y14644D01*
X77611Y14665D01*
X77646Y14736D01*
X79425Y19031D01*
X82569Y22175D01*
X84306Y22895D01*
X84331Y22909D01*
X84359Y22918D01*
X84469Y22988D01*
X84582Y23052D01*
X84603Y23073D01*
X84628Y23088D01*
X84717Y23183D01*
X84810Y23273D01*
X84826Y23299D01*
X84846Y23320D01*
X84909Y23434D01*
X84977Y23545D01*
X84985Y23573D01*
X85000Y23599D01*
X85032Y23724D01*
X85070Y23848D01*
X85072Y23878D01*
X85079Y23907D01*
X85089Y24067D01*
X85089Y35868D01*
X102522Y53301D01*
X102595Y53395D01*
X102673Y53484D01*
X102692Y53520D01*
X102716Y53552D01*
X102764Y53661D01*
X102818Y53767D01*
X102827Y53807D01*
X102843Y53844D01*
X102861Y53962D01*
X102888Y54078D01*
X102886Y54118D01*
X102893Y54158D01*
X102881Y54276D01*
X102878Y54395D01*
X102867Y54434D01*
X102863Y54475D01*
X102823Y54587D01*
X102789Y54701D01*
X102769Y54736D01*
X102755Y54774D01*
X102688Y54872D01*
X102628Y54975D01*
X102588Y55020D01*
X102577Y55037D01*
X102561Y55050D01*
X102522Y55096D01*
X100075Y57542D01*
X100075Y61330D01*
X101482Y62736D01*
X101542Y62815D01*
X101610Y62887D01*
X101639Y62940D01*
X101676Y62988D01*
X101716Y63079D01*
X101764Y63165D01*
X101779Y63224D01*
X101803Y63279D01*
X101818Y63377D01*
X101843Y63473D01*
X101849Y63573D01*
X101853Y63594D01*
X101851Y63606D01*
X101853Y63634D01*
X101853Y75834D01*
X109904Y83884D01*
X111252Y83884D01*
X111370Y83899D01*
X111489Y83907D01*
X111527Y83919D01*
X111568Y83924D01*
X111678Y83968D01*
X111791Y84005D01*
X111826Y84026D01*
X111863Y84041D01*
X111959Y84111D01*
X112060Y84175D01*
X112088Y84204D01*
X112121Y84228D01*
X112197Y84320D01*
X112278Y84406D01*
X112298Y84442D01*
X112323Y84473D01*
X112374Y84581D01*
X112432Y84685D01*
X112442Y84724D01*
X112459Y84761D01*
X112481Y84877D01*
X112511Y84993D01*
X112515Y85053D01*
X112519Y85073D01*
X112517Y85093D01*
X112521Y85153D01*
X112521Y87886D01*
X113853Y89218D01*
X121609Y89218D01*
X121703Y89203D01*
X121840Y89177D01*
X121859Y89178D01*
X121879Y89175D01*
X122018Y89188D01*
X122157Y89197D01*
X122176Y89203D01*
X122196Y89205D01*
X122327Y89252D01*
X122459Y89295D01*
X122476Y89306D01*
X122495Y89312D01*
X122610Y89390D01*
X122728Y89465D01*
X122742Y89480D01*
X122758Y89491D01*
X122851Y89595D01*
X122946Y89697D01*
X122956Y89714D01*
X122969Y89729D01*
X123032Y89853D01*
X123100Y89975D01*
X123105Y89995D01*
X123114Y90012D01*
X123144Y90148D01*
X123179Y90283D01*
X123181Y90311D01*
X123183Y90323D01*
X123183Y90343D01*
X123189Y90444D01*
X123189Y113030D01*
X123174Y113148D01*
X123167Y113267D01*
X123154Y113305D01*
X123149Y113346D01*
X123106Y113456D01*
X123069Y113569D01*
X123047Y113604D01*
X123032Y113641D01*
X122963Y113737D01*
X122899Y113838D01*
X122869Y113866D01*
X122846Y113899D01*
X122754Y113975D01*
X122667Y114056D01*
X122632Y114076D01*
X122601Y114101D01*
X122493Y114152D01*
X122389Y114210D01*
X122349Y114220D01*
X122313Y114237D01*
X122196Y114259D01*
X122081Y114289D01*
X122021Y114293D01*
X122001Y114297D01*
X121980Y114295D01*
X121920Y114299D01*
X100972Y114299D01*
X100874Y114287D01*
X100775Y114284D01*
X100716Y114267D01*
X100656Y114259D01*
X100564Y114223D01*
X100469Y114195D01*
X100417Y114165D01*
X100361Y114142D01*
X100281Y114084D01*
X100195Y114034D01*
X100120Y113968D01*
X100103Y113956D01*
X100095Y113946D01*
X100074Y113927D01*
X99684Y113537D01*
X95896Y113537D01*
X93217Y116216D01*
X93217Y120004D01*
X95896Y122683D01*
X99684Y122683D01*
X100074Y122293D01*
X100152Y122232D01*
X100225Y122164D01*
X100278Y122135D01*
X100326Y122098D01*
X100416Y122058D01*
X100503Y122010D01*
X100562Y121995D01*
X100617Y121971D01*
X100715Y121956D01*
X100811Y121931D01*
X100911Y121925D01*
X100932Y121921D01*
X100944Y121923D01*
X100972Y121921D01*
X137865Y121921D01*
X137963Y121933D01*
X138062Y121936D01*
X138120Y121953D01*
X138180Y121961D01*
X138272Y121997D01*
X138367Y122025D01*
X138420Y122055D01*
X138476Y122078D01*
X138556Y122136D01*
X138641Y122186D01*
X138717Y122252D01*
X138733Y122264D01*
X138741Y122274D01*
X138762Y122292D01*
X139610Y123140D01*
X139670Y123218D01*
X139738Y123290D01*
X139767Y123343D01*
X139804Y123391D01*
X139844Y123482D01*
X139892Y123569D01*
X139907Y123627D01*
X139931Y123683D01*
X139946Y123781D01*
X139971Y123877D01*
X139972Y123899D01*
X142792Y126719D01*
X146768Y126719D01*
X147384Y126102D01*
X147462Y126042D01*
X147534Y125974D01*
X147587Y125945D01*
X147635Y125908D01*
X147726Y125868D01*
X147813Y125820D01*
X147871Y125805D01*
X147927Y125781D01*
X148025Y125766D01*
X148121Y125741D01*
X148221Y125735D01*
X148241Y125731D01*
X148253Y125733D01*
X148281Y125731D01*
X160020Y125731D01*
X160138Y125746D01*
X160257Y125753D01*
X160295Y125766D01*
X160336Y125771D01*
X160446Y125814D01*
X160559Y125851D01*
X160594Y125873D01*
X160631Y125888D01*
X160727Y125957D01*
X160828Y126021D01*
X160856Y126051D01*
X160889Y126074D01*
X160965Y126166D01*
X161046Y126253D01*
X161066Y126288D01*
X161091Y126319D01*
X161142Y126427D01*
X161200Y126531D01*
X161210Y126571D01*
X161227Y126607D01*
X161249Y126724D01*
X161279Y126839D01*
X161283Y126899D01*
X161287Y126919D01*
X161285Y126940D01*
X161289Y127000D01*
X161289Y156519D01*
X161277Y156617D01*
X161274Y156716D01*
X161257Y156774D01*
X161249Y156834D01*
X161213Y156926D01*
X161185Y157021D01*
X161155Y157073D01*
X161132Y157130D01*
X161074Y157210D01*
X161024Y157295D01*
X160958Y157371D01*
X160946Y157387D01*
X160936Y157395D01*
X160918Y157416D01*
X160301Y158032D01*
X160301Y162008D01*
X160918Y162624D01*
X160978Y162702D01*
X161046Y162774D01*
X161075Y162827D01*
X161112Y162875D01*
X161152Y162966D01*
X161200Y163053D01*
X161215Y163111D01*
X161239Y163167D01*
X161254Y163265D01*
X161279Y163361D01*
X161285Y163461D01*
X161289Y163481D01*
X161287Y163493D01*
X161289Y163521D01*
X161289Y179506D01*
X161277Y179604D01*
X161274Y179703D01*
X161257Y179761D01*
X161249Y179821D01*
X161213Y179913D01*
X161185Y180009D01*
X161155Y180061D01*
X161132Y180117D01*
X161074Y180197D01*
X161024Y180282D01*
X160958Y180358D01*
X160946Y180374D01*
X160936Y180382D01*
X160918Y180403D01*
X152463Y188858D01*
X152385Y188918D01*
X152313Y188986D01*
X152260Y189015D01*
X152212Y189052D01*
X152121Y189092D01*
X152034Y189140D01*
X151976Y189155D01*
X151920Y189179D01*
X151822Y189194D01*
X151726Y189219D01*
X151626Y189225D01*
X151606Y189229D01*
X151594Y189227D01*
X151566Y189229D01*
X129617Y189229D01*
X129519Y189217D01*
X129420Y189214D01*
X129362Y189197D01*
X129302Y189189D01*
X129210Y189153D01*
X129115Y189125D01*
X129063Y189095D01*
X129006Y189072D01*
X128926Y189014D01*
X128841Y188964D01*
X128765Y188898D01*
X128749Y188886D01*
X128741Y188876D01*
X128720Y188858D01*
X128104Y188241D01*
X124128Y188241D01*
X121317Y191052D01*
X121317Y195028D01*
X124128Y197839D01*
X128104Y197839D01*
X128720Y197222D01*
X128798Y197162D01*
X128870Y197094D01*
X128923Y197065D01*
X128971Y197028D01*
X129062Y196988D01*
X129149Y196940D01*
X129207Y196925D01*
X129263Y196901D01*
X129361Y196886D01*
X129457Y196861D01*
X129557Y196855D01*
X129577Y196851D01*
X129589Y196853D01*
X129617Y196851D01*
X155248Y196851D01*
X168911Y183188D01*
X168911Y163521D01*
X168923Y163423D01*
X168926Y163324D01*
X168943Y163266D01*
X168951Y163206D01*
X168987Y163114D01*
X169015Y163019D01*
X169045Y162967D01*
X169068Y162910D01*
X169126Y162830D01*
X169176Y162745D01*
X169242Y162669D01*
X169254Y162653D01*
X169264Y162645D01*
X169282Y162624D01*
X169899Y162008D01*
X169899Y158032D01*
X169282Y157416D01*
X169222Y157338D01*
X169154Y157266D01*
X169125Y157213D01*
X169088Y157165D01*
X169048Y157074D01*
X169000Y156987D01*
X168985Y156929D01*
X168961Y156873D01*
X168946Y156775D01*
X168921Y156679D01*
X168915Y156579D01*
X168911Y156559D01*
X168913Y156547D01*
X168911Y156519D01*
X168911Y127000D01*
X168926Y126882D01*
X168933Y126763D01*
X168946Y126725D01*
X168951Y126684D01*
X168994Y126574D01*
X169031Y126461D01*
X169053Y126426D01*
X169068Y126389D01*
X169137Y126293D01*
X169201Y126192D01*
X169231Y126164D01*
X169254Y126131D01*
X169346Y126055D01*
X169433Y125974D01*
X169468Y125954D01*
X169499Y125929D01*
X169607Y125878D01*
X169711Y125820D01*
X169751Y125810D01*
X169787Y125793D01*
X169904Y125771D01*
X170019Y125741D01*
X170079Y125737D01*
X170099Y125733D01*
X170120Y125735D01*
X170180Y125731D01*
X184778Y125731D01*
X184876Y125743D01*
X184975Y125746D01*
X185034Y125763D01*
X185094Y125771D01*
X185186Y125807D01*
X185281Y125835D01*
X185333Y125865D01*
X185389Y125888D01*
X185469Y125946D01*
X185555Y125996D01*
X185630Y126062D01*
X185647Y126074D01*
X185655Y126084D01*
X185676Y126103D01*
X186066Y126493D01*
X189854Y126493D01*
X192533Y123814D01*
X192533Y120026D01*
X189854Y117347D01*
X186066Y117347D01*
X185676Y117737D01*
X185598Y117798D01*
X185525Y117866D01*
X185472Y117895D01*
X185424Y117932D01*
X185334Y117972D01*
X185247Y118020D01*
X185188Y118035D01*
X185133Y118059D01*
X185035Y118074D01*
X184939Y118099D01*
X184839Y118105D01*
X184818Y118109D01*
X184806Y118107D01*
X184778Y118109D01*
X148281Y118109D01*
X148183Y118097D01*
X148084Y118094D01*
X148026Y118077D01*
X147966Y118069D01*
X147874Y118033D01*
X147779Y118005D01*
X147727Y117975D01*
X147670Y117952D01*
X147590Y117894D01*
X147505Y117844D01*
X147429Y117778D01*
X147413Y117766D01*
X147405Y117756D01*
X147384Y117738D01*
X146768Y117121D01*
X145896Y117121D01*
X145798Y117109D01*
X145699Y117106D01*
X145641Y117089D01*
X145581Y117081D01*
X145489Y117045D01*
X145393Y117017D01*
X145341Y116987D01*
X145285Y116964D01*
X145205Y116906D01*
X145120Y116856D01*
X145044Y116790D01*
X145028Y116778D01*
X145020Y116768D01*
X144999Y116750D01*
X144834Y116585D01*
X144359Y116585D01*
X144261Y116573D01*
X144162Y116570D01*
X144104Y116553D01*
X144044Y116545D01*
X143952Y116509D01*
X143856Y116481D01*
X143804Y116451D01*
X143748Y116428D01*
X143668Y116370D01*
X143582Y116320D01*
X143507Y116254D01*
X143491Y116242D01*
X143483Y116232D01*
X143462Y116214D01*
X141547Y114299D01*
X132080Y114299D01*
X131962Y114284D01*
X131843Y114277D01*
X131805Y114264D01*
X131764Y114259D01*
X131654Y114216D01*
X131541Y114179D01*
X131506Y114157D01*
X131469Y114142D01*
X131373Y114073D01*
X131272Y114009D01*
X131244Y113979D01*
X131211Y113956D01*
X131135Y113864D01*
X131054Y113777D01*
X131034Y113742D01*
X131009Y113711D01*
X130958Y113603D01*
X130900Y113499D01*
X130890Y113459D01*
X130873Y113423D01*
X130851Y113306D01*
X130821Y113191D01*
X130817Y113131D01*
X130813Y113111D01*
X130815Y113090D01*
X130811Y113030D01*
X130811Y90487D01*
X130826Y90369D01*
X130833Y90251D01*
X130846Y90212D01*
X130851Y90172D01*
X130894Y90061D01*
X130931Y89948D01*
X130953Y89914D01*
X130968Y89876D01*
X131037Y89780D01*
X131101Y89679D01*
X131131Y89652D01*
X131154Y89619D01*
X131246Y89543D01*
X131333Y89461D01*
X131368Y89442D01*
X131399Y89416D01*
X131507Y89365D01*
X131611Y89308D01*
X131651Y89298D01*
X131687Y89281D01*
X131706Y89277D01*
X132325Y88657D01*
X132419Y88584D01*
X132509Y88506D01*
X132545Y88487D01*
X132577Y88462D01*
X132686Y88415D01*
X132792Y88361D01*
X132831Y88352D01*
X132869Y88336D01*
X132986Y88317D01*
X133102Y88291D01*
X133143Y88293D01*
X133183Y88286D01*
X133301Y88297D01*
X133420Y88301D01*
X133459Y88312D01*
X133499Y88316D01*
X133612Y88356D01*
X133726Y88389D01*
X133760Y88410D01*
X133799Y88424D01*
X133897Y88490D01*
X134000Y88551D01*
X134045Y88591D01*
X134062Y88602D01*
X134075Y88617D01*
X134120Y88657D01*
X134681Y89218D01*
X142179Y89218D01*
X143511Y87886D01*
X143511Y85153D01*
X143526Y85035D01*
X143533Y84917D01*
X143546Y84878D01*
X143551Y84838D01*
X143594Y84727D01*
X143631Y84614D01*
X143653Y84580D01*
X143668Y84542D01*
X143737Y84446D01*
X143801Y84345D01*
X143831Y84318D01*
X143854Y84285D01*
X143946Y84209D01*
X144033Y84127D01*
X144068Y84108D01*
X144099Y84082D01*
X144207Y84031D01*
X144311Y83974D01*
X144351Y83964D01*
X144387Y83947D01*
X144504Y83924D01*
X144619Y83894D01*
X144679Y83891D01*
X144699Y83887D01*
X144720Y83888D01*
X144780Y83884D01*
X162638Y83884D01*
X170435Y76088D01*
X170435Y60078D01*
X170447Y59980D01*
X170450Y59881D01*
X170467Y59822D01*
X170475Y59762D01*
X170511Y59670D01*
X170539Y59575D01*
X170569Y59523D01*
X170592Y59467D01*
X170650Y59387D01*
X170700Y59301D01*
X170766Y59226D01*
X170778Y59209D01*
X170788Y59201D01*
X170806Y59180D01*
X172213Y57774D01*
X172213Y53986D01*
X169534Y51307D01*
X165606Y51307D01*
X165544Y51339D01*
X165504Y51348D01*
X165467Y51364D01*
X165350Y51383D01*
X165233Y51409D01*
X165193Y51408D01*
X165153Y51414D01*
X165035Y51403D01*
X164916Y51399D01*
X164877Y51388D01*
X164837Y51384D01*
X164724Y51344D01*
X164610Y51311D01*
X164575Y51290D01*
X164537Y51277D01*
X164439Y51210D01*
X164336Y51149D01*
X164291Y51110D01*
X164274Y51098D01*
X164261Y51083D01*
X164215Y51043D01*
X163346Y50174D01*
X158638Y45465D01*
X118523Y45465D01*
X118425Y45453D01*
X118326Y45450D01*
X118268Y45433D01*
X118208Y45425D01*
X118116Y45389D01*
X118021Y45361D01*
X117968Y45331D01*
X117912Y45308D01*
X117832Y45250D01*
X117747Y45200D01*
X117671Y45134D01*
X117655Y45122D01*
X117647Y45112D01*
X117626Y45094D01*
X117466Y44934D01*
X117406Y44856D01*
X117338Y44784D01*
X117309Y44731D01*
X117272Y44683D01*
X117232Y44592D01*
X117184Y44505D01*
X117169Y44447D01*
X117145Y44391D01*
X117130Y44293D01*
X117105Y44197D01*
X117099Y44097D01*
X117095Y44077D01*
X117097Y44065D01*
X117095Y44037D01*
X117095Y30868D01*
X117107Y30770D01*
X117110Y30671D01*
X117127Y30612D01*
X117135Y30552D01*
X117171Y30460D01*
X117199Y30365D01*
X117229Y30313D01*
X117252Y30257D01*
X117310Y30177D01*
X117360Y30091D01*
X117426Y30016D01*
X117438Y29999D01*
X117448Y29991D01*
X117466Y29970D01*
X118873Y28564D01*
X118873Y24770D01*
X118861Y24756D01*
X118825Y24722D01*
X118764Y24631D01*
X118697Y24544D01*
X118677Y24498D01*
X118650Y24457D01*
X118614Y24353D01*
X118571Y24252D01*
X118563Y24203D01*
X118547Y24156D01*
X118538Y24046D01*
X118521Y23938D01*
X118525Y23889D01*
X118522Y23839D01*
X118540Y23731D01*
X118551Y23621D01*
X118567Y23575D01*
X118576Y23526D01*
X118621Y23426D01*
X118658Y23322D01*
X118686Y23281D01*
X118707Y23236D01*
X118775Y23150D01*
X118837Y23059D01*
X118874Y23026D01*
X118905Y22987D01*
X118993Y22921D01*
X119075Y22848D01*
X119119Y22826D01*
X119159Y22796D01*
X119304Y22725D01*
X120631Y22175D01*
X123775Y19031D01*
X125477Y14923D01*
X125477Y10477D01*
X123775Y6369D01*
X122368Y4961D01*
X122282Y4852D01*
X122194Y4745D01*
X122185Y4726D01*
X122173Y4710D01*
X122117Y4582D01*
X122058Y4457D01*
X122055Y4437D01*
X122046Y4418D01*
X122025Y4280D01*
X121999Y4144D01*
X122000Y4124D01*
X121997Y4104D01*
X122010Y3965D01*
X122018Y3827D01*
X122025Y3808D01*
X122026Y3788D01*
X122074Y3656D01*
X122116Y3525D01*
X122127Y3507D01*
X122134Y3488D01*
X122212Y3373D01*
X122286Y3256D01*
X122301Y3242D01*
X122313Y3225D01*
X122417Y3133D01*
X122518Y3038D01*
X122536Y3028D01*
X122551Y3015D01*
X122675Y2951D01*
X122797Y2884D01*
X122816Y2879D01*
X122834Y2870D01*
X122970Y2840D01*
X123105Y2805D01*
X123133Y2803D01*
X123145Y2800D01*
X123165Y2801D01*
X123265Y2795D01*
X130735Y2795D01*
X130873Y2812D01*
X131011Y2825D01*
X131030Y2832D01*
X131050Y2835D01*
X131180Y2886D01*
X131310Y2933D01*
X131327Y2944D01*
X131346Y2952D01*
X131458Y3033D01*
X131574Y3111D01*
X131587Y3127D01*
X131603Y3138D01*
X131692Y3246D01*
X131784Y3350D01*
X131793Y3368D01*
X131806Y3383D01*
X131865Y3509D01*
X131929Y3633D01*
X131933Y3653D01*
X131942Y3671D01*
X131968Y3808D01*
X131998Y3943D01*
X131998Y3964D01*
X132001Y3983D01*
X131993Y4122D01*
X131989Y4261D01*
X131983Y4281D01*
X131982Y4301D01*
X131939Y4433D01*
X131900Y4567D01*
X131890Y4584D01*
X131884Y4603D01*
X131809Y4721D01*
X131739Y4841D01*
X131720Y4862D01*
X131714Y4872D01*
X131699Y4886D01*
X131632Y4961D01*
X130225Y6369D01*
X128523Y10477D01*
X128523Y14923D01*
X130225Y19031D01*
X133369Y22175D01*
X137477Y23877D01*
X141923Y23877D01*
X146031Y22175D01*
X149175Y19031D01*
X150877Y14923D01*
X150877Y10477D01*
X149175Y6369D01*
X147768Y4961D01*
X147682Y4852D01*
X147594Y4745D01*
X147585Y4726D01*
X147573Y4710D01*
X147517Y4582D01*
X147458Y4457D01*
X147455Y4437D01*
X147446Y4418D01*
X147425Y4280D01*
X147399Y4144D01*
X147400Y4124D01*
X147397Y4104D01*
X147410Y3965D01*
X147418Y3827D01*
X147425Y3808D01*
X147426Y3788D01*
X147474Y3656D01*
X147516Y3525D01*
X147527Y3507D01*
X147534Y3488D01*
X147612Y3373D01*
X147686Y3256D01*
X147701Y3242D01*
X147713Y3225D01*
X147817Y3133D01*
X147918Y3038D01*
X147936Y3028D01*
X147951Y3015D01*
X148075Y2951D01*
X148197Y2884D01*
X148216Y2879D01*
X148234Y2870D01*
X148370Y2840D01*
X148505Y2805D01*
X148533Y2803D01*
X148545Y2800D01*
X148565Y2801D01*
X148665Y2795D01*
X156135Y2795D01*
X156273Y2812D01*
X156411Y2825D01*
X156430Y2832D01*
X156450Y2835D01*
X156580Y2886D01*
X156710Y2933D01*
X156727Y2944D01*
X156746Y2952D01*
X156858Y3033D01*
X156974Y3111D01*
X156987Y3127D01*
X157003Y3138D01*
X157092Y3246D01*
X157184Y3350D01*
X157193Y3368D01*
X157206Y3383D01*
X157265Y3509D01*
X157329Y3633D01*
X157333Y3653D01*
X157342Y3671D01*
X157368Y3808D01*
X157398Y3943D01*
X157398Y3964D01*
X157401Y3983D01*
X157393Y4122D01*
X157389Y4261D01*
X157383Y4281D01*
X157382Y4301D01*
X157339Y4433D01*
X157300Y4567D01*
X157290Y4584D01*
X157284Y4603D01*
X157209Y4721D01*
X157139Y4841D01*
X157120Y4862D01*
X157114Y4872D01*
X157099Y4886D01*
X157032Y4961D01*
X155625Y6369D01*
X153923Y10477D01*
X153923Y14923D01*
X155625Y19031D01*
X158769Y22175D01*
X162877Y23877D01*
X167323Y23877D01*
X171431Y22175D01*
X174575Y19031D01*
X176277Y14923D01*
X176277Y10477D01*
X174575Y6369D01*
X173168Y4961D01*
X173082Y4852D01*
X172994Y4745D01*
X172985Y4726D01*
X172973Y4710D01*
X172917Y4582D01*
X172858Y4457D01*
X172855Y4437D01*
X172846Y4418D01*
X172825Y4280D01*
X172799Y4144D01*
X172800Y4124D01*
X172797Y4104D01*
X172810Y3965D01*
X172818Y3827D01*
X172825Y3808D01*
X172826Y3788D01*
X172874Y3656D01*
X172916Y3525D01*
X172927Y3507D01*
X172934Y3488D01*
X173012Y3373D01*
X173086Y3256D01*
X173101Y3242D01*
X173113Y3225D01*
X173217Y3133D01*
X173318Y3038D01*
X173336Y3028D01*
X173351Y3015D01*
X173475Y2951D01*
X173597Y2884D01*
X173616Y2879D01*
X173634Y2870D01*
X173770Y2840D01*
X173905Y2805D01*
X173933Y2803D01*
X173945Y2800D01*
X173965Y2801D01*
X174065Y2795D01*
X181535Y2795D01*
X181673Y2812D01*
X181811Y2825D01*
X181830Y2832D01*
X181850Y2835D01*
X181980Y2886D01*
X182110Y2933D01*
X182127Y2944D01*
X182146Y2952D01*
X182258Y3033D01*
X182374Y3111D01*
X182387Y3127D01*
X182403Y3138D01*
X182492Y3246D01*
X182584Y3350D01*
X182593Y3368D01*
X182606Y3383D01*
X182665Y3509D01*
X182729Y3633D01*
X182733Y3653D01*
X182742Y3671D01*
X182768Y3808D01*
X182798Y3943D01*
X182798Y3964D01*
X182801Y3983D01*
X182793Y4122D01*
X182789Y4261D01*
X182783Y4281D01*
X182782Y4301D01*
X182739Y4433D01*
X182700Y4567D01*
X182690Y4584D01*
X182684Y4603D01*
X182609Y4721D01*
X182539Y4841D01*
X182520Y4862D01*
X182514Y4872D01*
X182499Y4886D01*
X182432Y4961D01*
X181025Y6369D01*
X179323Y10477D01*
X179323Y14923D01*
X181025Y19031D01*
X184169Y22175D01*
X188277Y23877D01*
X192723Y23877D01*
X196831Y22175D01*
X199975Y19031D01*
X201677Y14923D01*
X201677Y10477D01*
X199975Y6369D01*
X198568Y4961D01*
X198482Y4852D01*
X198394Y4745D01*
X198385Y4726D01*
X198373Y4710D01*
X198317Y4582D01*
X198258Y4457D01*
X198255Y4437D01*
X198246Y4418D01*
X198225Y4280D01*
X198199Y4144D01*
X198200Y4124D01*
X198197Y4104D01*
X198210Y3965D01*
X198218Y3827D01*
X198225Y3808D01*
X198226Y3788D01*
X198274Y3656D01*
X198316Y3525D01*
X198327Y3507D01*
X198334Y3488D01*
X198412Y3373D01*
X198486Y3256D01*
X198501Y3242D01*
X198513Y3225D01*
X198617Y3133D01*
X198718Y3038D01*
X198736Y3028D01*
X198751Y3015D01*
X198875Y2951D01*
X198997Y2884D01*
X199016Y2879D01*
X199034Y2870D01*
X199170Y2840D01*
X199305Y2805D01*
X199333Y2803D01*
X199345Y2800D01*
X199365Y2801D01*
X199465Y2795D01*
X221125Y2795D01*
X221221Y2807D01*
X221319Y2810D01*
X221379Y2827D01*
X221440Y2835D01*
X221531Y2870D01*
X221624Y2897D01*
X221678Y2929D01*
X221736Y2952D01*
X221815Y3009D01*
X221899Y3058D01*
X221943Y3102D01*
X221993Y3138D01*
X222055Y3213D01*
X222125Y3282D01*
X222157Y3336D01*
X222196Y3383D01*
X222238Y3471D01*
X222288Y3555D01*
X222305Y3615D01*
X222332Y3671D01*
X222350Y3767D01*
X222378Y3860D01*
X222380Y3922D01*
X222392Y3983D01*
X222385Y4081D01*
X222389Y4178D01*
X222376Y4239D01*
X222372Y4301D01*
X222342Y4393D01*
X222321Y4489D01*
X222293Y4544D01*
X222274Y4603D01*
X222222Y4686D01*
X222178Y4773D01*
X222137Y4819D01*
X222104Y4872D01*
X222033Y4939D01*
X221969Y5012D01*
X221917Y5047D01*
X221872Y5090D01*
X221787Y5137D01*
X221706Y5192D01*
X221611Y5234D01*
X221593Y5244D01*
X221583Y5246D01*
X221559Y5257D01*
X217767Y6637D01*
X212003Y11473D01*
X208241Y17990D01*
X206934Y25400D01*
X208241Y32810D01*
X212003Y39326D01*
X217767Y44163D01*
X224838Y46737D01*
X232362Y46737D01*
X239433Y44163D01*
X245197Y39327D01*
X248837Y33022D01*
X248925Y32906D01*
X249010Y32788D01*
X249021Y32780D01*
X249029Y32769D01*
X249143Y32679D01*
X249255Y32585D01*
X249268Y32580D01*
X249278Y32571D01*
X249412Y32512D01*
X249543Y32450D01*
X249556Y32447D01*
X249569Y32442D01*
X249713Y32417D01*
X249856Y32390D01*
X249869Y32391D01*
X249882Y32389D01*
X250028Y32401D01*
X250173Y32410D01*
X250186Y32414D01*
X250199Y32415D01*
X250337Y32463D01*
X250475Y32508D01*
X250487Y32515D01*
X250500Y32520D01*
X250621Y32600D01*
X250744Y32678D01*
X250753Y32688D01*
X250765Y32695D01*
X250862Y32804D01*
X250962Y32910D01*
X250969Y32922D01*
X250978Y32932D01*
X251045Y33060D01*
X251116Y33188D01*
X251119Y33201D01*
X251125Y33213D01*
X251159Y33355D01*
X251195Y33496D01*
X251196Y33515D01*
X251198Y33523D01*
X251198Y33540D01*
X251205Y33657D01*
X251205Y113594D01*
X251188Y113731D01*
X251175Y113870D01*
X251168Y113889D01*
X251165Y113909D01*
X251114Y114038D01*
X251067Y114169D01*
X251056Y114186D01*
X251048Y114205D01*
X250967Y114317D01*
X250889Y114432D01*
X250873Y114446D01*
X250862Y114462D01*
X250754Y114551D01*
X250650Y114643D01*
X250632Y114652D01*
X250617Y114665D01*
X250491Y114724D01*
X250367Y114787D01*
X250347Y114792D01*
X250329Y114800D01*
X250193Y114827D01*
X250057Y114857D01*
X250036Y114856D01*
X250017Y114860D01*
X249878Y114852D01*
X249739Y114847D01*
X249719Y114842D01*
X249699Y114840D01*
X249567Y114798D01*
X249433Y114759D01*
X249416Y114749D01*
X249397Y114742D01*
X249279Y114668D01*
X249159Y114597D01*
X249138Y114579D01*
X249128Y114572D01*
X249114Y114557D01*
X249041Y114493D01*
X246831Y114493D01*
X245084Y116240D01*
X245006Y116301D01*
X244934Y116369D01*
X244881Y116398D01*
X244833Y116435D01*
X244742Y116474D01*
X244655Y116522D01*
X244597Y116537D01*
X244541Y116561D01*
X244443Y116577D01*
X244347Y116602D01*
X244247Y116608D01*
X244227Y116611D01*
X244215Y116610D01*
X244187Y116612D01*
X240475Y116612D01*
X238913Y118174D01*
X238913Y120384D01*
X240123Y121594D01*
X240196Y121689D01*
X240274Y121778D01*
X240293Y121814D01*
X240318Y121846D01*
X240365Y121955D01*
X240419Y122061D01*
X240428Y122100D01*
X240444Y122138D01*
X240463Y122255D01*
X240489Y122371D01*
X240487Y122412D01*
X240494Y122452D01*
X240483Y122571D01*
X240479Y122689D01*
X240468Y122728D01*
X240464Y122768D01*
X240424Y122880D01*
X240391Y122995D01*
X240370Y123029D01*
X240356Y123068D01*
X240289Y123166D01*
X240229Y123269D01*
X240189Y123314D01*
X240178Y123331D01*
X240162Y123344D01*
X240123Y123389D01*
X239600Y123912D01*
X238913Y124599D01*
X238913Y125721D01*
X238913Y128928D01*
X240535Y130551D01*
X240581Y130609D01*
X240634Y130662D01*
X240678Y130735D01*
X240730Y130802D01*
X240760Y130870D01*
X240798Y130934D01*
X240823Y131016D01*
X240857Y131094D01*
X240868Y131167D01*
X240890Y131239D01*
X240893Y131324D01*
X240906Y131408D01*
X240899Y131482D01*
X240902Y131556D01*
X240885Y131640D01*
X240877Y131724D01*
X240851Y131795D01*
X240836Y131867D01*
X240815Y131915D01*
X241459Y133846D01*
X241461Y133855D01*
X241465Y133863D01*
X241492Y134010D01*
X241521Y134158D01*
X241521Y134167D01*
X241522Y134176D01*
X241512Y134326D01*
X241504Y134476D01*
X241501Y134484D01*
X241500Y134494D01*
X241459Y134649D01*
X240819Y136571D01*
X241807Y138548D01*
X243904Y139247D01*
X248879Y136759D01*
X248888Y136756D01*
X248896Y136751D01*
X249045Y136690D01*
X249535Y136527D01*
X249539Y136526D01*
X249543Y136524D01*
X249694Y136495D01*
X249847Y136465D01*
X249851Y136465D01*
X249856Y136464D01*
X250008Y136474D01*
X250164Y136482D01*
X250169Y136484D01*
X250173Y136484D01*
X250318Y136531D01*
X250467Y136578D01*
X250471Y136581D01*
X250475Y136582D01*
X250605Y136664D01*
X250737Y136747D01*
X250740Y136750D01*
X250744Y136752D01*
X250850Y136864D01*
X250957Y136977D01*
X250959Y136981D01*
X250962Y136984D01*
X251036Y137118D01*
X251112Y137254D01*
X251113Y137258D01*
X251116Y137262D01*
X251154Y137411D01*
X251194Y137561D01*
X251194Y137566D01*
X251195Y137570D01*
X251205Y137731D01*
X251205Y220343D01*
X251187Y220487D01*
X251172Y220633D01*
X251167Y220645D01*
X251165Y220659D01*
X251112Y220794D01*
X251061Y220931D01*
X251053Y220942D01*
X251048Y220954D01*
X250963Y221072D01*
X250880Y221192D01*
X250870Y221201D01*
X250862Y221212D01*
X250749Y221305D01*
X250639Y221400D01*
X250627Y221406D01*
X250617Y221415D01*
X250485Y221476D01*
X250354Y221541D01*
X250341Y221544D01*
X250329Y221550D01*
X250187Y221577D01*
X250043Y221608D01*
X250030Y221607D01*
X250017Y221610D01*
X249872Y221601D01*
X249726Y221595D01*
X249713Y221591D01*
X249699Y221590D01*
X249561Y221545D01*
X249421Y221503D01*
X249409Y221496D01*
X249397Y221492D01*
X249273Y221414D01*
X249149Y221339D01*
X249139Y221329D01*
X249128Y221322D01*
X249028Y221215D01*
X248926Y221112D01*
X248916Y221096D01*
X248910Y221090D01*
X248902Y221075D01*
X248837Y220978D01*
X245197Y214673D01*
X239433Y209837D01*
X232362Y207263D01*
X224838Y207263D01*
X217767Y209837D01*
X212003Y214673D01*
X208241Y221190D01*
X206934Y228600D01*
X208241Y236010D01*
X212003Y242526D01*
X217767Y247363D01*
X221559Y248743D01*
X221646Y248788D01*
X221736Y248824D01*
X221786Y248860D01*
X221842Y248889D01*
X221915Y248953D01*
X221993Y249010D01*
X222033Y249058D01*
X222080Y249100D01*
X222134Y249180D01*
X222196Y249255D01*
X222223Y249312D01*
X222258Y249363D01*
X222290Y249455D01*
X222332Y249543D01*
X222343Y249604D01*
X222364Y249663D01*
X222373Y249760D01*
X222392Y249856D01*
X222388Y249918D01*
X222393Y249980D01*
X222378Y250076D01*
X222372Y250173D01*
X222353Y250232D01*
X222343Y250294D01*
X222304Y250383D01*
X222274Y250475D01*
X222240Y250528D01*
X222216Y250585D01*
X222156Y250662D01*
X222104Y250744D01*
X222058Y250787D01*
X222020Y250836D01*
X221943Y250895D01*
X221872Y250962D01*
X221817Y250992D01*
X221768Y251030D01*
X221679Y251069D01*
X221593Y251116D01*
X221533Y251131D01*
X221476Y251156D01*
X221380Y251171D01*
X221286Y251195D01*
X221181Y251202D01*
X221162Y251205D01*
X221150Y251204D01*
X221125Y251205D01*
X174065Y251205D01*
X173927Y251188D01*
X173789Y251175D01*
X173770Y251168D01*
X173750Y251165D01*
X173620Y251114D01*
X173490Y251067D01*
X173473Y251056D01*
X173454Y251048D01*
X173342Y250967D01*
X173226Y250889D01*
X173213Y250873D01*
X173197Y250862D01*
X173108Y250754D01*
X173016Y250650D01*
X173007Y250632D01*
X172994Y250617D01*
X172935Y250491D01*
X172871Y250367D01*
X172867Y250347D01*
X172858Y250329D01*
X172832Y250192D01*
X172802Y250057D01*
X172802Y250036D01*
X172799Y250017D01*
X172807Y249878D01*
X172811Y249739D01*
X172817Y249719D01*
X172818Y249699D01*
X172861Y249567D01*
X172900Y249433D01*
X172910Y249416D01*
X172916Y249397D01*
X172991Y249279D01*
X173061Y249159D01*
X173080Y249138D01*
X173086Y249128D01*
X173101Y249114D01*
X173168Y249039D01*
X174575Y247631D01*
X176277Y243523D01*
X176277Y239077D01*
X174575Y234969D01*
X171431Y231825D01*
X167323Y230123D01*
X164751Y230123D01*
X164653Y230111D01*
X164554Y230108D01*
X164496Y230091D01*
X164436Y230083D01*
X164344Y230047D01*
X164249Y230019D01*
X164196Y229989D01*
X164140Y229966D01*
X164060Y229908D01*
X163975Y229858D01*
X163899Y229792D01*
X163883Y229780D01*
X163875Y229770D01*
X163854Y229752D01*
X154169Y220067D01*
X154109Y219989D01*
X154041Y219917D01*
X154012Y219864D01*
X153975Y219816D01*
X153935Y219725D01*
X153887Y219638D01*
X153872Y219580D01*
X153848Y219524D01*
X153833Y219426D01*
X153808Y219330D01*
X153802Y219230D01*
X153798Y219210D01*
X153800Y219198D01*
X153798Y219170D01*
X153798Y217181D01*
X151119Y214502D01*
X147331Y214502D01*
X144652Y217181D01*
X144652Y218722D01*
X144637Y218840D01*
X144630Y218959D01*
X144617Y218997D01*
X144612Y219038D01*
X144569Y219148D01*
X144532Y219261D01*
X144510Y219296D01*
X144495Y219333D01*
X144426Y219429D01*
X144362Y219530D01*
X144332Y219558D01*
X144309Y219591D01*
X144217Y219667D01*
X144130Y219748D01*
X144095Y219768D01*
X144064Y219793D01*
X143956Y219844D01*
X143852Y219902D01*
X143812Y219912D01*
X143776Y219929D01*
X143659Y219951D01*
X143544Y219981D01*
X143484Y219985D01*
X143464Y219989D01*
X143443Y219987D01*
X143383Y219991D01*
X138982Y219991D01*
X137350Y221624D01*
X137272Y221684D01*
X137200Y221752D01*
X137147Y221781D01*
X137099Y221818D01*
X137008Y221858D01*
X136921Y221906D01*
X136863Y221921D01*
X136807Y221945D01*
X136709Y221960D01*
X136613Y221985D01*
X136513Y221991D01*
X136493Y221995D01*
X136481Y221993D01*
X136453Y221995D01*
X129652Y221995D01*
X120659Y230988D01*
X120636Y231007D01*
X120617Y231029D01*
X120511Y231104D01*
X120408Y231183D01*
X120381Y231195D01*
X120357Y231212D01*
X120235Y231258D01*
X120116Y231310D01*
X120087Y231314D01*
X120059Y231325D01*
X119930Y231339D01*
X119802Y231360D01*
X119773Y231357D01*
X119743Y231360D01*
X119615Y231342D01*
X119485Y231330D01*
X119458Y231320D01*
X119428Y231316D01*
X119276Y231264D01*
X116523Y230123D01*
X112077Y230123D01*
X107969Y231825D01*
X104825Y234969D01*
X103123Y239077D01*
X103123Y243523D01*
X104825Y247631D01*
X106232Y249039D01*
X106318Y249148D01*
X106406Y249255D01*
X106415Y249274D01*
X106427Y249290D01*
X106483Y249418D01*
X106542Y249543D01*
X106545Y249563D01*
X106554Y249582D01*
X106575Y249720D01*
X106601Y249856D01*
X106600Y249876D01*
X106603Y249896D01*
X106590Y250035D01*
X106582Y250173D01*
X106575Y250192D01*
X106574Y250212D01*
X106526Y250344D01*
X106484Y250475D01*
X106473Y250493D01*
X106466Y250512D01*
X106388Y250627D01*
X106314Y250744D01*
X106299Y250758D01*
X106287Y250775D01*
X106183Y250867D01*
X106082Y250962D01*
X106064Y250972D01*
X106049Y250985D01*
X105925Y251049D01*
X105803Y251116D01*
X105784Y251121D01*
X105766Y251130D01*
X105630Y251160D01*
X105495Y251195D01*
X105467Y251197D01*
X105455Y251200D01*
X105435Y251199D01*
X105335Y251205D01*
X97865Y251205D01*
X97727Y251188D01*
X97589Y251175D01*
X97570Y251168D01*
X97550Y251165D01*
X97420Y251114D01*
X97290Y251067D01*
X97273Y251056D01*
X97254Y251048D01*
X97142Y250967D01*
X97026Y250889D01*
X97013Y250873D01*
X96997Y250862D01*
X96908Y250754D01*
X96816Y250650D01*
X96807Y250632D01*
X96794Y250617D01*
X96735Y250491D01*
X96671Y250367D01*
X96667Y250347D01*
X96658Y250329D01*
X96632Y250192D01*
X96602Y250057D01*
X96602Y250036D01*
X96599Y250017D01*
X96607Y249878D01*
X96611Y249739D01*
X96617Y249719D01*
X96618Y249699D01*
X96661Y249567D01*
X96700Y249433D01*
X96710Y249416D01*
X96716Y249397D01*
X96791Y249279D01*
X96861Y249159D01*
X96880Y249138D01*
X96886Y249128D01*
X96901Y249114D01*
X96968Y249039D01*
X98375Y247631D01*
X100077Y243523D01*
X100077Y239077D01*
X98375Y234969D01*
X95231Y231825D01*
X91123Y230123D01*
X86677Y230123D01*
X82569Y231825D01*
X79425Y234969D01*
X77723Y239077D01*
X77723Y243523D01*
X79425Y247631D01*
X80832Y249039D01*
X80918Y249148D01*
X81006Y249255D01*
X81015Y249274D01*
X81027Y249290D01*
X81083Y249418D01*
X81142Y249543D01*
X81145Y249563D01*
X81154Y249582D01*
X81175Y249720D01*
X81201Y249856D01*
X81200Y249876D01*
X81203Y249896D01*
X81190Y250035D01*
X81182Y250173D01*
X81175Y250192D01*
X81174Y250212D01*
X81126Y250344D01*
X81084Y250475D01*
X81073Y250493D01*
X81066Y250512D01*
X80988Y250627D01*
X80914Y250744D01*
X80899Y250758D01*
X80887Y250775D01*
X80783Y250867D01*
X80682Y250962D01*
X80664Y250972D01*
X80649Y250985D01*
X80525Y251049D01*
X80403Y251116D01*
X80384Y251121D01*
X80366Y251130D01*
X80230Y251160D01*
X80095Y251195D01*
X80067Y251197D01*
X80055Y251200D01*
X80035Y251199D01*
X79935Y251205D01*
X32875Y251205D01*
X32779Y251193D01*
X32681Y251190D01*
X32621Y251173D01*
X32560Y251165D01*
X32469Y251130D01*
X32375Y251103D01*
X32322Y251071D01*
X32264Y251048D01*
X32185Y250991D01*
X32101Y250942D01*
X32057Y250898D01*
X32007Y250862D01*
X31944Y250786D01*
X31875Y250718D01*
X31843Y250665D01*
X31804Y250617D01*
X31762Y250529D01*
X31712Y250445D01*
X31695Y250385D01*
X31668Y250329D01*
X31650Y250233D01*
X31622Y250140D01*
X31620Y250078D01*
X31608Y250017D01*
X31614Y249919D01*
X31611Y249822D01*
X31624Y249761D01*
X31628Y249699D01*
X31658Y249606D01*
X31679Y249511D01*
X31707Y249456D01*
X31726Y249397D01*
X31778Y249314D01*
X31822Y249227D01*
X31863Y249181D01*
X31896Y249128D01*
X31967Y249061D01*
X32031Y248988D01*
X32083Y248953D01*
X32128Y248910D01*
X32213Y248863D01*
X32294Y248808D01*
X32389Y248766D01*
X32407Y248756D01*
X32417Y248754D01*
X32441Y248743D01*
X36233Y247363D01*
X41997Y242526D01*
X45759Y236010D01*
X47066Y228600D01*
X45759Y221190D01*
X41997Y214674D01*
X36233Y209837D01*
X29162Y207263D01*
X21638Y207263D01*
X14567Y209837D01*
X8803Y214673D01*
X5163Y220978D01*
X5075Y221094D01*
X4990Y221212D01*
X4979Y221220D01*
X4971Y221231D01*
X4857Y221321D01*
X4745Y221415D01*
X4732Y221420D01*
X4722Y221429D01*
X4588Y221488D01*
X4457Y221550D01*
X4444Y221553D01*
X4431Y221558D01*
X4287Y221583D01*
X4144Y221610D01*
X4131Y221609D01*
X4118Y221611D01*
X3972Y221599D01*
X3827Y221590D01*
X3814Y221586D01*
X3801Y221585D01*
X3663Y221537D01*
X3525Y221492D01*
X3513Y221485D01*
X3500Y221480D01*
X3379Y221400D01*
X3256Y221322D01*
X3247Y221312D01*
X3235Y221305D01*
X3138Y221196D01*
X3038Y221090D01*
X3031Y221078D01*
X3022Y221068D01*
X2955Y220940D01*
X2884Y220812D01*
X2881Y220799D01*
X2875Y220787D01*
X2841Y220645D01*
X2805Y220504D01*
X2804Y220485D01*
X2802Y220477D01*
X2802Y220460D01*
X2795Y220343D01*
X2795Y33657D01*
X2813Y33513D01*
X2828Y33367D01*
X2833Y33355D01*
X2835Y33341D01*
X2888Y33206D01*
X2939Y33069D01*
X2947Y33058D01*
X2952Y33046D01*
X3037Y32928D01*
X3120Y32808D01*
X3130Y32799D01*
X3138Y32788D01*
X3251Y32695D01*
X3361Y32600D01*
X3373Y32594D01*
X3383Y32586D01*
X3515Y32524D01*
X3646Y32459D01*
X3659Y32456D01*
X3671Y32450D01*
X3813Y32423D01*
X3957Y32392D01*
X3970Y32393D01*
X3983Y32390D01*
X4128Y32399D01*
X4274Y32405D01*
X4287Y32409D01*
X4301Y32410D01*
X4439Y32455D01*
X4579Y32497D01*
X4591Y32504D01*
X4603Y32508D01*
X4727Y32586D01*
X4851Y32661D01*
X4861Y32671D01*
X4872Y32678D01*
X4972Y32784D01*
X5074Y32888D01*
X5084Y32904D01*
X5090Y32910D01*
X5098Y32925D01*
X5163Y33022D01*
X8803Y39326D01*
X14567Y44163D01*
X21638Y46737D01*
X29162Y46737D01*
X36233Y44163D01*
X41997Y39327D01*
X45759Y32810D01*
X47066Y25400D01*
X45759Y17990D01*
X41997Y11474D01*
X36233Y6637D01*
X32441Y5257D01*
X32354Y5212D01*
X32264Y5176D01*
X32214Y5140D01*
X32158Y5111D01*
X32085Y5047D01*
X32007Y4990D01*
X31967Y4942D01*
X31920Y4900D01*
X31866Y4820D01*
X31804Y4745D01*
X31777Y4688D01*
X31742Y4637D01*
X31710Y4545D01*
X31668Y4457D01*
X31657Y4396D01*
X31636Y4337D01*
X31627Y4240D01*
X31608Y4144D01*
X31612Y4082D01*
X31607Y4020D01*
X31622Y3924D01*
X31628Y3827D01*
X31647Y3768D01*
X31657Y3706D01*
X31696Y3617D01*
X31726Y3525D01*
X31760Y3472D01*
X31784Y3415D01*
X31844Y3338D01*
X31896Y3256D01*
X31942Y3213D01*
X31980Y3164D01*
X32057Y3105D01*
X32128Y3038D01*
X32183Y3008D01*
X32232Y2970D01*
X32321Y2931D01*
X32407Y2884D01*
X32467Y2869D01*
X32524Y2844D01*
X32620Y2829D01*
X32714Y2805D01*
X32819Y2798D01*
X32838Y2795D01*
X32850Y2796D01*
X32875Y2795D01*
X53457Y2795D01*
X53596Y2812D01*
G37*
G36*
X105473Y2812D02*
X105473Y2812D01*
X105611Y2825D01*
X105630Y2832D01*
X105650Y2835D01*
X105780Y2886D01*
X105910Y2933D01*
X105927Y2944D01*
X105946Y2952D01*
X106058Y3033D01*
X106174Y3111D01*
X106187Y3127D01*
X106203Y3138D01*
X106292Y3246D01*
X106384Y3350D01*
X106393Y3368D01*
X106406Y3383D01*
X106465Y3509D01*
X106529Y3633D01*
X106533Y3653D01*
X106542Y3671D01*
X106568Y3808D01*
X106598Y3943D01*
X106598Y3964D01*
X106601Y3983D01*
X106593Y4122D01*
X106589Y4261D01*
X106583Y4281D01*
X106582Y4301D01*
X106539Y4433D01*
X106500Y4567D01*
X106490Y4584D01*
X106484Y4603D01*
X106409Y4721D01*
X106339Y4841D01*
X106320Y4862D01*
X106314Y4872D01*
X106299Y4886D01*
X106232Y4961D01*
X104825Y6369D01*
X103123Y10477D01*
X103123Y14923D01*
X104825Y19031D01*
X107969Y22175D01*
X109296Y22725D01*
X109339Y22750D01*
X109386Y22766D01*
X109477Y22828D01*
X109573Y22883D01*
X109608Y22917D01*
X109649Y22945D01*
X109722Y23027D01*
X109801Y23104D01*
X109827Y23146D01*
X109860Y23183D01*
X109910Y23281D01*
X109967Y23375D01*
X109982Y23422D01*
X110004Y23467D01*
X110029Y23574D01*
X110061Y23679D01*
X110063Y23729D01*
X110074Y23777D01*
X110071Y23887D01*
X110076Y23997D01*
X110066Y24045D01*
X110064Y24095D01*
X110034Y24200D01*
X110012Y24308D01*
X109990Y24353D01*
X109976Y24400D01*
X109920Y24495D01*
X109872Y24594D01*
X109840Y24632D01*
X109814Y24674D01*
X109727Y24773D01*
X109727Y28564D01*
X111134Y29970D01*
X111194Y30049D01*
X111262Y30121D01*
X111291Y30174D01*
X111328Y30222D01*
X111368Y30313D01*
X111416Y30399D01*
X111431Y30458D01*
X111455Y30513D01*
X111470Y30611D01*
X111495Y30707D01*
X111501Y30807D01*
X111505Y30828D01*
X111503Y30840D01*
X111505Y30868D01*
X111505Y46878D01*
X115682Y51055D01*
X155797Y51055D01*
X155895Y51067D01*
X155994Y51070D01*
X156052Y51087D01*
X156112Y51095D01*
X156204Y51131D01*
X156299Y51159D01*
X156352Y51189D01*
X156408Y51212D01*
X156488Y51270D01*
X156573Y51320D01*
X156649Y51386D01*
X156665Y51398D01*
X156673Y51408D01*
X156694Y51426D01*
X159394Y54126D01*
X159454Y54204D01*
X159522Y54276D01*
X159551Y54329D01*
X159588Y54377D01*
X159628Y54468D01*
X159676Y54555D01*
X159691Y54613D01*
X159715Y54669D01*
X159730Y54767D01*
X159755Y54863D01*
X159761Y54963D01*
X159765Y54983D01*
X159763Y54995D01*
X159765Y55023D01*
X159765Y67802D01*
X159753Y67900D01*
X159750Y67999D01*
X159733Y68058D01*
X159725Y68118D01*
X159689Y68210D01*
X159661Y68305D01*
X159631Y68357D01*
X159608Y68413D01*
X159550Y68493D01*
X159500Y68579D01*
X159434Y68654D01*
X159422Y68671D01*
X159412Y68679D01*
X159394Y68700D01*
X157987Y70106D01*
X157987Y73894D01*
X160221Y76128D01*
X160306Y76238D01*
X160395Y76345D01*
X160404Y76363D01*
X160416Y76379D01*
X160472Y76507D01*
X160531Y76633D01*
X160534Y76652D01*
X160543Y76671D01*
X160564Y76809D01*
X160590Y76945D01*
X160589Y76965D01*
X160592Y76985D01*
X160579Y77124D01*
X160571Y77262D01*
X160564Y77282D01*
X160563Y77302D01*
X160515Y77433D01*
X160473Y77565D01*
X160462Y77582D01*
X160455Y77601D01*
X160377Y77716D01*
X160302Y77834D01*
X160288Y77848D01*
X160276Y77864D01*
X160172Y77956D01*
X160071Y78052D01*
X160053Y78061D01*
X160038Y78075D01*
X159914Y78138D01*
X159792Y78205D01*
X159773Y78210D01*
X159755Y78219D01*
X159619Y78250D01*
X159484Y78285D01*
X159456Y78286D01*
X159444Y78289D01*
X159424Y78288D01*
X159324Y78295D01*
X144780Y78295D01*
X144662Y78280D01*
X144543Y78272D01*
X144505Y78260D01*
X144464Y78255D01*
X144354Y78211D01*
X144241Y78174D01*
X144206Y78153D01*
X144169Y78138D01*
X144073Y78068D01*
X143972Y78004D01*
X143944Y77975D01*
X143911Y77951D01*
X143835Y77859D01*
X143754Y77773D01*
X143734Y77737D01*
X143709Y77706D01*
X143658Y77598D01*
X143600Y77494D01*
X143590Y77455D01*
X143573Y77418D01*
X143551Y77302D01*
X143521Y77186D01*
X143517Y77126D01*
X143513Y77106D01*
X143515Y77086D01*
X143511Y77026D01*
X143511Y74293D01*
X142179Y72961D01*
X134681Y72961D01*
X134120Y73522D01*
X134035Y73588D01*
X133991Y73630D01*
X133980Y73635D01*
X133937Y73673D01*
X133901Y73692D01*
X133869Y73717D01*
X133760Y73764D01*
X133654Y73818D01*
X133615Y73827D01*
X133577Y73843D01*
X133460Y73862D01*
X133344Y73888D01*
X133303Y73886D01*
X133263Y73893D01*
X133145Y73882D01*
X133026Y73878D01*
X132987Y73867D01*
X132947Y73863D01*
X132834Y73823D01*
X132720Y73790D01*
X132685Y73769D01*
X132647Y73755D01*
X132549Y73689D01*
X132446Y73628D01*
X132401Y73588D01*
X132384Y73577D01*
X132371Y73562D01*
X132334Y73529D01*
X132325Y73522D01*
X132198Y73395D01*
X132138Y73316D01*
X132070Y73244D01*
X132041Y73191D01*
X132004Y73143D01*
X131964Y73052D01*
X131916Y72966D01*
X131901Y72907D01*
X131877Y72852D01*
X131862Y72754D01*
X131837Y72658D01*
X131831Y72558D01*
X131827Y72537D01*
X131829Y72525D01*
X131827Y72497D01*
X131827Y62938D01*
X127308Y58419D01*
X118944Y58419D01*
X118846Y58407D01*
X118747Y58404D01*
X118689Y58387D01*
X118629Y58379D01*
X118537Y58343D01*
X118441Y58315D01*
X118389Y58285D01*
X118333Y58262D01*
X118253Y58204D01*
X118168Y58154D01*
X118092Y58088D01*
X118076Y58076D01*
X118068Y58066D01*
X118047Y58048D01*
X93082Y33083D01*
X93022Y33005D01*
X92954Y32933D01*
X92925Y32880D01*
X92888Y32832D01*
X92848Y32741D01*
X92800Y32654D01*
X92785Y32596D01*
X92761Y32540D01*
X92746Y32442D01*
X92721Y32346D01*
X92715Y32246D01*
X92711Y32226D01*
X92713Y32214D01*
X92711Y32186D01*
X92711Y24067D01*
X92714Y24038D01*
X92712Y24009D01*
X92734Y23880D01*
X92751Y23752D01*
X92761Y23724D01*
X92766Y23695D01*
X92820Y23577D01*
X92868Y23456D01*
X92885Y23432D01*
X92897Y23405D01*
X92978Y23304D01*
X93054Y23199D01*
X93077Y23180D01*
X93096Y23157D01*
X93199Y23079D01*
X93299Y22996D01*
X93326Y22983D01*
X93350Y22966D01*
X93494Y22895D01*
X95231Y22175D01*
X98375Y19031D01*
X100077Y14923D01*
X100077Y10477D01*
X98375Y6369D01*
X96968Y4961D01*
X96882Y4852D01*
X96794Y4745D01*
X96785Y4726D01*
X96773Y4710D01*
X96717Y4582D01*
X96658Y4457D01*
X96655Y4437D01*
X96646Y4418D01*
X96625Y4280D01*
X96599Y4144D01*
X96600Y4124D01*
X96597Y4104D01*
X96610Y3965D01*
X96618Y3827D01*
X96625Y3808D01*
X96626Y3788D01*
X96674Y3656D01*
X96716Y3525D01*
X96727Y3507D01*
X96734Y3488D01*
X96812Y3373D01*
X96886Y3256D01*
X96901Y3242D01*
X96913Y3225D01*
X97017Y3133D01*
X97118Y3038D01*
X97136Y3028D01*
X97151Y3015D01*
X97275Y2951D01*
X97397Y2884D01*
X97416Y2879D01*
X97434Y2870D01*
X97570Y2840D01*
X97705Y2805D01*
X97733Y2803D01*
X97745Y2800D01*
X97765Y2801D01*
X97865Y2795D01*
X105335Y2795D01*
X105473Y2812D01*
G37*
%LPC*%
G36*
X183526Y46227D02*
X183526Y46227D01*
X180847Y48906D01*
X180847Y52694D01*
X182254Y54100D01*
X182314Y54179D01*
X182382Y54251D01*
X182411Y54304D01*
X182448Y54352D01*
X182488Y54443D01*
X182536Y54529D01*
X182551Y54588D01*
X182575Y54643D01*
X182590Y54741D01*
X182615Y54837D01*
X182621Y54937D01*
X182625Y54958D01*
X182623Y54970D01*
X182625Y54998D01*
X182625Y79597D01*
X182613Y79695D01*
X182610Y79794D01*
X182593Y79852D01*
X182585Y79912D01*
X182549Y80004D01*
X182521Y80099D01*
X182491Y80152D01*
X182468Y80208D01*
X182410Y80288D01*
X182360Y80373D01*
X182294Y80449D01*
X182282Y80465D01*
X182272Y80473D01*
X182254Y80494D01*
X173986Y88762D01*
X173897Y88831D01*
X173865Y88861D01*
X173858Y88864D01*
X173802Y88914D01*
X173766Y88932D01*
X173734Y88957D01*
X173625Y89004D01*
X173519Y89058D01*
X173480Y89067D01*
X173443Y89083D01*
X173325Y89102D01*
X173209Y89128D01*
X173169Y89127D01*
X173129Y89133D01*
X173010Y89122D01*
X172891Y89118D01*
X172852Y89107D01*
X172812Y89103D01*
X172700Y89063D01*
X172586Y89030D01*
X172551Y89009D01*
X172513Y88996D01*
X172414Y88929D01*
X172312Y88868D01*
X172266Y88829D01*
X172249Y88817D01*
X172236Y88802D01*
X172191Y88762D01*
X170804Y87375D01*
X167016Y87375D01*
X164337Y90054D01*
X164337Y93842D01*
X167016Y96521D01*
X170804Y96521D01*
X172210Y95114D01*
X172289Y95054D01*
X172361Y94986D01*
X172414Y94957D01*
X172462Y94920D01*
X172553Y94880D01*
X172639Y94832D01*
X172698Y94817D01*
X172753Y94793D01*
X172851Y94778D01*
X172947Y94753D01*
X173047Y94747D01*
X173068Y94743D01*
X173080Y94745D01*
X173108Y94743D01*
X175910Y94743D01*
X187476Y83176D01*
X187554Y83116D01*
X187626Y83048D01*
X187679Y83019D01*
X187727Y82982D01*
X187818Y82942D01*
X187905Y82894D01*
X187963Y82879D01*
X188019Y82855D01*
X188117Y82840D01*
X188213Y82815D01*
X188313Y82809D01*
X188333Y82805D01*
X188345Y82807D01*
X188373Y82805D01*
X192850Y82805D01*
X192968Y82820D01*
X193086Y82827D01*
X193125Y82840D01*
X193165Y82845D01*
X193276Y82888D01*
X193389Y82925D01*
X193423Y82947D01*
X193461Y82962D01*
X193557Y83031D01*
X193658Y83095D01*
X193685Y83125D01*
X193718Y83148D01*
X193794Y83240D01*
X193876Y83327D01*
X193895Y83362D01*
X193921Y83393D01*
X193972Y83501D01*
X194029Y83605D01*
X194039Y83645D01*
X194056Y83681D01*
X194060Y83700D01*
X194680Y84319D01*
X194753Y84413D01*
X194831Y84503D01*
X194850Y84539D01*
X194875Y84571D01*
X194922Y84680D01*
X194976Y84786D01*
X194985Y84825D01*
X195001Y84863D01*
X195020Y84980D01*
X195046Y85096D01*
X195044Y85137D01*
X195051Y85177D01*
X195040Y85295D01*
X195036Y85414D01*
X195025Y85453D01*
X195021Y85493D01*
X194981Y85606D01*
X194948Y85720D01*
X194927Y85754D01*
X194913Y85793D01*
X194847Y85891D01*
X194786Y85994D01*
X194746Y86039D01*
X194735Y86056D01*
X194720Y86069D01*
X194680Y86114D01*
X194053Y86741D01*
X194035Y86786D01*
X193998Y86899D01*
X193977Y86934D01*
X193962Y86971D01*
X193892Y87067D01*
X193828Y87168D01*
X193799Y87196D01*
X193775Y87229D01*
X193683Y87305D01*
X193597Y87386D01*
X193561Y87406D01*
X193530Y87431D01*
X193422Y87482D01*
X193318Y87540D01*
X193279Y87550D01*
X193242Y87567D01*
X193126Y87589D01*
X193010Y87619D01*
X192950Y87623D01*
X192930Y87627D01*
X192910Y87625D01*
X192902Y87626D01*
X188444Y92084D01*
X186435Y94092D01*
X186435Y97402D01*
X186423Y97500D01*
X186420Y97599D01*
X186403Y97658D01*
X186395Y97718D01*
X186359Y97810D01*
X186331Y97905D01*
X186301Y97957D01*
X186278Y98013D01*
X186220Y98093D01*
X186170Y98179D01*
X186104Y98254D01*
X186092Y98271D01*
X186082Y98279D01*
X186064Y98300D01*
X184657Y99706D01*
X184657Y103494D01*
X187336Y106173D01*
X191124Y106173D01*
X193803Y103494D01*
X193803Y99706D01*
X192396Y98300D01*
X192336Y98221D01*
X192268Y98149D01*
X192239Y98096D01*
X192202Y98048D01*
X192162Y97957D01*
X192114Y97871D01*
X192099Y97812D01*
X192075Y97757D01*
X192060Y97659D01*
X192035Y97563D01*
X192029Y97463D01*
X192025Y97442D01*
X192027Y97430D01*
X192025Y97402D01*
X192025Y96933D01*
X192037Y96835D01*
X192040Y96736D01*
X192057Y96678D01*
X192065Y96618D01*
X192101Y96526D01*
X192129Y96431D01*
X192159Y96378D01*
X192182Y96322D01*
X192240Y96242D01*
X192290Y96157D01*
X192356Y96081D01*
X192368Y96065D01*
X192378Y96057D01*
X192396Y96036D01*
X193292Y95141D01*
X193386Y95068D01*
X193475Y94989D01*
X193511Y94970D01*
X193543Y94946D01*
X193652Y94898D01*
X193758Y94844D01*
X193798Y94835D01*
X193835Y94819D01*
X193953Y94801D01*
X194069Y94775D01*
X194109Y94776D01*
X194149Y94769D01*
X194268Y94781D01*
X194386Y94784D01*
X194425Y94795D01*
X194466Y94799D01*
X194578Y94840D01*
X194692Y94873D01*
X194727Y94893D01*
X194765Y94907D01*
X194863Y94974D01*
X194966Y95034D01*
X195011Y95074D01*
X195028Y95085D01*
X195042Y95101D01*
X195087Y95141D01*
X195451Y95505D01*
X209044Y95505D01*
X210376Y94173D01*
X210376Y86675D01*
X209815Y86114D01*
X209742Y86020D01*
X209664Y85931D01*
X209645Y85895D01*
X209620Y85863D01*
X209573Y85754D01*
X209519Y85648D01*
X209510Y85609D01*
X209494Y85571D01*
X209475Y85454D01*
X209449Y85338D01*
X209451Y85297D01*
X209444Y85257D01*
X209455Y85139D01*
X209459Y85020D01*
X209470Y84981D01*
X209474Y84941D01*
X209514Y84829D01*
X209547Y84714D01*
X209568Y84679D01*
X209582Y84641D01*
X209648Y84543D01*
X209709Y84440D01*
X209749Y84395D01*
X209760Y84378D01*
X209776Y84365D01*
X209815Y84319D01*
X210376Y83759D01*
X210376Y76261D01*
X209815Y75700D01*
X209742Y75606D01*
X209664Y75517D01*
X209645Y75481D01*
X209620Y75449D01*
X209573Y75340D01*
X209519Y75234D01*
X209510Y75195D01*
X209494Y75157D01*
X209475Y75040D01*
X209449Y74924D01*
X209451Y74883D01*
X209444Y74843D01*
X209455Y74725D01*
X209459Y74606D01*
X209470Y74567D01*
X209474Y74527D01*
X209514Y74415D01*
X209547Y74300D01*
X209568Y74265D01*
X209582Y74227D01*
X209648Y74129D01*
X209709Y74026D01*
X209749Y73981D01*
X209760Y73964D01*
X209776Y73951D01*
X209815Y73905D01*
X210376Y73345D01*
X210376Y65847D01*
X209044Y64515D01*
X198882Y64515D01*
X198764Y64500D01*
X198645Y64493D01*
X198607Y64480D01*
X198566Y64475D01*
X198456Y64432D01*
X198343Y64395D01*
X198308Y64373D01*
X198271Y64358D01*
X198175Y64289D01*
X198074Y64225D01*
X198046Y64195D01*
X198013Y64172D01*
X197937Y64080D01*
X197856Y63993D01*
X197836Y63958D01*
X197811Y63927D01*
X197760Y63819D01*
X197702Y63715D01*
X197692Y63675D01*
X197675Y63639D01*
X197653Y63522D01*
X197623Y63407D01*
X197619Y63347D01*
X197615Y63327D01*
X197617Y63306D01*
X197613Y63246D01*
X197613Y59066D01*
X194934Y56387D01*
X191146Y56387D01*
X190381Y57152D01*
X190272Y57236D01*
X190165Y57326D01*
X190146Y57334D01*
X190130Y57347D01*
X190003Y57402D01*
X189877Y57461D01*
X189857Y57465D01*
X189838Y57473D01*
X189700Y57495D01*
X189564Y57521D01*
X189544Y57520D01*
X189524Y57523D01*
X189385Y57510D01*
X189247Y57501D01*
X189228Y57495D01*
X189208Y57493D01*
X189076Y57446D01*
X188945Y57403D01*
X188927Y57392D01*
X188908Y57385D01*
X188793Y57307D01*
X188676Y57233D01*
X188662Y57218D01*
X188645Y57207D01*
X188553Y57103D01*
X188458Y57001D01*
X188448Y56984D01*
X188435Y56968D01*
X188372Y56845D01*
X188304Y56723D01*
X188299Y56703D01*
X188290Y56685D01*
X188260Y56549D01*
X188225Y56415D01*
X188223Y56387D01*
X188220Y56375D01*
X188221Y56354D01*
X188215Y56254D01*
X188215Y54998D01*
X188227Y54900D01*
X188230Y54801D01*
X188247Y54742D01*
X188255Y54682D01*
X188291Y54590D01*
X188319Y54495D01*
X188349Y54443D01*
X188372Y54387D01*
X188430Y54307D01*
X188480Y54221D01*
X188546Y54146D01*
X188558Y54129D01*
X188568Y54121D01*
X188586Y54100D01*
X189993Y52694D01*
X189993Y48906D01*
X187314Y46227D01*
X183526Y46227D01*
G37*
%LPD*%
%LPC*%
G36*
X104786Y94487D02*
X104786Y94487D01*
X103380Y95894D01*
X103301Y95954D01*
X103229Y96022D01*
X103176Y96051D01*
X103128Y96088D01*
X103037Y96128D01*
X102951Y96176D01*
X102892Y96191D01*
X102837Y96215D01*
X102739Y96230D01*
X102643Y96255D01*
X102543Y96261D01*
X102522Y96265D01*
X102510Y96263D01*
X102482Y96265D01*
X90282Y96265D01*
X78485Y108062D01*
X78485Y166258D01*
X89218Y176990D01*
X147677Y176990D01*
X147776Y177002D01*
X147875Y177005D01*
X147933Y177022D01*
X147993Y177030D01*
X148085Y177066D01*
X148180Y177094D01*
X148232Y177124D01*
X148289Y177147D01*
X148369Y177205D01*
X148454Y177255D01*
X148529Y177322D01*
X148546Y177334D01*
X148554Y177343D01*
X148575Y177362D01*
X150207Y178994D01*
X154183Y178994D01*
X156994Y176183D01*
X156994Y172207D01*
X154183Y169396D01*
X150207Y169396D01*
X148575Y171029D01*
X148497Y171089D01*
X148425Y171157D01*
X148372Y171186D01*
X148324Y171224D01*
X148233Y171263D01*
X148146Y171311D01*
X148087Y171326D01*
X148032Y171350D01*
X147934Y171365D01*
X147838Y171390D01*
X147738Y171397D01*
X147718Y171400D01*
X147705Y171399D01*
X147677Y171400D01*
X92058Y171400D01*
X91960Y171388D01*
X91861Y171385D01*
X91803Y171368D01*
X91743Y171361D01*
X91651Y171324D01*
X91556Y171297D01*
X91504Y171266D01*
X91447Y171244D01*
X91367Y171185D01*
X91282Y171135D01*
X91206Y171069D01*
X91190Y171057D01*
X91182Y171047D01*
X91161Y171029D01*
X84446Y164314D01*
X84386Y164236D01*
X84318Y164164D01*
X84289Y164111D01*
X84252Y164063D01*
X84212Y163972D01*
X84164Y163885D01*
X84149Y163827D01*
X84125Y163771D01*
X84110Y163673D01*
X84085Y163577D01*
X84079Y163477D01*
X84075Y163457D01*
X84077Y163445D01*
X84075Y163417D01*
X84075Y110903D01*
X84087Y110805D01*
X84090Y110706D01*
X84107Y110648D01*
X84115Y110588D01*
X84151Y110496D01*
X84179Y110401D01*
X84209Y110348D01*
X84232Y110292D01*
X84290Y110212D01*
X84340Y110127D01*
X84406Y110051D01*
X84418Y110035D01*
X84428Y110027D01*
X84446Y110006D01*
X92226Y102226D01*
X92304Y102166D01*
X92376Y102098D01*
X92429Y102069D01*
X92477Y102032D01*
X92568Y101992D01*
X92655Y101944D01*
X92713Y101929D01*
X92769Y101905D01*
X92867Y101890D01*
X92963Y101865D01*
X93063Y101859D01*
X93083Y101855D01*
X93095Y101857D01*
X93123Y101855D01*
X102482Y101855D01*
X102580Y101867D01*
X102679Y101870D01*
X102738Y101887D01*
X102798Y101895D01*
X102890Y101931D01*
X102985Y101959D01*
X103037Y101989D01*
X103093Y102012D01*
X103173Y102070D01*
X103259Y102120D01*
X103334Y102186D01*
X103351Y102198D01*
X103359Y102208D01*
X103380Y102226D01*
X104786Y103633D01*
X108574Y103633D01*
X111253Y100954D01*
X111253Y97166D01*
X108574Y94487D01*
X104786Y94487D01*
G37*
%LPD*%
%LPC*%
G36*
X233425Y176529D02*
X233425Y176529D01*
X233425Y184087D01*
X243967Y184087D01*
X243986Y184099D01*
X244008Y184103D01*
X244015Y184118D01*
X244024Y184124D01*
X244023Y184134D01*
X244030Y184150D01*
X244030Y186690D01*
X244018Y186709D01*
X244014Y186731D01*
X243999Y186738D01*
X243993Y186747D01*
X243983Y186746D01*
X243967Y186753D01*
X233425Y186753D01*
X233425Y194311D01*
X234981Y194311D01*
X235754Y194104D01*
X236446Y193704D01*
X236623Y193527D01*
X236711Y193458D01*
X236746Y193425D01*
X236754Y193421D01*
X236807Y193375D01*
X236843Y193357D01*
X236875Y193332D01*
X236984Y193284D01*
X237090Y193230D01*
X237129Y193221D01*
X237166Y193205D01*
X237284Y193187D01*
X237400Y193161D01*
X237441Y193162D01*
X237480Y193156D01*
X237599Y193167D01*
X237718Y193170D01*
X237757Y193182D01*
X237797Y193185D01*
X237909Y193226D01*
X238024Y193259D01*
X238058Y193279D01*
X238096Y193293D01*
X238195Y193360D01*
X238297Y193420D01*
X238343Y193460D01*
X238360Y193472D01*
X238373Y193487D01*
X238418Y193527D01*
X238660Y193768D01*
X238733Y193862D01*
X238812Y193952D01*
X238830Y193988D01*
X238855Y194020D01*
X238902Y194129D01*
X238956Y194235D01*
X238965Y194274D01*
X238981Y194311D01*
X239000Y194429D01*
X239026Y194545D01*
X239025Y194585D01*
X239031Y194625D01*
X239020Y194744D01*
X239016Y194863D01*
X239005Y194902D01*
X239001Y194942D01*
X238961Y195054D01*
X238928Y195168D01*
X238907Y195203D01*
X238894Y195241D01*
X238827Y195340D01*
X238766Y195442D01*
X238726Y195488D01*
X238715Y195505D01*
X238700Y195518D01*
X238660Y195563D01*
X237997Y196226D01*
X237997Y200014D01*
X240676Y202693D01*
X244464Y202693D01*
X247143Y200014D01*
X247143Y196226D01*
X246099Y195182D01*
X246026Y195088D01*
X245947Y194999D01*
X245929Y194963D01*
X245904Y194931D01*
X245857Y194822D01*
X245803Y194716D01*
X245794Y194676D01*
X245778Y194639D01*
X245759Y194521D01*
X245733Y194405D01*
X245734Y194365D01*
X245728Y194325D01*
X245739Y194206D01*
X245743Y194088D01*
X245754Y194049D01*
X245758Y194008D01*
X245798Y193896D01*
X245831Y193782D01*
X245852Y193747D01*
X245865Y193709D01*
X245932Y193611D01*
X245993Y193508D01*
X246032Y193463D01*
X246044Y193446D01*
X246059Y193433D01*
X246099Y193387D01*
X247270Y192217D01*
X247270Y178623D01*
X245938Y177291D01*
X238440Y177291D01*
X238418Y177313D01*
X238324Y177386D01*
X238235Y177465D01*
X238199Y177483D01*
X238167Y177508D01*
X238058Y177555D01*
X237952Y177610D01*
X237912Y177619D01*
X237875Y177635D01*
X237758Y177653D01*
X237642Y177679D01*
X237601Y177678D01*
X237561Y177684D01*
X237443Y177673D01*
X237324Y177670D01*
X237285Y177658D01*
X237245Y177655D01*
X237132Y177614D01*
X237018Y177581D01*
X236983Y177561D01*
X236945Y177547D01*
X236847Y177480D01*
X236744Y177420D01*
X236699Y177380D01*
X236682Y177368D01*
X236669Y177353D01*
X236623Y177313D01*
X236446Y177136D01*
X235754Y176736D01*
X234981Y176529D01*
X233425Y176529D01*
G37*
%LPD*%
%LPC*%
G36*
X125012Y202211D02*
X125012Y202211D01*
X122201Y205022D01*
X122201Y208998D01*
X125012Y211809D01*
X128988Y211809D01*
X130620Y210176D01*
X130698Y210116D01*
X130770Y210048D01*
X130823Y210019D01*
X130871Y209982D01*
X130962Y209942D01*
X131049Y209894D01*
X131107Y209879D01*
X131163Y209855D01*
X131261Y209840D01*
X131357Y209815D01*
X131457Y209809D01*
X131477Y209805D01*
X131489Y209807D01*
X131517Y209805D01*
X150423Y209805D01*
X150521Y209817D01*
X150620Y209820D01*
X150678Y209837D01*
X150738Y209845D01*
X150830Y209881D01*
X150925Y209909D01*
X150977Y209939D01*
X151034Y209962D01*
X151114Y210020D01*
X151199Y210070D01*
X151275Y210136D01*
X151291Y210148D01*
X151299Y210158D01*
X151320Y210176D01*
X152952Y211809D01*
X156928Y211809D01*
X159739Y208998D01*
X159739Y205022D01*
X156928Y202211D01*
X152952Y202211D01*
X151320Y203844D01*
X151242Y203904D01*
X151170Y203972D01*
X151117Y204001D01*
X151069Y204038D01*
X150978Y204078D01*
X150891Y204126D01*
X150833Y204141D01*
X150777Y204165D01*
X150679Y204180D01*
X150583Y204205D01*
X150483Y204211D01*
X150463Y204215D01*
X150451Y204213D01*
X150423Y204215D01*
X131517Y204215D01*
X131419Y204203D01*
X131320Y204200D01*
X131262Y204183D01*
X131202Y204175D01*
X131110Y204139D01*
X131015Y204111D01*
X130963Y204081D01*
X130906Y204058D01*
X130826Y204000D01*
X130741Y203950D01*
X130665Y203884D01*
X130649Y203872D01*
X130641Y203862D01*
X130620Y203844D01*
X128988Y202211D01*
X125012Y202211D01*
G37*
%LPD*%
%LPC*%
G36*
X89800Y52577D02*
X89800Y52577D01*
X87121Y55256D01*
X87121Y59044D01*
X88528Y60450D01*
X88588Y60529D01*
X88656Y60601D01*
X88685Y60654D01*
X88722Y60702D01*
X88762Y60793D01*
X88810Y60879D01*
X88825Y60938D01*
X88849Y60993D01*
X88864Y61091D01*
X88889Y61187D01*
X88895Y61287D01*
X88899Y61308D01*
X88897Y61320D01*
X88899Y61348D01*
X88899Y71748D01*
X88887Y71846D01*
X88884Y71945D01*
X88867Y72004D01*
X88859Y72064D01*
X88823Y72156D01*
X88795Y72251D01*
X88765Y72303D01*
X88742Y72359D01*
X88684Y72439D01*
X88634Y72525D01*
X88568Y72600D01*
X88556Y72617D01*
X88546Y72625D01*
X88528Y72646D01*
X86867Y74306D01*
X86867Y78094D01*
X89546Y80773D01*
X93334Y80773D01*
X96013Y78094D01*
X96013Y74306D01*
X94860Y73154D01*
X94800Y73075D01*
X94732Y73003D01*
X94703Y72950D01*
X94666Y72902D01*
X94626Y72811D01*
X94578Y72725D01*
X94563Y72666D01*
X94539Y72611D01*
X94524Y72513D01*
X94499Y72417D01*
X94493Y72317D01*
X94489Y72296D01*
X94491Y72284D01*
X94489Y72256D01*
X94489Y61348D01*
X94501Y61250D01*
X94504Y61151D01*
X94521Y61092D01*
X94529Y61032D01*
X94565Y60940D01*
X94593Y60845D01*
X94623Y60793D01*
X94646Y60737D01*
X94704Y60657D01*
X94754Y60571D01*
X94820Y60496D01*
X94832Y60479D01*
X94842Y60471D01*
X94860Y60450D01*
X96267Y59044D01*
X96267Y55256D01*
X93588Y52577D01*
X89800Y52577D01*
G37*
%LPD*%
%LPC*%
G36*
X20605Y190626D02*
X20605Y190626D01*
X18784Y191380D01*
X17390Y192774D01*
X16636Y194595D01*
X16636Y196565D01*
X17390Y198386D01*
X18784Y199780D01*
X20605Y200534D01*
X22575Y200534D01*
X24396Y199780D01*
X25790Y198386D01*
X26544Y196565D01*
X26544Y194595D01*
X25790Y192774D01*
X24396Y191380D01*
X22575Y190626D01*
X20605Y190626D01*
G37*
%LPD*%
%LPC*%
G36*
X211359Y50926D02*
X211359Y50926D01*
X209538Y51680D01*
X208144Y53074D01*
X207390Y54895D01*
X207390Y56865D01*
X208144Y58686D01*
X209538Y60080D01*
X211359Y60834D01*
X213329Y60834D01*
X215150Y60080D01*
X216544Y58686D01*
X217298Y56865D01*
X217298Y54895D01*
X216544Y53074D01*
X215150Y51680D01*
X213329Y50926D01*
X211359Y50926D01*
G37*
%LPD*%
G36*
X140354Y79769D02*
X140354Y79769D01*
X140376Y79772D01*
X140383Y79788D01*
X140392Y79794D01*
X140391Y79804D01*
X140398Y79820D01*
X140398Y82360D01*
X140386Y82378D01*
X140382Y82401D01*
X140367Y82408D01*
X140361Y82417D01*
X140351Y82415D01*
X140335Y82422D01*
X115697Y82422D01*
X115678Y82410D01*
X115656Y82407D01*
X115649Y82391D01*
X115640Y82385D01*
X115641Y82375D01*
X115634Y82360D01*
X115634Y79820D01*
X115646Y79801D01*
X115650Y79778D01*
X115665Y79771D01*
X115671Y79762D01*
X115681Y79764D01*
X115697Y79757D01*
X140335Y79757D01*
X140354Y79769D01*
G37*
%LPC*%
G36*
X51815Y15239D02*
X51815Y15239D01*
X51855Y15496D01*
X52436Y17283D01*
X53289Y18957D01*
X54394Y20478D01*
X55722Y21806D01*
X57243Y22911D01*
X58917Y23764D01*
X60704Y24345D01*
X60961Y24385D01*
X60961Y15239D01*
X51815Y15239D01*
G37*
%LPD*%
G36*
X203536Y78054D02*
X203536Y78054D01*
X203559Y78058D01*
X203566Y78073D01*
X203575Y78079D01*
X203573Y78089D01*
X203580Y78105D01*
X203580Y92329D01*
X203568Y92348D01*
X203565Y92370D01*
X203549Y92377D01*
X203543Y92386D01*
X203533Y92385D01*
X203518Y92392D01*
X200978Y92392D01*
X200959Y92380D01*
X200936Y92376D01*
X200929Y92361D01*
X200920Y92355D01*
X200922Y92345D01*
X200915Y92329D01*
X200915Y78105D01*
X200927Y78086D01*
X200930Y78064D01*
X200946Y78057D01*
X200952Y78048D01*
X200962Y78049D01*
X200978Y78042D01*
X203518Y78042D01*
X203536Y78054D01*
G37*
%LPC*%
G36*
X225932Y187070D02*
X225932Y187070D01*
X225932Y191674D01*
X226139Y192447D01*
X226539Y193139D01*
X227104Y193704D01*
X227796Y194104D01*
X228569Y194311D01*
X230125Y194311D01*
X230125Y187070D01*
X225932Y187070D01*
G37*
%LPD*%
%LPC*%
G36*
X228569Y176529D02*
X228569Y176529D01*
X227796Y176736D01*
X227104Y177136D01*
X226539Y177701D01*
X226139Y178393D01*
X225932Y179166D01*
X225932Y183770D01*
X230125Y183770D01*
X230125Y176529D01*
X228569Y176529D01*
G37*
%LPD*%
D10*
X243699Y136366D02*
X247936Y134248D01*
X243699Y132129D01*
X242640Y128882D02*
X246877Y128882D01*
X242640Y128882D02*
X241580Y127823D01*
X241580Y125704D01*
X242640Y124645D01*
X246877Y124645D01*
X247936Y125704D01*
X247936Y127823D01*
X246877Y128882D01*
X242640Y124645D01*
X243699Y121398D02*
X241580Y119279D01*
X247936Y119279D01*
X247936Y117161D02*
X247936Y121398D01*
D11*
X208103Y72403D02*
X208103Y66789D01*
X196393Y66789D01*
X196393Y72403D01*
X208103Y72403D01*
X208103Y67730D02*
X196393Y67730D01*
X196393Y68671D02*
X208103Y68671D01*
X208103Y69612D02*
X196393Y69612D01*
X196393Y70553D02*
X208103Y70553D01*
X208103Y71494D02*
X196393Y71494D01*
X208103Y77203D02*
X208103Y82817D01*
X208103Y77203D02*
X196393Y77203D01*
X196393Y82817D01*
X208103Y82817D01*
X208103Y78144D02*
X196393Y78144D01*
X196393Y79085D02*
X208103Y79085D01*
X208103Y80026D02*
X196393Y80026D01*
X196393Y80967D02*
X208103Y80967D01*
X208103Y81908D02*
X196393Y81908D01*
X208103Y87617D02*
X208103Y93231D01*
X208103Y87617D02*
X196393Y87617D01*
X196393Y93231D01*
X208103Y93231D01*
X208103Y88558D02*
X196393Y88558D01*
X196393Y89499D02*
X208103Y89499D01*
X208103Y90440D02*
X196393Y90440D01*
X196393Y91381D02*
X208103Y91381D01*
X208103Y92322D02*
X196393Y92322D01*
X120409Y75235D02*
X114795Y75235D01*
X114795Y86945D01*
X120409Y86945D01*
X120409Y75235D01*
X120409Y76176D02*
X114795Y76176D01*
X114795Y77117D02*
X120409Y77117D01*
X120409Y78058D02*
X114795Y78058D01*
X114795Y78999D02*
X120409Y78999D01*
X120409Y79940D02*
X114795Y79940D01*
X114795Y80881D02*
X120409Y80881D01*
X120409Y81822D02*
X114795Y81822D01*
X114795Y82763D02*
X120409Y82763D01*
X120409Y83704D02*
X114795Y83704D01*
X114795Y84645D02*
X120409Y84645D01*
X120409Y85586D02*
X114795Y85586D01*
X114795Y86527D02*
X120409Y86527D01*
X125209Y75235D02*
X130823Y75235D01*
X125209Y75235D02*
X125209Y86945D01*
X130823Y86945D01*
X130823Y75235D01*
X130823Y76176D02*
X125209Y76176D01*
X125209Y77117D02*
X130823Y77117D01*
X130823Y78058D02*
X125209Y78058D01*
X125209Y78999D02*
X130823Y78999D01*
X130823Y79940D02*
X125209Y79940D01*
X125209Y80881D02*
X130823Y80881D01*
X130823Y81822D02*
X125209Y81822D01*
X125209Y82763D02*
X130823Y82763D01*
X130823Y83704D02*
X125209Y83704D01*
X125209Y84645D02*
X130823Y84645D01*
X130823Y85586D02*
X125209Y85586D01*
X125209Y86527D02*
X130823Y86527D01*
X135623Y75235D02*
X141237Y75235D01*
X135623Y75235D02*
X135623Y86945D01*
X141237Y86945D01*
X141237Y75235D01*
X141237Y76176D02*
X135623Y76176D01*
X135623Y77117D02*
X141237Y77117D01*
X141237Y78058D02*
X135623Y78058D01*
X135623Y78999D02*
X141237Y78999D01*
X141237Y79940D02*
X135623Y79940D01*
X135623Y80881D02*
X141237Y80881D01*
X141237Y81822D02*
X135623Y81822D01*
X135623Y82763D02*
X141237Y82763D01*
X141237Y83704D02*
X135623Y83704D01*
X135623Y84645D02*
X141237Y84645D01*
X141237Y85586D02*
X135623Y85586D01*
X135623Y86527D02*
X141237Y86527D01*
D12*
X190500Y12700D03*
X165100Y12700D03*
X139700Y12700D03*
X114300Y12700D03*
X88900Y12700D03*
X63500Y12700D03*
X88900Y241300D03*
X114300Y241300D03*
X139700Y241300D03*
X165100Y241300D03*
D13*
X21590Y195580D03*
X212344Y55880D03*
D11*
X228968Y179565D02*
X234582Y179565D01*
X228968Y179565D02*
X228968Y191275D01*
X234582Y191275D01*
X234582Y179565D01*
X234582Y180506D02*
X228968Y180506D01*
X228968Y181447D02*
X234582Y181447D01*
X234582Y182388D02*
X228968Y182388D01*
X228968Y183329D02*
X234582Y183329D01*
X234582Y184270D02*
X228968Y184270D01*
X228968Y185211D02*
X234582Y185211D01*
X234582Y186152D02*
X228968Y186152D01*
X228968Y187093D02*
X234582Y187093D01*
X234582Y188034D02*
X228968Y188034D01*
X228968Y188975D02*
X234582Y188975D01*
X234582Y189916D02*
X228968Y189916D01*
X228968Y190857D02*
X234582Y190857D01*
X239382Y179565D02*
X244996Y179565D01*
X239382Y179565D02*
X239382Y191275D01*
X244996Y191275D01*
X244996Y179565D01*
X244996Y180506D02*
X239382Y180506D01*
X239382Y181447D02*
X244996Y181447D01*
X244996Y182388D02*
X239382Y182388D01*
X239382Y183329D02*
X244996Y183329D01*
X244996Y184270D02*
X239382Y184270D01*
X239382Y185211D02*
X244996Y185211D01*
X244996Y186152D02*
X239382Y186152D01*
X239382Y187093D02*
X244996Y187093D01*
X244996Y188034D02*
X239382Y188034D01*
X239382Y188975D02*
X244996Y188975D01*
X244996Y189916D02*
X239382Y189916D01*
X239382Y190857D02*
X244996Y190857D01*
D14*
X106680Y85090D03*
X217170Y196850D03*
X204470Y102870D03*
X222250Y73660D03*
X66040Y142240D03*
X193802Y51308D03*
X83058Y71628D03*
X189230Y111760D03*
X102870Y124460D03*
X102870Y139700D03*
X154940Y129540D03*
X174752Y56388D03*
X122682Y25908D03*
X167132Y84328D03*
X155702Y215138D03*
X141732Y216408D03*
X125222Y215138D03*
X97536Y60960D03*
X107950Y190500D03*
X65278Y81788D03*
X77978Y58928D03*
X104648Y29718D03*
X138938Y58928D03*
X146558Y41148D03*
X168910Y91948D03*
D15*
X186690Y80010D02*
X202248Y80010D01*
X186690Y80010D02*
X185420Y81280D01*
D14*
X185420Y50800D03*
D15*
X185420Y76200D01*
X185420Y81280D01*
X174752Y91948D01*
X168910Y91948D01*
D16*
X140970Y224790D03*
D15*
X130810Y224790D01*
X114300Y241300D01*
D14*
X187960Y121920D03*
X97790Y118110D03*
D17*
X88900Y34290D02*
X88900Y12700D01*
X116840Y62230D02*
X125730Y62230D01*
X128016Y64516D01*
X128016Y81090D01*
X116840Y62230D02*
X88900Y34290D01*
X165100Y121920D02*
X187960Y121920D01*
D16*
X144780Y121920D03*
D17*
X165100Y121920D01*
X165100Y160020D01*
D16*
X165100Y160020D03*
D17*
X165100Y181610D01*
X153670Y193040D01*
X126116Y193040D01*
D16*
X126116Y193040D03*
D17*
X127000Y118110D02*
X97790Y118110D01*
X127000Y118110D02*
X139969Y118110D01*
X142255Y120396D01*
X143256Y120396D01*
X144780Y121920D01*
X127000Y82106D02*
X128016Y81090D01*
X127000Y82106D02*
X127000Y118110D01*
D14*
X104648Y59436D03*
D15*
X111062Y81090D02*
X117602Y81090D01*
X111062Y81090D02*
X104648Y74676D01*
X104648Y59436D01*
D14*
X167640Y55880D03*
D15*
X167640Y74930D01*
X161481Y81090D02*
X138430Y81090D01*
X161481Y81090D02*
X167640Y74930D01*
D14*
X242570Y198120D03*
D15*
X242570Y185801D01*
X242189Y185420D01*
X202248Y90424D02*
X194056Y90424D01*
X189230Y95250D01*
X189230Y101600D01*
D14*
X189230Y101600D03*
D15*
X194628Y69596D02*
X202248Y69596D01*
X194628Y69596D02*
X193040Y68009D01*
X193040Y60960D01*
D14*
X193040Y60960D03*
X114300Y26670D03*
D15*
X114300Y45720D01*
X116840Y48260D01*
X157480Y48260D02*
X162560Y53340D01*
X162560Y72000D01*
D14*
X162560Y72000D03*
D15*
X157480Y48260D02*
X116840Y48260D01*
X165100Y234950D02*
X165100Y241300D01*
X165100Y234950D02*
X149225Y219075D01*
D14*
X149225Y219075D03*
D16*
X154940Y207010D03*
D15*
X127000Y207010D01*
D16*
X127000Y207010D03*
D14*
X106680Y99060D03*
D15*
X91440Y99060D01*
X90375Y174195D02*
X152195Y174195D01*
D16*
X152195Y174195D03*
D15*
X81280Y109220D02*
X91440Y99060D01*
X81280Y109220D02*
X81280Y165100D01*
X90375Y174195D01*
D14*
X91694Y57150D03*
D15*
X91694Y75946D01*
X91440Y76200D01*
D14*
X91440Y76200D03*
M02*
