G04 EAGLE Gerber RS-274X export*
G75*
%MOMM*%
%FSLAX34Y34*%
%LPD*%
%INTop Copper*%
%IPPOS*%
%AMOC8*
5,1,8,0,0,1.08239X$1,22.5*%
G01*
%ADD10C,0.100000*%
%ADD11C,0.635000*%
%ADD12C,1.879600*%
%ADD13C,0.096000*%
%ADD14C,0.102000*%
%ADD15C,0.300000*%
%ADD16C,0.225000*%
%ADD17C,0.558800*%
%ADD18C,0.203200*%
%ADD19C,0.604000*%
%ADD20C,0.406400*%

G36*
X53596Y2812D02*
X53596Y2812D01*
X53734Y2825D01*
X53753Y2832D01*
X53773Y2835D01*
X53902Y2886D01*
X54033Y2933D01*
X54050Y2944D01*
X54068Y2952D01*
X54181Y3033D01*
X54296Y3112D01*
X54310Y3127D01*
X54326Y3138D01*
X54415Y3246D01*
X54507Y3350D01*
X54516Y3368D01*
X54529Y3383D01*
X54588Y3509D01*
X54651Y3634D01*
X54656Y3653D01*
X54664Y3671D01*
X54690Y3808D01*
X54721Y3944D01*
X54720Y3964D01*
X54724Y3983D01*
X54715Y4122D01*
X54711Y4262D01*
X54705Y4281D01*
X54704Y4301D01*
X54661Y4433D01*
X54622Y4567D01*
X54612Y4584D01*
X54606Y4603D01*
X54531Y4721D01*
X54461Y4841D01*
X54442Y4862D01*
X54436Y4872D01*
X54421Y4886D01*
X54416Y4892D01*
X53289Y6443D01*
X52436Y8117D01*
X51855Y9904D01*
X51815Y10161D01*
X62230Y10161D01*
X62348Y10176D01*
X62467Y10183D01*
X62505Y10196D01*
X62545Y10201D01*
X62656Y10244D01*
X62769Y10281D01*
X62803Y10303D01*
X62841Y10318D01*
X62937Y10388D01*
X63038Y10451D01*
X63066Y10481D01*
X63098Y10504D01*
X63174Y10596D01*
X63256Y10683D01*
X63275Y10718D01*
X63301Y10749D01*
X63352Y10857D01*
X63409Y10961D01*
X63420Y11001D01*
X63437Y11037D01*
X63459Y11154D01*
X63489Y11269D01*
X63493Y11330D01*
X63497Y11350D01*
X63495Y11370D01*
X63499Y11430D01*
X63499Y12701D01*
X64770Y12701D01*
X64888Y12716D01*
X65007Y12723D01*
X65045Y12736D01*
X65085Y12741D01*
X65196Y12785D01*
X65309Y12821D01*
X65344Y12843D01*
X65381Y12858D01*
X65477Y12928D01*
X65578Y12991D01*
X65606Y13021D01*
X65639Y13045D01*
X65714Y13136D01*
X65796Y13223D01*
X65816Y13258D01*
X65841Y13290D01*
X65892Y13397D01*
X65950Y13502D01*
X65960Y13541D01*
X65977Y13577D01*
X65999Y13694D01*
X66029Y13809D01*
X66033Y13870D01*
X66037Y13890D01*
X66035Y13910D01*
X66039Y13970D01*
X66039Y24385D01*
X66296Y24345D01*
X68083Y23764D01*
X69757Y22911D01*
X71278Y21806D01*
X72606Y20478D01*
X73711Y18957D01*
X74564Y17283D01*
X75145Y15496D01*
X75220Y15023D01*
X75255Y14900D01*
X75286Y14774D01*
X75300Y14747D01*
X75308Y14718D01*
X75374Y14607D01*
X75434Y14493D01*
X75455Y14470D01*
X75470Y14444D01*
X75562Y14353D01*
X75648Y14257D01*
X75674Y14241D01*
X75695Y14219D01*
X75806Y14153D01*
X75914Y14082D01*
X75943Y14073D01*
X75969Y14057D01*
X76093Y14021D01*
X76215Y13979D01*
X76245Y13977D01*
X76274Y13968D01*
X76403Y13964D01*
X76532Y13954D01*
X76562Y13959D01*
X76592Y13958D01*
X76718Y13986D01*
X76845Y14008D01*
X76873Y14021D01*
X76902Y14027D01*
X77017Y14086D01*
X77135Y14139D01*
X77159Y14158D01*
X77186Y14171D01*
X77282Y14257D01*
X77384Y14338D01*
X77402Y14362D01*
X77424Y14382D01*
X77497Y14488D01*
X77575Y14592D01*
X77594Y14630D01*
X77603Y14644D01*
X77611Y14665D01*
X77646Y14736D01*
X79425Y19031D01*
X82569Y22175D01*
X86677Y23877D01*
X91123Y23877D01*
X95231Y22175D01*
X98375Y19031D01*
X100077Y14923D01*
X100077Y10477D01*
X98375Y6369D01*
X96968Y4961D01*
X96882Y4852D01*
X96794Y4745D01*
X96785Y4726D01*
X96773Y4710D01*
X96717Y4582D01*
X96658Y4457D01*
X96655Y4437D01*
X96646Y4418D01*
X96625Y4280D01*
X96599Y4144D01*
X96600Y4124D01*
X96597Y4104D01*
X96610Y3965D01*
X96618Y3827D01*
X96625Y3808D01*
X96626Y3788D01*
X96674Y3656D01*
X96716Y3525D01*
X96727Y3507D01*
X96734Y3488D01*
X96812Y3373D01*
X96886Y3256D01*
X96901Y3242D01*
X96913Y3225D01*
X97017Y3133D01*
X97118Y3038D01*
X97136Y3028D01*
X97151Y3015D01*
X97275Y2951D01*
X97397Y2884D01*
X97416Y2879D01*
X97434Y2870D01*
X97570Y2840D01*
X97705Y2805D01*
X97733Y2803D01*
X97745Y2800D01*
X97765Y2801D01*
X97865Y2795D01*
X105335Y2795D01*
X105473Y2812D01*
X105611Y2825D01*
X105630Y2832D01*
X105650Y2835D01*
X105780Y2886D01*
X105910Y2933D01*
X105927Y2944D01*
X105946Y2952D01*
X106058Y3033D01*
X106174Y3111D01*
X106187Y3127D01*
X106203Y3138D01*
X106292Y3246D01*
X106384Y3350D01*
X106393Y3368D01*
X106406Y3383D01*
X106465Y3509D01*
X106529Y3633D01*
X106533Y3653D01*
X106542Y3671D01*
X106568Y3808D01*
X106598Y3943D01*
X106598Y3964D01*
X106601Y3983D01*
X106593Y4122D01*
X106589Y4261D01*
X106583Y4281D01*
X106582Y4301D01*
X106539Y4433D01*
X106500Y4567D01*
X106490Y4584D01*
X106484Y4603D01*
X106409Y4721D01*
X106339Y4841D01*
X106320Y4862D01*
X106314Y4872D01*
X106299Y4886D01*
X106232Y4961D01*
X104825Y6369D01*
X103123Y10477D01*
X103123Y14923D01*
X104264Y17676D01*
X104271Y17704D01*
X104285Y17731D01*
X104313Y17858D01*
X104347Y17983D01*
X104348Y18012D01*
X104354Y18041D01*
X104350Y18171D01*
X104353Y18301D01*
X104346Y18329D01*
X104345Y18359D01*
X104309Y18484D01*
X104278Y18610D01*
X104265Y18636D01*
X104256Y18664D01*
X104190Y18776D01*
X104130Y18891D01*
X104110Y18913D01*
X104095Y18938D01*
X103988Y19059D01*
X57634Y65414D01*
X55625Y67422D01*
X55625Y94837D01*
X55613Y94935D01*
X55610Y95034D01*
X55593Y95092D01*
X55585Y95152D01*
X55549Y95244D01*
X55521Y95339D01*
X55491Y95392D01*
X55468Y95448D01*
X55410Y95528D01*
X55360Y95613D01*
X55294Y95689D01*
X55282Y95705D01*
X55272Y95713D01*
X55254Y95734D01*
X51284Y99704D01*
X51206Y99764D01*
X51134Y99832D01*
X51081Y99861D01*
X51033Y99898D01*
X50942Y99938D01*
X50855Y99986D01*
X50797Y100001D01*
X50741Y100025D01*
X50643Y100040D01*
X50547Y100065D01*
X50447Y100071D01*
X50427Y100075D01*
X50415Y100073D01*
X50387Y100075D01*
X39482Y100075D01*
X32765Y106792D01*
X32765Y119268D01*
X38292Y124795D01*
X41102Y124795D01*
X41200Y124807D01*
X41299Y124810D01*
X41358Y124827D01*
X41418Y124835D01*
X41510Y124871D01*
X41605Y124899D01*
X41657Y124929D01*
X41713Y124952D01*
X41793Y125010D01*
X41879Y125060D01*
X41954Y125126D01*
X41971Y125138D01*
X41979Y125148D01*
X42000Y125166D01*
X42936Y126103D01*
X43009Y126197D01*
X43088Y126286D01*
X43106Y126322D01*
X43131Y126354D01*
X43178Y126463D01*
X43232Y126569D01*
X43241Y126608D01*
X43257Y126646D01*
X43276Y126763D01*
X43302Y126879D01*
X43301Y126920D01*
X43307Y126960D01*
X43296Y127078D01*
X43292Y127197D01*
X43281Y127236D01*
X43277Y127276D01*
X43237Y127388D01*
X43204Y127503D01*
X43183Y127538D01*
X43169Y127576D01*
X43103Y127674D01*
X43042Y127777D01*
X43002Y127822D01*
X42991Y127839D01*
X42976Y127852D01*
X42936Y127898D01*
X42271Y128562D01*
X42271Y135438D01*
X42397Y135564D01*
X42470Y135658D01*
X42549Y135747D01*
X42567Y135783D01*
X42592Y135815D01*
X42639Y135924D01*
X42693Y136030D01*
X42702Y136070D01*
X42718Y136107D01*
X42737Y136225D01*
X42763Y136341D01*
X42762Y136381D01*
X42768Y136421D01*
X42757Y136540D01*
X42753Y136658D01*
X42742Y136697D01*
X42738Y136737D01*
X42698Y136849D01*
X42665Y136964D01*
X42644Y136999D01*
X42631Y137037D01*
X42564Y137135D01*
X42503Y137238D01*
X42464Y137283D01*
X42452Y137300D01*
X42437Y137313D01*
X42397Y137359D01*
X42119Y137637D01*
X41717Y138332D01*
X41509Y139108D01*
X41509Y140501D01*
X50570Y140501D01*
X50688Y140516D01*
X50807Y140523D01*
X50814Y140525D01*
X50870Y140511D01*
X50930Y140507D01*
X50950Y140503D01*
X50970Y140505D01*
X51030Y140501D01*
X60091Y140501D01*
X60091Y139108D01*
X59883Y138332D01*
X59526Y137715D01*
X59475Y137593D01*
X59418Y137473D01*
X59413Y137446D01*
X59403Y137421D01*
X59383Y137290D01*
X59359Y137160D01*
X59360Y137134D01*
X59356Y137107D01*
X59370Y136975D01*
X59378Y136843D01*
X59387Y136817D01*
X59389Y136791D01*
X59436Y136666D01*
X59476Y136541D01*
X59491Y136518D01*
X59500Y136492D01*
X59576Y136384D01*
X59647Y136272D01*
X59666Y136253D01*
X59682Y136231D01*
X59782Y136145D01*
X59878Y136054D01*
X59902Y136041D01*
X59922Y136023D01*
X60041Y135964D01*
X60157Y135900D01*
X60183Y135894D01*
X60207Y135882D01*
X60337Y135854D01*
X60465Y135821D01*
X60503Y135819D01*
X60518Y135815D01*
X60540Y135816D01*
X60625Y135811D01*
X74053Y135811D01*
X74127Y135754D01*
X74216Y135675D01*
X74252Y135657D01*
X74284Y135632D01*
X74393Y135584D01*
X74499Y135530D01*
X74538Y135521D01*
X74576Y135505D01*
X74693Y135487D01*
X74809Y135461D01*
X74850Y135462D01*
X74890Y135456D01*
X75008Y135467D01*
X75127Y135470D01*
X75166Y135482D01*
X75206Y135485D01*
X75319Y135526D01*
X75433Y135559D01*
X75468Y135579D01*
X75506Y135593D01*
X75604Y135660D01*
X75707Y135720D01*
X75752Y135760D01*
X75769Y135772D01*
X75782Y135787D01*
X75828Y135827D01*
X92235Y152235D01*
X92321Y152344D01*
X92409Y152451D01*
X92418Y152470D01*
X92430Y152486D01*
X92486Y152614D01*
X92545Y152739D01*
X92549Y152759D01*
X92557Y152778D01*
X92579Y152916D01*
X92605Y153052D01*
X92603Y153072D01*
X92606Y153092D01*
X92593Y153231D01*
X92585Y153369D01*
X92579Y153388D01*
X92577Y153408D01*
X92529Y153540D01*
X92487Y153671D01*
X92476Y153689D01*
X92469Y153708D01*
X92391Y153823D01*
X92317Y153940D01*
X92302Y153954D01*
X92290Y153971D01*
X92186Y154063D01*
X92085Y154158D01*
X92067Y154168D01*
X92052Y154181D01*
X91928Y154244D01*
X91806Y154312D01*
X91787Y154317D01*
X91769Y154326D01*
X91633Y154356D01*
X91499Y154391D01*
X91470Y154393D01*
X91459Y154396D01*
X91438Y154395D01*
X91338Y154401D01*
X91076Y154401D01*
X89741Y155736D01*
X89741Y167624D01*
X91400Y169283D01*
X91473Y169377D01*
X91552Y169466D01*
X91570Y169502D01*
X91595Y169534D01*
X91642Y169643D01*
X91696Y169749D01*
X91705Y169788D01*
X91721Y169826D01*
X91740Y169943D01*
X91766Y170059D01*
X91765Y170100D01*
X91771Y170140D01*
X91760Y170258D01*
X91756Y170377D01*
X91745Y170416D01*
X91741Y170456D01*
X91701Y170568D01*
X91668Y170683D01*
X91647Y170718D01*
X91634Y170756D01*
X91567Y170854D01*
X91506Y170957D01*
X91466Y171002D01*
X91455Y171019D01*
X91440Y171032D01*
X91400Y171078D01*
X89741Y172736D01*
X89741Y184624D01*
X91076Y185959D01*
X92456Y185959D01*
X92574Y185974D01*
X92693Y185981D01*
X92731Y185994D01*
X92772Y185999D01*
X92882Y186042D01*
X92995Y186079D01*
X93030Y186101D01*
X93067Y186116D01*
X93163Y186185D01*
X93264Y186249D01*
X93292Y186279D01*
X93325Y186302D01*
X93401Y186394D01*
X93482Y186481D01*
X93502Y186516D01*
X93527Y186547D01*
X93578Y186655D01*
X93636Y186759D01*
X93646Y186799D01*
X93663Y186835D01*
X93685Y186952D01*
X93715Y187067D01*
X93719Y187127D01*
X93723Y187147D01*
X93721Y187168D01*
X93725Y187228D01*
X93725Y192928D01*
X100442Y199645D01*
X116728Y199645D01*
X118736Y197636D01*
X118990Y197382D01*
X119100Y197297D01*
X119207Y197208D01*
X119226Y197199D01*
X119242Y197187D01*
X119369Y197132D01*
X119495Y197072D01*
X119515Y197069D01*
X119534Y197061D01*
X119671Y197039D01*
X119808Y197013D01*
X119828Y197014D01*
X119848Y197011D01*
X119986Y197024D01*
X120125Y197032D01*
X120144Y197039D01*
X120164Y197040D01*
X120295Y197088D01*
X120427Y197130D01*
X120445Y197141D01*
X120464Y197148D01*
X120579Y197226D01*
X120696Y197301D01*
X120710Y197315D01*
X120727Y197327D01*
X120819Y197431D01*
X120914Y197532D01*
X120924Y197550D01*
X120937Y197565D01*
X121000Y197689D01*
X121068Y197811D01*
X121073Y197830D01*
X121082Y197848D01*
X121112Y197984D01*
X121147Y198119D01*
X121149Y198147D01*
X121152Y198159D01*
X121151Y198179D01*
X121157Y198279D01*
X121157Y198962D01*
X122348Y200153D01*
X124007Y200153D01*
X124145Y200170D01*
X124283Y200183D01*
X124302Y200190D01*
X124322Y200193D01*
X124451Y200244D01*
X124582Y200291D01*
X124599Y200302D01*
X124618Y200310D01*
X124730Y200391D01*
X124845Y200469D01*
X124859Y200485D01*
X124875Y200496D01*
X124964Y200604D01*
X125056Y200708D01*
X125065Y200726D01*
X125078Y200741D01*
X125137Y200867D01*
X125200Y200991D01*
X125205Y201011D01*
X125214Y201029D01*
X125240Y201166D01*
X125270Y201301D01*
X125269Y201322D01*
X125273Y201341D01*
X125265Y201480D01*
X125260Y201619D01*
X125255Y201639D01*
X125254Y201659D01*
X125211Y201791D01*
X125172Y201925D01*
X125162Y201942D01*
X125156Y201961D01*
X125081Y202079D01*
X125010Y202199D01*
X124992Y202220D01*
X124985Y202230D01*
X124970Y202244D01*
X124904Y202319D01*
X123380Y203844D01*
X123302Y203904D01*
X123230Y203972D01*
X123177Y204001D01*
X123129Y204038D01*
X123038Y204078D01*
X122951Y204126D01*
X122893Y204141D01*
X122837Y204165D01*
X122739Y204180D01*
X122643Y204205D01*
X122543Y204211D01*
X122523Y204215D01*
X122511Y204213D01*
X122483Y204215D01*
X122032Y204215D01*
X95259Y230988D01*
X95236Y231007D01*
X95217Y231029D01*
X95111Y231104D01*
X95008Y231183D01*
X94981Y231195D01*
X94957Y231212D01*
X94835Y231258D01*
X94716Y231310D01*
X94687Y231314D01*
X94659Y231325D01*
X94530Y231339D01*
X94402Y231360D01*
X94373Y231357D01*
X94343Y231360D01*
X94215Y231342D01*
X94085Y231330D01*
X94058Y231320D01*
X94028Y231316D01*
X93876Y231264D01*
X91123Y230123D01*
X86677Y230123D01*
X82569Y231825D01*
X79425Y234969D01*
X77723Y239077D01*
X77723Y243523D01*
X79425Y247631D01*
X80832Y249039D01*
X80918Y249148D01*
X81006Y249255D01*
X81015Y249274D01*
X81027Y249290D01*
X81083Y249418D01*
X81142Y249543D01*
X81145Y249563D01*
X81154Y249582D01*
X81175Y249720D01*
X81201Y249856D01*
X81200Y249876D01*
X81203Y249896D01*
X81190Y250035D01*
X81182Y250173D01*
X81175Y250192D01*
X81174Y250212D01*
X81126Y250344D01*
X81084Y250475D01*
X81073Y250493D01*
X81066Y250512D01*
X80988Y250627D01*
X80914Y250744D01*
X80899Y250758D01*
X80887Y250775D01*
X80783Y250867D01*
X80682Y250962D01*
X80664Y250972D01*
X80649Y250985D01*
X80525Y251049D01*
X80403Y251116D01*
X80384Y251121D01*
X80366Y251130D01*
X80230Y251160D01*
X80095Y251195D01*
X80067Y251197D01*
X80055Y251200D01*
X80035Y251199D01*
X79935Y251205D01*
X32875Y251205D01*
X32779Y251193D01*
X32681Y251190D01*
X32621Y251173D01*
X32560Y251165D01*
X32469Y251130D01*
X32376Y251103D01*
X32322Y251071D01*
X32264Y251048D01*
X32185Y250991D01*
X32101Y250942D01*
X32057Y250898D01*
X32007Y250862D01*
X31945Y250787D01*
X31875Y250718D01*
X31843Y250664D01*
X31804Y250617D01*
X31762Y250529D01*
X31712Y250445D01*
X31695Y250385D01*
X31668Y250329D01*
X31650Y250233D01*
X31622Y250140D01*
X31620Y250078D01*
X31608Y250017D01*
X31615Y249919D01*
X31611Y249822D01*
X31624Y249761D01*
X31628Y249699D01*
X31658Y249607D01*
X31679Y249511D01*
X31707Y249456D01*
X31726Y249397D01*
X31778Y249314D01*
X31822Y249227D01*
X31863Y249181D01*
X31896Y249128D01*
X31967Y249061D01*
X32031Y248988D01*
X32083Y248953D01*
X32128Y248910D01*
X32213Y248863D01*
X32294Y248808D01*
X32389Y248766D01*
X32407Y248756D01*
X32417Y248754D01*
X32441Y248743D01*
X36233Y247363D01*
X41997Y242527D01*
X45759Y236010D01*
X47066Y228600D01*
X45759Y221190D01*
X41997Y214674D01*
X36233Y209837D01*
X29162Y207263D01*
X21638Y207263D01*
X14567Y209837D01*
X8803Y214673D01*
X5163Y220978D01*
X5075Y221094D01*
X4990Y221212D01*
X4979Y221220D01*
X4971Y221231D01*
X4857Y221321D01*
X4745Y221415D01*
X4732Y221420D01*
X4722Y221429D01*
X4588Y221488D01*
X4457Y221550D01*
X4444Y221553D01*
X4431Y221558D01*
X4287Y221583D01*
X4144Y221610D01*
X4131Y221609D01*
X4118Y221611D01*
X3972Y221599D01*
X3827Y221590D01*
X3814Y221586D01*
X3801Y221585D01*
X3663Y221537D01*
X3525Y221492D01*
X3513Y221485D01*
X3500Y221480D01*
X3379Y221400D01*
X3256Y221322D01*
X3247Y221312D01*
X3235Y221305D01*
X3138Y221196D01*
X3038Y221090D01*
X3031Y221078D01*
X3022Y221068D01*
X2955Y220940D01*
X2884Y220812D01*
X2881Y220799D01*
X2875Y220787D01*
X2841Y220645D01*
X2805Y220504D01*
X2804Y220485D01*
X2802Y220477D01*
X2802Y220460D01*
X2795Y220343D01*
X2795Y164048D01*
X2810Y163930D01*
X2817Y163811D01*
X2830Y163773D01*
X2835Y163732D01*
X2878Y163622D01*
X2915Y163509D01*
X2937Y163474D01*
X2952Y163437D01*
X3021Y163341D01*
X3085Y163240D01*
X3115Y163212D01*
X3138Y163179D01*
X3230Y163103D01*
X3317Y163022D01*
X3352Y163002D01*
X3383Y162977D01*
X3491Y162926D01*
X3595Y162868D01*
X3635Y162858D01*
X3671Y162841D01*
X3788Y162819D01*
X3903Y162789D01*
X3963Y162785D01*
X3983Y162781D01*
X4004Y162783D01*
X4064Y162779D01*
X24506Y162779D01*
X25829Y161456D01*
X25829Y148544D01*
X24506Y147221D01*
X4064Y147221D01*
X3946Y147206D01*
X3827Y147199D01*
X3789Y147186D01*
X3748Y147181D01*
X3638Y147138D01*
X3525Y147101D01*
X3490Y147079D01*
X3453Y147064D01*
X3357Y146995D01*
X3256Y146931D01*
X3228Y146901D01*
X3195Y146878D01*
X3119Y146786D01*
X3038Y146699D01*
X3018Y146664D01*
X2993Y146633D01*
X2942Y146525D01*
X2884Y146421D01*
X2874Y146381D01*
X2857Y146345D01*
X2835Y146228D01*
X2805Y146113D01*
X2801Y146053D01*
X2797Y146033D01*
X2799Y146012D01*
X2795Y145952D01*
X2795Y108048D01*
X2810Y107930D01*
X2817Y107811D01*
X2830Y107773D01*
X2835Y107732D01*
X2878Y107622D01*
X2915Y107509D01*
X2937Y107474D01*
X2952Y107437D01*
X3021Y107341D01*
X3085Y107240D01*
X3115Y107212D01*
X3138Y107179D01*
X3230Y107103D01*
X3317Y107022D01*
X3352Y107002D01*
X3383Y106977D01*
X3491Y106926D01*
X3595Y106868D01*
X3635Y106858D01*
X3671Y106841D01*
X3788Y106819D01*
X3903Y106789D01*
X3963Y106785D01*
X3983Y106781D01*
X4004Y106783D01*
X4064Y106779D01*
X24506Y106779D01*
X25829Y105456D01*
X25829Y92544D01*
X24506Y91221D01*
X4064Y91221D01*
X3946Y91206D01*
X3827Y91199D01*
X3789Y91186D01*
X3748Y91181D01*
X3638Y91138D01*
X3525Y91101D01*
X3490Y91079D01*
X3453Y91064D01*
X3357Y90995D01*
X3256Y90931D01*
X3228Y90901D01*
X3195Y90878D01*
X3119Y90786D01*
X3038Y90699D01*
X3018Y90664D01*
X2993Y90633D01*
X2942Y90525D01*
X2884Y90421D01*
X2874Y90381D01*
X2857Y90345D01*
X2835Y90228D01*
X2805Y90113D01*
X2801Y90053D01*
X2797Y90033D01*
X2799Y90012D01*
X2795Y89952D01*
X2795Y33657D01*
X2813Y33513D01*
X2828Y33367D01*
X2833Y33355D01*
X2835Y33341D01*
X2888Y33206D01*
X2939Y33069D01*
X2947Y33058D01*
X2952Y33046D01*
X3037Y32928D01*
X3120Y32808D01*
X3130Y32799D01*
X3138Y32788D01*
X3251Y32695D01*
X3361Y32600D01*
X3373Y32594D01*
X3383Y32585D01*
X3515Y32524D01*
X3646Y32459D01*
X3659Y32456D01*
X3671Y32450D01*
X3813Y32423D01*
X3957Y32392D01*
X3970Y32393D01*
X3983Y32390D01*
X4128Y32399D01*
X4274Y32405D01*
X4287Y32409D01*
X4301Y32410D01*
X4439Y32455D01*
X4579Y32497D01*
X4591Y32504D01*
X4603Y32508D01*
X4727Y32586D01*
X4851Y32661D01*
X4861Y32671D01*
X4872Y32678D01*
X4972Y32784D01*
X5074Y32888D01*
X5084Y32904D01*
X5090Y32910D01*
X5098Y32925D01*
X5163Y33022D01*
X8803Y39327D01*
X14567Y44163D01*
X21638Y46737D01*
X29162Y46737D01*
X36233Y44163D01*
X41997Y39327D01*
X45759Y32810D01*
X47066Y25400D01*
X45759Y17990D01*
X41997Y11474D01*
X36233Y6637D01*
X32441Y5257D01*
X32354Y5212D01*
X32264Y5176D01*
X32214Y5140D01*
X32158Y5111D01*
X32085Y5047D01*
X32007Y4990D01*
X31967Y4942D01*
X31920Y4900D01*
X31866Y4820D01*
X31804Y4745D01*
X31777Y4688D01*
X31742Y4637D01*
X31710Y4545D01*
X31668Y4457D01*
X31657Y4396D01*
X31636Y4337D01*
X31627Y4240D01*
X31608Y4144D01*
X31612Y4082D01*
X31607Y4020D01*
X31622Y3924D01*
X31628Y3827D01*
X31647Y3768D01*
X31657Y3706D01*
X31696Y3617D01*
X31726Y3525D01*
X31760Y3472D01*
X31784Y3415D01*
X31844Y3338D01*
X31896Y3256D01*
X31942Y3213D01*
X31980Y3164D01*
X32057Y3105D01*
X32128Y3038D01*
X32183Y3008D01*
X32232Y2970D01*
X32321Y2931D01*
X32407Y2884D01*
X32467Y2869D01*
X32524Y2844D01*
X32620Y2829D01*
X32714Y2805D01*
X32819Y2798D01*
X32838Y2795D01*
X32850Y2796D01*
X32875Y2795D01*
X53457Y2795D01*
X53596Y2812D01*
G37*
G36*
X181673Y2812D02*
X181673Y2812D01*
X181811Y2825D01*
X181830Y2832D01*
X181850Y2835D01*
X181980Y2886D01*
X182110Y2933D01*
X182127Y2944D01*
X182146Y2952D01*
X182258Y3033D01*
X182374Y3111D01*
X182387Y3127D01*
X182403Y3138D01*
X182492Y3246D01*
X182584Y3350D01*
X182593Y3368D01*
X182606Y3383D01*
X182665Y3509D01*
X182729Y3633D01*
X182733Y3653D01*
X182742Y3671D01*
X182768Y3808D01*
X182798Y3943D01*
X182798Y3964D01*
X182801Y3983D01*
X182793Y4122D01*
X182789Y4261D01*
X182783Y4281D01*
X182782Y4301D01*
X182739Y4433D01*
X182700Y4567D01*
X182690Y4584D01*
X182684Y4603D01*
X182609Y4721D01*
X182539Y4841D01*
X182520Y4862D01*
X182514Y4872D01*
X182499Y4886D01*
X182432Y4961D01*
X181025Y6369D01*
X179323Y10477D01*
X179323Y14923D01*
X181025Y19031D01*
X182254Y20260D01*
X182314Y20338D01*
X182382Y20410D01*
X182411Y20463D01*
X182448Y20511D01*
X182488Y20602D01*
X182536Y20689D01*
X182551Y20747D01*
X182575Y20803D01*
X182590Y20901D01*
X182615Y20997D01*
X182621Y21097D01*
X182625Y21117D01*
X182623Y21129D01*
X182625Y21157D01*
X182625Y46602D01*
X182613Y46700D01*
X182610Y46799D01*
X182593Y46858D01*
X182585Y46918D01*
X182549Y47010D01*
X182521Y47105D01*
X182491Y47157D01*
X182468Y47213D01*
X182410Y47293D01*
X182360Y47379D01*
X182294Y47454D01*
X182282Y47471D01*
X182272Y47479D01*
X182254Y47500D01*
X180847Y48906D01*
X180847Y52694D01*
X183526Y55373D01*
X187314Y55373D01*
X189993Y52694D01*
X189993Y48906D01*
X188586Y47500D01*
X188526Y47421D01*
X188458Y47349D01*
X188429Y47296D01*
X188392Y47248D01*
X188352Y47157D01*
X188304Y47071D01*
X188289Y47012D01*
X188265Y46957D01*
X188250Y46859D01*
X188225Y46763D01*
X188219Y46663D01*
X188215Y46642D01*
X188217Y46630D01*
X188215Y46602D01*
X188215Y25146D01*
X188230Y25028D01*
X188237Y24909D01*
X188250Y24871D01*
X188255Y24830D01*
X188298Y24720D01*
X188335Y24607D01*
X188357Y24572D01*
X188372Y24535D01*
X188441Y24439D01*
X188505Y24338D01*
X188535Y24310D01*
X188558Y24277D01*
X188650Y24201D01*
X188737Y24120D01*
X188772Y24100D01*
X188803Y24075D01*
X188911Y24024D01*
X189015Y23966D01*
X189055Y23956D01*
X189091Y23939D01*
X189208Y23917D01*
X189323Y23887D01*
X189383Y23883D01*
X189403Y23879D01*
X189424Y23881D01*
X189484Y23877D01*
X192723Y23877D01*
X196831Y22175D01*
X199975Y19031D01*
X201677Y14923D01*
X201677Y10477D01*
X199975Y6369D01*
X198568Y4961D01*
X198482Y4852D01*
X198394Y4745D01*
X198385Y4726D01*
X198373Y4710D01*
X198317Y4582D01*
X198258Y4457D01*
X198255Y4437D01*
X198246Y4418D01*
X198225Y4280D01*
X198199Y4144D01*
X198200Y4124D01*
X198197Y4104D01*
X198210Y3965D01*
X198218Y3827D01*
X198225Y3808D01*
X198226Y3788D01*
X198274Y3656D01*
X198316Y3525D01*
X198327Y3507D01*
X198334Y3488D01*
X198412Y3373D01*
X198486Y3256D01*
X198501Y3242D01*
X198513Y3225D01*
X198617Y3133D01*
X198718Y3038D01*
X198736Y3028D01*
X198751Y3015D01*
X198875Y2951D01*
X198997Y2884D01*
X199016Y2879D01*
X199034Y2870D01*
X199170Y2840D01*
X199305Y2805D01*
X199333Y2803D01*
X199345Y2800D01*
X199365Y2801D01*
X199465Y2795D01*
X221125Y2795D01*
X221221Y2807D01*
X221319Y2810D01*
X221379Y2827D01*
X221440Y2835D01*
X221531Y2870D01*
X221624Y2897D01*
X221678Y2929D01*
X221736Y2952D01*
X221815Y3009D01*
X221899Y3058D01*
X221943Y3102D01*
X221993Y3138D01*
X222055Y3213D01*
X222125Y3282D01*
X222157Y3336D01*
X222196Y3383D01*
X222238Y3471D01*
X222288Y3555D01*
X222305Y3615D01*
X222332Y3671D01*
X222350Y3767D01*
X222378Y3860D01*
X222380Y3922D01*
X222392Y3983D01*
X222385Y4081D01*
X222389Y4178D01*
X222376Y4239D01*
X222372Y4301D01*
X222342Y4393D01*
X222321Y4489D01*
X222293Y4544D01*
X222274Y4603D01*
X222222Y4686D01*
X222178Y4773D01*
X222137Y4819D01*
X222104Y4872D01*
X222033Y4939D01*
X221969Y5012D01*
X221917Y5047D01*
X221872Y5090D01*
X221787Y5137D01*
X221706Y5192D01*
X221611Y5234D01*
X221593Y5244D01*
X221583Y5246D01*
X221559Y5257D01*
X217767Y6637D01*
X212003Y11473D01*
X208241Y17990D01*
X206934Y25400D01*
X208241Y32810D01*
X212003Y39326D01*
X217767Y44163D01*
X224838Y46737D01*
X232362Y46737D01*
X239433Y44163D01*
X245197Y39327D01*
X248837Y33022D01*
X248925Y32906D01*
X249010Y32788D01*
X249021Y32780D01*
X249029Y32769D01*
X249143Y32679D01*
X249255Y32585D01*
X249268Y32580D01*
X249278Y32571D01*
X249412Y32512D01*
X249543Y32450D01*
X249556Y32447D01*
X249569Y32442D01*
X249713Y32417D01*
X249856Y32390D01*
X249869Y32391D01*
X249882Y32389D01*
X250028Y32401D01*
X250173Y32410D01*
X250186Y32414D01*
X250199Y32415D01*
X250337Y32463D01*
X250475Y32508D01*
X250487Y32515D01*
X250500Y32520D01*
X250621Y32600D01*
X250744Y32678D01*
X250753Y32688D01*
X250765Y32695D01*
X250862Y32804D01*
X250962Y32910D01*
X250969Y32922D01*
X250978Y32932D01*
X251045Y33060D01*
X251116Y33188D01*
X251119Y33201D01*
X251125Y33213D01*
X251159Y33355D01*
X251195Y33496D01*
X251196Y33515D01*
X251198Y33523D01*
X251198Y33540D01*
X251205Y33657D01*
X251205Y89952D01*
X251190Y90070D01*
X251183Y90189D01*
X251170Y90227D01*
X251165Y90268D01*
X251122Y90378D01*
X251085Y90491D01*
X251063Y90526D01*
X251048Y90563D01*
X250979Y90659D01*
X250915Y90760D01*
X250885Y90788D01*
X250862Y90821D01*
X250770Y90897D01*
X250683Y90978D01*
X250648Y90998D01*
X250617Y91023D01*
X250509Y91074D01*
X250405Y91132D01*
X250365Y91142D01*
X250329Y91159D01*
X250212Y91181D01*
X250097Y91211D01*
X250037Y91215D01*
X250017Y91219D01*
X249996Y91217D01*
X249936Y91221D01*
X229240Y91221D01*
X227917Y92544D01*
X227917Y105456D01*
X229240Y106779D01*
X249936Y106779D01*
X250054Y106794D01*
X250173Y106801D01*
X250211Y106814D01*
X250252Y106819D01*
X250362Y106862D01*
X250475Y106899D01*
X250510Y106921D01*
X250547Y106936D01*
X250643Y107005D01*
X250744Y107069D01*
X250772Y107099D01*
X250805Y107122D01*
X250881Y107214D01*
X250962Y107301D01*
X250982Y107336D01*
X251007Y107367D01*
X251058Y107475D01*
X251116Y107579D01*
X251126Y107619D01*
X251143Y107655D01*
X251165Y107772D01*
X251195Y107887D01*
X251199Y107947D01*
X251203Y107967D01*
X251201Y107988D01*
X251205Y108048D01*
X251205Y145952D01*
X251190Y146070D01*
X251183Y146189D01*
X251170Y146227D01*
X251165Y146268D01*
X251122Y146378D01*
X251085Y146491D01*
X251063Y146526D01*
X251048Y146563D01*
X250979Y146659D01*
X250915Y146760D01*
X250885Y146788D01*
X250862Y146821D01*
X250770Y146897D01*
X250683Y146978D01*
X250648Y146998D01*
X250617Y147023D01*
X250509Y147074D01*
X250405Y147132D01*
X250365Y147142D01*
X250329Y147159D01*
X250212Y147181D01*
X250097Y147211D01*
X250037Y147215D01*
X250017Y147219D01*
X249996Y147217D01*
X249936Y147221D01*
X230802Y147221D01*
X230664Y147204D01*
X230526Y147191D01*
X230507Y147184D01*
X230487Y147181D01*
X230357Y147130D01*
X230226Y147083D01*
X230210Y147072D01*
X230191Y147064D01*
X230078Y146983D01*
X229963Y146905D01*
X229950Y146889D01*
X229934Y146878D01*
X229845Y146770D01*
X229753Y146666D01*
X229744Y146648D01*
X229731Y146633D01*
X229672Y146507D01*
X229608Y146383D01*
X229604Y146363D01*
X229595Y146345D01*
X229569Y146209D01*
X229539Y146073D01*
X229539Y146052D01*
X229535Y146033D01*
X229544Y145894D01*
X229548Y145755D01*
X229554Y145735D01*
X229555Y145715D01*
X229598Y145583D01*
X229637Y145449D01*
X229647Y145432D01*
X229653Y145413D01*
X229728Y145295D01*
X229798Y145175D01*
X229817Y145154D01*
X229823Y145144D01*
X229838Y145130D01*
X229871Y145093D01*
X229871Y126692D01*
X223892Y120713D01*
X223832Y120635D01*
X223764Y120563D01*
X223735Y120510D01*
X223698Y120462D01*
X223658Y120371D01*
X223610Y120284D01*
X223595Y120226D01*
X223571Y120170D01*
X223556Y120072D01*
X223531Y119976D01*
X223525Y119876D01*
X223521Y119856D01*
X223523Y119844D01*
X223521Y119816D01*
X223521Y98888D01*
X217064Y92431D01*
X217004Y92353D01*
X216936Y92281D01*
X216907Y92228D01*
X216870Y92180D01*
X216830Y92089D01*
X216782Y92002D01*
X216767Y91944D01*
X216743Y91888D01*
X216728Y91790D01*
X216703Y91694D01*
X216697Y91594D01*
X216693Y91574D01*
X216695Y91562D01*
X216693Y91534D01*
X216693Y84726D01*
X214999Y83032D01*
X214921Y82932D01*
X214839Y82837D01*
X214824Y82807D01*
X214804Y82781D01*
X214754Y82665D01*
X214698Y82553D01*
X214691Y82520D01*
X214677Y82489D01*
X214658Y82365D01*
X214631Y82242D01*
X214633Y82208D01*
X214627Y82175D01*
X214639Y82050D01*
X214644Y81924D01*
X214654Y81892D01*
X214657Y81858D01*
X214700Y81740D01*
X214736Y81619D01*
X214753Y81591D01*
X214765Y81559D01*
X214836Y81455D01*
X214900Y81347D01*
X214924Y81324D01*
X214943Y81296D01*
X215038Y81212D01*
X215127Y81124D01*
X215168Y81097D01*
X215182Y81085D01*
X215201Y81075D01*
X215261Y81035D01*
X216027Y80593D01*
X216593Y80027D01*
X216994Y79334D01*
X217201Y78560D01*
X217201Y76159D01*
X210390Y76159D01*
X210272Y76144D01*
X210153Y76137D01*
X210115Y76124D01*
X210075Y76119D01*
X209964Y76076D01*
X209851Y76039D01*
X209817Y76017D01*
X209779Y76002D01*
X209683Y75933D01*
X209582Y75869D01*
X209554Y75839D01*
X209522Y75816D01*
X209446Y75724D01*
X209364Y75637D01*
X209345Y75602D01*
X209319Y75571D01*
X209268Y75463D01*
X209211Y75359D01*
X209201Y75319D01*
X209183Y75283D01*
X209161Y75166D01*
X209131Y75051D01*
X209127Y74991D01*
X209124Y74971D01*
X209125Y74950D01*
X209121Y74890D01*
X209121Y73699D01*
X207930Y73699D01*
X207812Y73684D01*
X207693Y73677D01*
X207655Y73664D01*
X207614Y73659D01*
X207504Y73615D01*
X207391Y73579D01*
X207356Y73557D01*
X207319Y73542D01*
X207222Y73472D01*
X207122Y73409D01*
X207094Y73379D01*
X207061Y73355D01*
X206985Y73264D01*
X206904Y73177D01*
X206884Y73142D01*
X206859Y73110D01*
X206808Y73003D01*
X206750Y72898D01*
X206740Y72859D01*
X206723Y72823D01*
X206701Y72706D01*
X206671Y72590D01*
X206667Y72530D01*
X206663Y72510D01*
X206665Y72490D01*
X206661Y72430D01*
X206661Y66119D01*
X203760Y66119D01*
X202986Y66326D01*
X202293Y66727D01*
X201727Y67293D01*
X201378Y67896D01*
X201302Y67997D01*
X201232Y68100D01*
X201207Y68123D01*
X201186Y68150D01*
X201088Y68228D01*
X200993Y68311D01*
X200963Y68326D01*
X200937Y68347D01*
X200822Y68398D01*
X200710Y68456D01*
X200677Y68463D01*
X200647Y68477D01*
X200522Y68498D01*
X200400Y68525D01*
X200366Y68524D01*
X200333Y68530D01*
X200208Y68519D01*
X200082Y68516D01*
X200050Y68506D01*
X200016Y68503D01*
X199897Y68462D01*
X199777Y68427D01*
X199747Y68410D01*
X199716Y68399D01*
X199611Y68329D01*
X199503Y68266D01*
X199466Y68233D01*
X199451Y68223D01*
X199436Y68207D01*
X199382Y68159D01*
X198104Y66881D01*
X197104Y66881D01*
X196986Y66866D01*
X196867Y66859D01*
X196829Y66846D01*
X196788Y66841D01*
X196678Y66798D01*
X196565Y66761D01*
X196530Y66739D01*
X196493Y66724D01*
X196397Y66655D01*
X196296Y66591D01*
X196268Y66561D01*
X196235Y66538D01*
X196159Y66446D01*
X196078Y66359D01*
X196058Y66324D01*
X196033Y66293D01*
X195982Y66185D01*
X195924Y66081D01*
X195914Y66041D01*
X195897Y66005D01*
X195875Y65888D01*
X195845Y65773D01*
X195841Y65713D01*
X195837Y65693D01*
X195839Y65672D01*
X195835Y65612D01*
X195835Y65158D01*
X195847Y65060D01*
X195850Y64961D01*
X195867Y64902D01*
X195875Y64842D01*
X195911Y64750D01*
X195939Y64655D01*
X195969Y64603D01*
X195992Y64547D01*
X196050Y64467D01*
X196100Y64381D01*
X196166Y64306D01*
X196178Y64289D01*
X196188Y64281D01*
X196206Y64260D01*
X197613Y62854D01*
X197613Y59066D01*
X194934Y56387D01*
X191146Y56387D01*
X188467Y59066D01*
X188467Y62854D01*
X189874Y64260D01*
X189934Y64339D01*
X190002Y64411D01*
X190031Y64464D01*
X190068Y64512D01*
X190108Y64603D01*
X190156Y64689D01*
X190171Y64748D01*
X190195Y64803D01*
X190210Y64901D01*
X190235Y64997D01*
X190241Y65097D01*
X190245Y65118D01*
X190243Y65130D01*
X190245Y65158D01*
X190245Y65612D01*
X190230Y65730D01*
X190223Y65849D01*
X190210Y65887D01*
X190205Y65928D01*
X190162Y66038D01*
X190125Y66151D01*
X190103Y66186D01*
X190088Y66223D01*
X190019Y66319D01*
X189955Y66420D01*
X189925Y66448D01*
X189902Y66481D01*
X189810Y66557D01*
X189723Y66638D01*
X189688Y66658D01*
X189657Y66683D01*
X189549Y66734D01*
X189445Y66792D01*
X189405Y66802D01*
X189369Y66819D01*
X189252Y66841D01*
X189137Y66871D01*
X189077Y66875D01*
X189057Y66879D01*
X189036Y66877D01*
X188976Y66881D01*
X186216Y66881D01*
X184881Y68216D01*
X184881Y71879D01*
X184864Y72017D01*
X184851Y72155D01*
X184844Y72175D01*
X184841Y72195D01*
X184790Y72324D01*
X184743Y72455D01*
X184732Y72472D01*
X184724Y72490D01*
X184643Y72602D01*
X184565Y72718D01*
X184549Y72731D01*
X184538Y72748D01*
X184430Y72836D01*
X184326Y72928D01*
X184308Y72938D01*
X184293Y72950D01*
X184167Y73010D01*
X184043Y73073D01*
X184023Y73077D01*
X184005Y73086D01*
X183869Y73112D01*
X183733Y73143D01*
X183712Y73142D01*
X183693Y73146D01*
X183554Y73137D01*
X183415Y73133D01*
X183395Y73127D01*
X183375Y73126D01*
X183243Y73083D01*
X183109Y73045D01*
X183092Y73034D01*
X183073Y73028D01*
X182955Y72953D01*
X182835Y72883D01*
X182814Y72864D01*
X182804Y72858D01*
X182790Y72843D01*
X182715Y72777D01*
X174382Y64444D01*
X172373Y62435D01*
X170616Y62435D01*
X170478Y62418D01*
X170339Y62405D01*
X170320Y62398D01*
X170300Y62395D01*
X170171Y62344D01*
X170040Y62297D01*
X170023Y62286D01*
X170005Y62278D01*
X169892Y62197D01*
X169777Y62119D01*
X169764Y62103D01*
X169747Y62092D01*
X169658Y61984D01*
X169567Y61880D01*
X169557Y61862D01*
X169544Y61847D01*
X169485Y61721D01*
X169422Y61597D01*
X169417Y61577D01*
X169409Y61559D01*
X169383Y61422D01*
X169352Y61287D01*
X169353Y61266D01*
X169349Y61247D01*
X169358Y61108D01*
X169362Y60969D01*
X169368Y60949D01*
X169369Y60929D01*
X169412Y60797D01*
X169450Y60663D01*
X169461Y60646D01*
X169467Y60627D01*
X169541Y60509D01*
X169612Y60389D01*
X169630Y60368D01*
X169637Y60358D01*
X169652Y60344D01*
X169718Y60269D01*
X172213Y57774D01*
X172213Y53986D01*
X169534Y51307D01*
X165746Y51307D01*
X163950Y53104D01*
X163871Y53164D01*
X163799Y53232D01*
X163746Y53261D01*
X163698Y53298D01*
X163607Y53338D01*
X163521Y53386D01*
X163462Y53401D01*
X163407Y53425D01*
X163309Y53440D01*
X163213Y53465D01*
X163113Y53471D01*
X163092Y53475D01*
X163080Y53473D01*
X163052Y53475D01*
X160511Y53475D01*
X160393Y53460D01*
X160275Y53453D01*
X160236Y53440D01*
X160196Y53435D01*
X160085Y53392D01*
X159972Y53355D01*
X159938Y53333D01*
X159900Y53318D01*
X159804Y53249D01*
X159703Y53185D01*
X159676Y53155D01*
X159643Y53132D01*
X159567Y53040D01*
X159485Y52953D01*
X159466Y52918D01*
X159440Y52887D01*
X159389Y52779D01*
X159332Y52675D01*
X159322Y52635D01*
X159305Y52599D01*
X159282Y52482D01*
X159252Y52367D01*
X159249Y52307D01*
X159245Y52287D01*
X159246Y52266D01*
X159242Y52206D01*
X159242Y50326D01*
X157907Y48991D01*
X147020Y48991D01*
X145685Y50326D01*
X145685Y61166D01*
X145670Y61284D01*
X145662Y61403D01*
X145650Y61441D01*
X145645Y61482D01*
X145601Y61592D01*
X145564Y61705D01*
X145543Y61740D01*
X145528Y61777D01*
X145458Y61873D01*
X145394Y61974D01*
X145365Y62002D01*
X145341Y62035D01*
X145249Y62111D01*
X145163Y62192D01*
X145127Y62212D01*
X145096Y62237D01*
X144988Y62288D01*
X144884Y62346D01*
X144845Y62356D01*
X144808Y62373D01*
X144692Y62395D01*
X144576Y62425D01*
X144516Y62429D01*
X144496Y62433D01*
X144476Y62431D01*
X144416Y62435D01*
X135492Y62435D01*
X135374Y62420D01*
X135256Y62413D01*
X135217Y62400D01*
X135177Y62395D01*
X135066Y62352D01*
X134953Y62315D01*
X134919Y62293D01*
X134881Y62278D01*
X134785Y62209D01*
X134684Y62145D01*
X134657Y62115D01*
X134624Y62092D01*
X134548Y62000D01*
X134466Y61913D01*
X134447Y61878D01*
X134421Y61847D01*
X134370Y61739D01*
X134313Y61635D01*
X134303Y61595D01*
X134286Y61559D01*
X134263Y61442D01*
X134233Y61327D01*
X134230Y61267D01*
X134226Y61247D01*
X134227Y61226D01*
X134223Y61166D01*
X134223Y50326D01*
X133309Y49411D01*
X133224Y49302D01*
X133135Y49195D01*
X133126Y49176D01*
X133114Y49160D01*
X133058Y49032D01*
X132999Y48907D01*
X132995Y48887D01*
X132987Y48868D01*
X132965Y48730D01*
X132939Y48594D01*
X132941Y48574D01*
X132937Y48554D01*
X132951Y48415D01*
X132959Y48277D01*
X132965Y48258D01*
X132967Y48238D01*
X133014Y48106D01*
X133057Y47975D01*
X133068Y47957D01*
X133075Y47938D01*
X133153Y47823D01*
X133227Y47706D01*
X133242Y47692D01*
X133253Y47675D01*
X133358Y47583D01*
X133459Y47488D01*
X133477Y47478D01*
X133492Y47465D01*
X133616Y47401D01*
X133737Y47334D01*
X133757Y47329D01*
X133775Y47320D01*
X133911Y47290D01*
X134045Y47255D01*
X134073Y47253D01*
X134085Y47250D01*
X134106Y47251D01*
X134206Y47245D01*
X134508Y47245D01*
X136516Y45236D01*
X158741Y23012D01*
X158764Y22993D01*
X158783Y22971D01*
X158889Y22896D01*
X158992Y22817D01*
X159019Y22805D01*
X159043Y22788D01*
X159165Y22742D01*
X159284Y22690D01*
X159313Y22686D01*
X159341Y22675D01*
X159470Y22661D01*
X159598Y22640D01*
X159627Y22643D01*
X159657Y22640D01*
X159785Y22658D01*
X159915Y22670D01*
X159942Y22680D01*
X159972Y22684D01*
X160124Y22736D01*
X162877Y23877D01*
X167323Y23877D01*
X171431Y22175D01*
X174575Y19031D01*
X176277Y14923D01*
X176277Y10477D01*
X174575Y6369D01*
X173168Y4961D01*
X173082Y4852D01*
X172994Y4745D01*
X172985Y4726D01*
X172973Y4710D01*
X172917Y4582D01*
X172858Y4457D01*
X172855Y4437D01*
X172846Y4418D01*
X172825Y4280D01*
X172799Y4144D01*
X172800Y4124D01*
X172797Y4104D01*
X172810Y3965D01*
X172818Y3827D01*
X172825Y3808D01*
X172826Y3788D01*
X172874Y3656D01*
X172916Y3525D01*
X172927Y3507D01*
X172934Y3488D01*
X173012Y3373D01*
X173086Y3256D01*
X173101Y3242D01*
X173113Y3225D01*
X173217Y3133D01*
X173318Y3038D01*
X173336Y3028D01*
X173351Y3015D01*
X173475Y2951D01*
X173597Y2884D01*
X173616Y2879D01*
X173634Y2870D01*
X173770Y2840D01*
X173905Y2805D01*
X173933Y2803D01*
X173945Y2800D01*
X173965Y2801D01*
X174065Y2795D01*
X181535Y2795D01*
X181673Y2812D01*
G37*
G36*
X209869Y151402D02*
X209869Y151402D01*
X210008Y151415D01*
X210027Y151422D01*
X210047Y151425D01*
X210176Y151476D01*
X210307Y151523D01*
X210324Y151534D01*
X210343Y151542D01*
X210456Y151623D01*
X210571Y151701D01*
X210584Y151717D01*
X210600Y151728D01*
X210689Y151836D01*
X210781Y151940D01*
X210790Y151958D01*
X210803Y151973D01*
X210862Y152099D01*
X210926Y152223D01*
X210930Y152243D01*
X210939Y152261D01*
X210965Y152397D01*
X210995Y152533D01*
X210995Y152554D01*
X210999Y152573D01*
X210990Y152712D01*
X210986Y152851D01*
X210980Y152871D01*
X210979Y152891D01*
X210936Y153023D01*
X210897Y153157D01*
X210887Y153174D01*
X210881Y153193D01*
X210806Y153311D01*
X210736Y153431D01*
X210717Y153452D01*
X210711Y153462D01*
X210696Y153476D01*
X210629Y153551D01*
X208279Y155902D01*
X208279Y186100D01*
X211718Y189539D01*
X214322Y192143D01*
X220044Y192143D01*
X220162Y192158D01*
X220281Y192165D01*
X220319Y192178D01*
X220360Y192183D01*
X220470Y192226D01*
X220583Y192263D01*
X220618Y192285D01*
X220655Y192300D01*
X220751Y192369D01*
X220852Y192433D01*
X220880Y192463D01*
X220913Y192486D01*
X220989Y192578D01*
X221070Y192665D01*
X221090Y192700D01*
X221115Y192731D01*
X221166Y192839D01*
X221224Y192943D01*
X221234Y192983D01*
X221251Y193019D01*
X221273Y193136D01*
X221303Y193251D01*
X221307Y193311D01*
X221311Y193331D01*
X221309Y193352D01*
X221313Y193412D01*
X221313Y194276D01*
X222648Y195611D01*
X233536Y195611D01*
X234871Y194276D01*
X234871Y193572D01*
X234888Y193434D01*
X234901Y193295D01*
X234908Y193276D01*
X234911Y193256D01*
X234962Y193127D01*
X235009Y192996D01*
X235020Y192979D01*
X235028Y192961D01*
X235109Y192848D01*
X235187Y192733D01*
X235203Y192720D01*
X235214Y192703D01*
X235322Y192614D01*
X235426Y192523D01*
X235444Y192513D01*
X235459Y192500D01*
X235585Y192441D01*
X235709Y192378D01*
X235729Y192373D01*
X235747Y192365D01*
X235883Y192339D01*
X236019Y192308D01*
X236040Y192309D01*
X236059Y192305D01*
X236198Y192314D01*
X236337Y192318D01*
X236357Y192324D01*
X236377Y192325D01*
X236509Y192368D01*
X236643Y192406D01*
X236660Y192417D01*
X236679Y192423D01*
X236797Y192497D01*
X236917Y192568D01*
X236938Y192587D01*
X236948Y192593D01*
X236962Y192608D01*
X237037Y192674D01*
X238396Y194033D01*
X238469Y194127D01*
X238547Y194216D01*
X238566Y194252D01*
X238591Y194284D01*
X238638Y194393D01*
X238692Y194499D01*
X238701Y194538D01*
X238717Y194576D01*
X238736Y194693D01*
X238762Y194809D01*
X238760Y194850D01*
X238767Y194890D01*
X238756Y195008D01*
X238752Y195127D01*
X238741Y195166D01*
X238737Y195206D01*
X238697Y195318D01*
X238664Y195433D01*
X238643Y195468D01*
X238629Y195506D01*
X238563Y195604D01*
X238502Y195707D01*
X238462Y195752D01*
X238451Y195769D01*
X238435Y195782D01*
X238396Y195828D01*
X237997Y196226D01*
X237997Y200014D01*
X240676Y202693D01*
X244464Y202693D01*
X247143Y200014D01*
X247143Y196142D01*
X247158Y196024D01*
X247165Y195905D01*
X247178Y195867D01*
X247183Y195826D01*
X247226Y195716D01*
X247263Y195603D01*
X247285Y195568D01*
X247300Y195531D01*
X247369Y195435D01*
X247433Y195334D01*
X247463Y195306D01*
X247486Y195273D01*
X247578Y195197D01*
X247665Y195116D01*
X247700Y195096D01*
X247731Y195071D01*
X247839Y195020D01*
X247943Y194962D01*
X247983Y194952D01*
X248019Y194935D01*
X248136Y194913D01*
X248251Y194883D01*
X248311Y194879D01*
X248331Y194875D01*
X248352Y194877D01*
X248412Y194873D01*
X248952Y194873D01*
X249038Y194786D01*
X249130Y194715D01*
X249152Y194695D01*
X249164Y194688D01*
X249255Y194612D01*
X249274Y194604D01*
X249290Y194591D01*
X249418Y194536D01*
X249543Y194477D01*
X249563Y194473D01*
X249582Y194465D01*
X249720Y194443D01*
X249856Y194417D01*
X249876Y194418D01*
X249896Y194415D01*
X250035Y194428D01*
X250173Y194437D01*
X250192Y194443D01*
X250212Y194445D01*
X250344Y194492D01*
X250475Y194535D01*
X250492Y194546D01*
X250512Y194553D01*
X250627Y194631D01*
X250744Y194705D01*
X250758Y194720D01*
X250775Y194731D01*
X250867Y194835D01*
X250962Y194937D01*
X250972Y194954D01*
X250985Y194970D01*
X251049Y195094D01*
X251116Y195215D01*
X251121Y195235D01*
X251130Y195253D01*
X251160Y195389D01*
X251195Y195523D01*
X251197Y195551D01*
X251200Y195563D01*
X251199Y195584D01*
X251202Y195639D01*
X251203Y195640D01*
X251203Y195642D01*
X251205Y195684D01*
X251205Y220343D01*
X251187Y220487D01*
X251172Y220633D01*
X251167Y220645D01*
X251165Y220659D01*
X251112Y220794D01*
X251061Y220931D01*
X251053Y220942D01*
X251048Y220954D01*
X250963Y221072D01*
X250880Y221192D01*
X250869Y221201D01*
X250862Y221212D01*
X250750Y221304D01*
X250639Y221400D01*
X250627Y221406D01*
X250617Y221415D01*
X250485Y221476D01*
X250354Y221541D01*
X250341Y221544D01*
X250329Y221550D01*
X250187Y221577D01*
X250043Y221608D01*
X250030Y221607D01*
X250017Y221610D01*
X249872Y221601D01*
X249726Y221595D01*
X249713Y221591D01*
X249699Y221590D01*
X249561Y221545D01*
X249421Y221503D01*
X249409Y221496D01*
X249397Y221492D01*
X249274Y221414D01*
X249149Y221339D01*
X249139Y221329D01*
X249128Y221322D01*
X249028Y221216D01*
X248926Y221112D01*
X248916Y221096D01*
X248910Y221090D01*
X248902Y221075D01*
X248837Y220978D01*
X245197Y214673D01*
X239433Y209837D01*
X232362Y207263D01*
X224838Y207263D01*
X217767Y209837D01*
X212003Y214673D01*
X208241Y221190D01*
X206934Y228600D01*
X208241Y236010D01*
X212003Y242526D01*
X217767Y247363D01*
X221559Y248743D01*
X221646Y248788D01*
X221736Y248824D01*
X221786Y248860D01*
X221842Y248889D01*
X221915Y248953D01*
X221993Y249010D01*
X222033Y249058D01*
X222080Y249100D01*
X222134Y249180D01*
X222196Y249255D01*
X222223Y249312D01*
X222258Y249363D01*
X222290Y249455D01*
X222332Y249543D01*
X222343Y249604D01*
X222364Y249663D01*
X222373Y249760D01*
X222392Y249856D01*
X222388Y249918D01*
X222393Y249980D01*
X222378Y250076D01*
X222372Y250173D01*
X222353Y250232D01*
X222343Y250294D01*
X222304Y250383D01*
X222274Y250475D01*
X222240Y250528D01*
X222216Y250585D01*
X222156Y250662D01*
X222104Y250744D01*
X222058Y250787D01*
X222020Y250836D01*
X221943Y250895D01*
X221872Y250962D01*
X221817Y250992D01*
X221768Y251030D01*
X221679Y251069D01*
X221593Y251116D01*
X221533Y251131D01*
X221476Y251156D01*
X221380Y251171D01*
X221286Y251195D01*
X221181Y251202D01*
X221162Y251205D01*
X221150Y251204D01*
X221125Y251205D01*
X174065Y251205D01*
X173927Y251188D01*
X173789Y251175D01*
X173770Y251168D01*
X173750Y251165D01*
X173620Y251114D01*
X173490Y251067D01*
X173473Y251056D01*
X173454Y251048D01*
X173342Y250967D01*
X173226Y250889D01*
X173213Y250873D01*
X173197Y250862D01*
X173108Y250754D01*
X173016Y250650D01*
X173007Y250632D01*
X172994Y250617D01*
X172935Y250491D01*
X172871Y250367D01*
X172867Y250347D01*
X172858Y250329D01*
X172832Y250192D01*
X172802Y250057D01*
X172802Y250036D01*
X172799Y250017D01*
X172807Y249878D01*
X172811Y249739D01*
X172817Y249719D01*
X172818Y249699D01*
X172861Y249567D01*
X172900Y249433D01*
X172910Y249416D01*
X172916Y249397D01*
X172991Y249279D01*
X173061Y249159D01*
X173080Y249138D01*
X173086Y249128D01*
X173101Y249114D01*
X173168Y249039D01*
X174575Y247631D01*
X176277Y243523D01*
X176277Y239077D01*
X175136Y236324D01*
X175129Y236295D01*
X175115Y236269D01*
X175087Y236142D01*
X175053Y236017D01*
X175052Y235988D01*
X175046Y235959D01*
X175050Y235829D01*
X175047Y235699D01*
X175054Y235671D01*
X175055Y235641D01*
X175091Y235516D01*
X175122Y235390D01*
X175135Y235364D01*
X175144Y235336D01*
X175209Y235224D01*
X175270Y235109D01*
X175290Y235087D01*
X175305Y235062D01*
X175412Y234941D01*
X186945Y223408D01*
X186945Y152654D01*
X186960Y152536D01*
X186967Y152417D01*
X186980Y152379D01*
X186985Y152338D01*
X187028Y152228D01*
X187065Y152115D01*
X187087Y152080D01*
X187102Y152043D01*
X187171Y151947D01*
X187235Y151846D01*
X187265Y151818D01*
X187288Y151785D01*
X187380Y151709D01*
X187467Y151628D01*
X187502Y151608D01*
X187533Y151583D01*
X187641Y151532D01*
X187745Y151474D01*
X187785Y151464D01*
X187821Y151447D01*
X187938Y151425D01*
X188053Y151395D01*
X188113Y151391D01*
X188133Y151387D01*
X188154Y151389D01*
X188214Y151385D01*
X209732Y151385D01*
X209869Y151402D01*
G37*
G36*
X123205Y106431D02*
X123205Y106431D01*
X123221Y106429D01*
X123272Y106450D01*
X123325Y106466D01*
X123336Y106478D01*
X123350Y106484D01*
X123382Y106530D01*
X123419Y106571D01*
X123421Y106587D01*
X123430Y106600D01*
X123443Y106680D01*
X123443Y112777D01*
X125477Y112777D01*
X125477Y106680D01*
X125481Y106665D01*
X125479Y106649D01*
X125500Y106598D01*
X125516Y106545D01*
X125528Y106534D01*
X125534Y106520D01*
X125580Y106488D01*
X125621Y106451D01*
X125637Y106449D01*
X125650Y106440D01*
X125730Y106427D01*
X128270Y106427D01*
X128285Y106431D01*
X128301Y106429D01*
X128352Y106450D01*
X128405Y106466D01*
X128416Y106478D01*
X128430Y106484D01*
X128462Y106530D01*
X128499Y106571D01*
X128501Y106587D01*
X128510Y106600D01*
X128523Y106680D01*
X128523Y114300D01*
X128521Y114307D01*
X128521Y114308D01*
X128520Y114312D01*
X128507Y114356D01*
X128497Y114413D01*
X128486Y114427D01*
X128484Y114435D01*
X128474Y114444D01*
X128468Y114453D01*
X128534Y114523D01*
X128554Y114558D01*
X128579Y114589D01*
X128630Y114697D01*
X128688Y114801D01*
X128698Y114841D01*
X128715Y114877D01*
X128737Y114994D01*
X128767Y115109D01*
X128771Y115169D01*
X128775Y115189D01*
X128773Y115210D01*
X128777Y115270D01*
X128777Y115472D01*
X128765Y115570D01*
X128762Y115669D01*
X128745Y115728D01*
X128737Y115788D01*
X128701Y115880D01*
X128673Y115975D01*
X128643Y116027D01*
X128620Y116083D01*
X128562Y116164D01*
X128512Y116249D01*
X128446Y116324D01*
X128434Y116341D01*
X128424Y116349D01*
X128406Y116370D01*
X127466Y117310D01*
X127387Y117370D01*
X127315Y117438D01*
X127262Y117467D01*
X127214Y117504D01*
X127176Y117521D01*
X125738Y118959D01*
X125639Y119036D01*
X125544Y119118D01*
X125514Y119133D01*
X125487Y119154D01*
X125371Y119204D01*
X125259Y119260D01*
X125226Y119267D01*
X125195Y119280D01*
X125071Y119300D01*
X124948Y119326D01*
X124914Y119325D01*
X124881Y119330D01*
X124756Y119319D01*
X124630Y119313D01*
X124598Y119304D01*
X124564Y119300D01*
X124446Y119258D01*
X124326Y119222D01*
X124297Y119204D01*
X124265Y119193D01*
X124161Y119122D01*
X124053Y119057D01*
X124030Y119033D01*
X124002Y119014D01*
X123961Y118967D01*
X122173Y120755D01*
X122173Y129540D01*
X122169Y129555D01*
X122171Y129571D01*
X122150Y129622D01*
X122134Y129675D01*
X122122Y129686D01*
X122116Y129700D01*
X122070Y129732D01*
X122029Y129769D01*
X122013Y129771D01*
X122000Y129780D01*
X121920Y129793D01*
X118459Y129793D01*
X118459Y134367D01*
X120650Y134367D01*
X120665Y134371D01*
X120681Y134369D01*
X120732Y134390D01*
X120785Y134406D01*
X120796Y134418D01*
X120810Y134424D01*
X120842Y134470D01*
X120879Y134511D01*
X120881Y134527D01*
X120890Y134540D01*
X120903Y134620D01*
X120903Y156210D01*
X120899Y156225D01*
X120901Y156241D01*
X120880Y156292D01*
X120864Y156345D01*
X120852Y156356D01*
X120846Y156370D01*
X120800Y156402D01*
X120759Y156439D01*
X120743Y156441D01*
X120730Y156450D01*
X120650Y156463D01*
X118110Y156463D01*
X118095Y156459D01*
X118079Y156461D01*
X118028Y156440D01*
X117975Y156424D01*
X117964Y156412D01*
X117950Y156406D01*
X117918Y156360D01*
X117881Y156319D01*
X117879Y156303D01*
X117870Y156290D01*
X117857Y156210D01*
X117857Y152505D01*
X115519Y150167D01*
X115499Y150242D01*
X115499Y152654D01*
X115484Y152772D01*
X115477Y152891D01*
X115464Y152929D01*
X115459Y152970D01*
X115416Y153080D01*
X115379Y153193D01*
X115357Y153228D01*
X115342Y153265D01*
X115273Y153361D01*
X115209Y153462D01*
X115179Y153490D01*
X115156Y153523D01*
X115064Y153599D01*
X114977Y153680D01*
X114942Y153700D01*
X114911Y153725D01*
X114803Y153776D01*
X114699Y153834D01*
X114659Y153844D01*
X114623Y153861D01*
X114506Y153883D01*
X114391Y153913D01*
X114331Y153917D01*
X114311Y153921D01*
X114290Y153919D01*
X114230Y153923D01*
X112293Y153923D01*
X111251Y154965D01*
X111251Y156822D01*
X111236Y156940D01*
X111229Y157059D01*
X111216Y157097D01*
X111211Y157138D01*
X111168Y157248D01*
X111131Y157361D01*
X111109Y157396D01*
X111094Y157433D01*
X111025Y157529D01*
X110961Y157630D01*
X110931Y157658D01*
X110908Y157691D01*
X110816Y157767D01*
X110729Y157848D01*
X110694Y157868D01*
X110663Y157893D01*
X110555Y157944D01*
X110451Y158002D01*
X110411Y158012D01*
X110375Y158029D01*
X110258Y158051D01*
X110143Y158081D01*
X110083Y158085D01*
X110063Y158089D01*
X110042Y158087D01*
X109982Y158091D01*
X107592Y158091D01*
X105891Y159792D01*
X105891Y162948D01*
X105916Y162973D01*
X105989Y163067D01*
X106068Y163156D01*
X106086Y163192D01*
X106111Y163224D01*
X106158Y163333D01*
X106212Y163439D01*
X106221Y163479D01*
X106237Y163516D01*
X106256Y163633D01*
X106282Y163749D01*
X106281Y163790D01*
X106287Y163830D01*
X106276Y163949D01*
X106272Y164067D01*
X106261Y164106D01*
X106257Y164146D01*
X106217Y164258D01*
X106184Y164373D01*
X106163Y164408D01*
X106150Y164446D01*
X106083Y164544D01*
X106022Y164647D01*
X105983Y164692D01*
X105971Y164709D01*
X105956Y164722D01*
X105916Y164768D01*
X105891Y164792D01*
X105891Y167948D01*
X105916Y167973D01*
X105989Y168067D01*
X106068Y168156D01*
X106086Y168192D01*
X106111Y168224D01*
X106158Y168333D01*
X106212Y168439D01*
X106221Y168479D01*
X106237Y168516D01*
X106256Y168633D01*
X106282Y168749D01*
X106281Y168790D01*
X106287Y168830D01*
X106276Y168949D01*
X106272Y169067D01*
X106261Y169106D01*
X106257Y169146D01*
X106217Y169258D01*
X106184Y169373D01*
X106163Y169408D01*
X106150Y169446D01*
X106083Y169544D01*
X106022Y169647D01*
X105983Y169692D01*
X105971Y169709D01*
X105956Y169722D01*
X105916Y169768D01*
X105891Y169792D01*
X105891Y172948D01*
X105916Y172973D01*
X105989Y173067D01*
X106068Y173156D01*
X106086Y173192D01*
X106111Y173224D01*
X106158Y173333D01*
X106212Y173439D01*
X106221Y173479D01*
X106237Y173516D01*
X106256Y173633D01*
X106282Y173749D01*
X106281Y173790D01*
X106287Y173830D01*
X106276Y173949D01*
X106272Y174067D01*
X106261Y174106D01*
X106257Y174146D01*
X106217Y174258D01*
X106184Y174373D01*
X106163Y174408D01*
X106150Y174446D01*
X106083Y174544D01*
X106022Y174647D01*
X105983Y174692D01*
X105971Y174709D01*
X105956Y174722D01*
X105916Y174768D01*
X105891Y174792D01*
X105891Y177948D01*
X107592Y179649D01*
X114992Y179649D01*
X115110Y179664D01*
X115229Y179671D01*
X115267Y179684D01*
X115308Y179689D01*
X115418Y179732D01*
X115531Y179769D01*
X115566Y179791D01*
X115603Y179806D01*
X115699Y179875D01*
X115800Y179939D01*
X115828Y179969D01*
X115861Y179992D01*
X115937Y180084D01*
X116018Y180171D01*
X116038Y180206D01*
X116063Y180237D01*
X116114Y180345D01*
X116172Y180449D01*
X116182Y180489D01*
X116199Y180525D01*
X116221Y180642D01*
X116251Y180757D01*
X116255Y180817D01*
X116259Y180837D01*
X116257Y180858D01*
X116261Y180918D01*
X116261Y188218D01*
X116374Y188330D01*
X116434Y188408D01*
X116502Y188480D01*
X116531Y188533D01*
X116568Y188581D01*
X116608Y188672D01*
X116656Y188759D01*
X116671Y188817D01*
X116695Y188873D01*
X116710Y188971D01*
X116735Y189067D01*
X116741Y189167D01*
X116745Y189187D01*
X116743Y189200D01*
X116745Y189228D01*
X116745Y191197D01*
X116733Y191295D01*
X116730Y191394D01*
X116713Y191452D01*
X116705Y191512D01*
X116669Y191604D01*
X116641Y191699D01*
X116611Y191752D01*
X116588Y191808D01*
X116530Y191888D01*
X116480Y191973D01*
X116414Y192049D01*
X116402Y192065D01*
X116392Y192073D01*
X116374Y192094D01*
X114784Y193684D01*
X114706Y193744D01*
X114634Y193812D01*
X114581Y193841D01*
X114533Y193878D01*
X114442Y193918D01*
X114355Y193966D01*
X114297Y193981D01*
X114241Y194005D01*
X114143Y194020D01*
X114047Y194045D01*
X113947Y194051D01*
X113927Y194055D01*
X113915Y194053D01*
X113887Y194055D01*
X103283Y194055D01*
X103185Y194043D01*
X103086Y194040D01*
X103028Y194023D01*
X102968Y194015D01*
X102876Y193979D01*
X102781Y193951D01*
X102728Y193921D01*
X102672Y193898D01*
X102592Y193840D01*
X102507Y193790D01*
X102431Y193724D01*
X102415Y193712D01*
X102407Y193702D01*
X102386Y193684D01*
X99686Y190984D01*
X99626Y190906D01*
X99558Y190834D01*
X99529Y190781D01*
X99492Y190733D01*
X99452Y190642D01*
X99404Y190555D01*
X99389Y190497D01*
X99365Y190441D01*
X99350Y190343D01*
X99325Y190247D01*
X99319Y190147D01*
X99315Y190127D01*
X99317Y190115D01*
X99315Y190087D01*
X99315Y187228D01*
X99330Y187110D01*
X99337Y186991D01*
X99350Y186953D01*
X99355Y186912D01*
X99398Y186802D01*
X99435Y186689D01*
X99457Y186654D01*
X99472Y186617D01*
X99541Y186521D01*
X99605Y186420D01*
X99635Y186392D01*
X99658Y186359D01*
X99750Y186283D01*
X99837Y186202D01*
X99872Y186182D01*
X99903Y186157D01*
X100011Y186106D01*
X100115Y186048D01*
X100155Y186038D01*
X100191Y186021D01*
X100308Y185999D01*
X100423Y185969D01*
X100483Y185965D01*
X100503Y185961D01*
X100524Y185963D01*
X100584Y185959D01*
X101964Y185959D01*
X103299Y184624D01*
X103299Y172736D01*
X101640Y171078D01*
X101567Y170983D01*
X101488Y170894D01*
X101470Y170858D01*
X101445Y170826D01*
X101398Y170717D01*
X101344Y170611D01*
X101335Y170572D01*
X101319Y170534D01*
X101300Y170417D01*
X101274Y170301D01*
X101275Y170260D01*
X101269Y170220D01*
X101280Y170102D01*
X101284Y169983D01*
X101295Y169944D01*
X101299Y169904D01*
X101339Y169791D01*
X101372Y169677D01*
X101393Y169643D01*
X101406Y169604D01*
X101473Y169506D01*
X101534Y169403D01*
X101574Y169358D01*
X101585Y169341D01*
X101600Y169328D01*
X101640Y169283D01*
X103299Y167624D01*
X103299Y155736D01*
X101964Y154401D01*
X101600Y154401D01*
X101482Y154386D01*
X101363Y154379D01*
X101325Y154366D01*
X101284Y154361D01*
X101174Y154318D01*
X101061Y154281D01*
X101026Y154259D01*
X100989Y154244D01*
X100893Y154175D01*
X100792Y154111D01*
X100764Y154081D01*
X100731Y154058D01*
X100655Y153966D01*
X100574Y153879D01*
X100554Y153844D01*
X100529Y153813D01*
X100478Y153705D01*
X100420Y153601D01*
X100410Y153561D01*
X100393Y153525D01*
X100371Y153408D01*
X100341Y153293D01*
X100337Y153233D01*
X100333Y153213D01*
X100335Y153192D01*
X100331Y153132D01*
X100331Y149552D01*
X97727Y146948D01*
X81017Y130238D01*
X80957Y130160D01*
X80889Y130088D01*
X80860Y130035D01*
X80823Y129987D01*
X80783Y129896D01*
X80735Y129809D01*
X80720Y129751D01*
X80696Y129695D01*
X80681Y129597D01*
X80656Y129502D01*
X80650Y129401D01*
X80646Y129381D01*
X80648Y129369D01*
X80646Y129341D01*
X80646Y123190D01*
X80661Y123072D01*
X80668Y122953D01*
X80681Y122915D01*
X80686Y122874D01*
X80729Y122764D01*
X80766Y122651D01*
X80788Y122616D01*
X80803Y122579D01*
X80872Y122483D01*
X80936Y122382D01*
X80966Y122354D01*
X80989Y122321D01*
X81081Y122245D01*
X81168Y122164D01*
X81203Y122144D01*
X81234Y122119D01*
X81342Y122068D01*
X81446Y122010D01*
X81486Y122000D01*
X81522Y121983D01*
X81639Y121961D01*
X81754Y121931D01*
X81814Y121927D01*
X81834Y121923D01*
X81855Y121925D01*
X81915Y121921D01*
X94608Y121921D01*
X94706Y121933D01*
X94805Y121936D01*
X94864Y121953D01*
X94924Y121961D01*
X95016Y121997D01*
X95111Y122025D01*
X95163Y122055D01*
X95219Y122078D01*
X95299Y122136D01*
X95385Y122186D01*
X95460Y122252D01*
X95477Y122264D01*
X95485Y122274D01*
X95506Y122293D01*
X95896Y122683D01*
X99684Y122683D01*
X101491Y120876D01*
X101526Y120849D01*
X101556Y120815D01*
X101684Y120718D01*
X102481Y120187D01*
X102600Y120127D01*
X102716Y120063D01*
X102742Y120057D01*
X102765Y120045D01*
X102895Y120017D01*
X103024Y119984D01*
X103046Y119982D01*
X103476Y119553D01*
X103511Y119525D01*
X103541Y119492D01*
X103669Y119394D01*
X104186Y119050D01*
X104218Y118937D01*
X104232Y118914D01*
X104240Y118889D01*
X104312Y118778D01*
X104380Y118663D01*
X104395Y118646D01*
X104395Y118039D01*
X104400Y117994D01*
X104398Y117949D01*
X104419Y117790D01*
X104541Y117181D01*
X104484Y117079D01*
X104478Y117053D01*
X104466Y117029D01*
X104438Y116899D01*
X104405Y116771D01*
X104403Y116733D01*
X104399Y116718D01*
X104400Y116697D01*
X104395Y116610D01*
X104395Y112725D01*
X104407Y112627D01*
X104410Y112528D01*
X104427Y112470D01*
X104435Y112409D01*
X104471Y112317D01*
X104499Y112222D01*
X104529Y112170D01*
X104552Y112114D01*
X104610Y112034D01*
X104660Y111948D01*
X104726Y111873D01*
X104738Y111856D01*
X104748Y111849D01*
X104766Y111827D01*
X105985Y110608D01*
X106064Y110548D01*
X106136Y110480D01*
X106189Y110451D01*
X106237Y110414D01*
X106328Y110374D01*
X106414Y110326D01*
X106473Y110311D01*
X106529Y110287D01*
X106627Y110272D01*
X106722Y110247D01*
X106822Y110241D01*
X106843Y110237D01*
X106855Y110239D01*
X106883Y110237D01*
X116690Y110237D01*
X116808Y110252D01*
X116927Y110259D01*
X116965Y110272D01*
X117006Y110277D01*
X117116Y110320D01*
X117229Y110357D01*
X117264Y110379D01*
X117301Y110394D01*
X117397Y110463D01*
X117498Y110527D01*
X117526Y110557D01*
X117559Y110580D01*
X117635Y110672D01*
X117716Y110759D01*
X117736Y110794D01*
X117761Y110825D01*
X117812Y110933D01*
X117870Y111037D01*
X117880Y111077D01*
X117897Y111113D01*
X117906Y111161D01*
X117916Y111190D01*
X118167Y112128D01*
X118569Y112823D01*
X119137Y113391D01*
X119832Y113793D01*
X120397Y113944D01*
X120397Y106680D01*
X120401Y106665D01*
X120399Y106649D01*
X120420Y106598D01*
X120436Y106545D01*
X120448Y106534D01*
X120454Y106520D01*
X120500Y106488D01*
X120541Y106451D01*
X120557Y106449D01*
X120570Y106440D01*
X120650Y106427D01*
X123190Y106427D01*
X123205Y106431D01*
G37*
G36*
X108557Y23034D02*
X108557Y23034D01*
X108695Y23042D01*
X108714Y23049D01*
X108734Y23050D01*
X108866Y23098D01*
X108997Y23140D01*
X109015Y23151D01*
X109034Y23158D01*
X109149Y23236D01*
X109266Y23311D01*
X109280Y23325D01*
X109297Y23337D01*
X109389Y23441D01*
X109484Y23542D01*
X109494Y23560D01*
X109507Y23575D01*
X109571Y23699D01*
X109638Y23821D01*
X109643Y23840D01*
X109652Y23858D01*
X109682Y23994D01*
X109717Y24129D01*
X109719Y24157D01*
X109722Y24169D01*
X109721Y24189D01*
X109727Y24289D01*
X109727Y28564D01*
X111762Y30599D01*
X111847Y30708D01*
X111936Y30815D01*
X111944Y30834D01*
X111957Y30850D01*
X112012Y30978D01*
X112071Y31103D01*
X112075Y31123D01*
X112083Y31142D01*
X112105Y31280D01*
X112131Y31416D01*
X112130Y31436D01*
X112133Y31456D01*
X112120Y31595D01*
X112111Y31733D01*
X112105Y31752D01*
X112103Y31772D01*
X112056Y31904D01*
X112013Y32035D01*
X112002Y32053D01*
X111995Y32072D01*
X111917Y32187D01*
X111843Y32304D01*
X111828Y32318D01*
X111817Y32335D01*
X111713Y32427D01*
X111611Y32522D01*
X111594Y32532D01*
X111578Y32545D01*
X111454Y32609D01*
X111333Y32676D01*
X111313Y32681D01*
X111295Y32690D01*
X111159Y32720D01*
X111025Y32755D01*
X110997Y32757D01*
X110985Y32760D01*
X110964Y32759D01*
X110864Y32765D01*
X104252Y32765D01*
X102244Y34774D01*
X85574Y51444D01*
X83565Y53452D01*
X83565Y61976D01*
X83550Y62094D01*
X83543Y62213D01*
X83530Y62251D01*
X83525Y62292D01*
X83482Y62402D01*
X83445Y62515D01*
X83423Y62550D01*
X83408Y62587D01*
X83339Y62683D01*
X83275Y62784D01*
X83245Y62812D01*
X83222Y62845D01*
X83130Y62921D01*
X83043Y63002D01*
X83008Y63022D01*
X82977Y63047D01*
X82869Y63098D01*
X82765Y63156D01*
X82725Y63166D01*
X82689Y63183D01*
X82572Y63205D01*
X82457Y63235D01*
X82397Y63239D01*
X82377Y63243D01*
X82356Y63241D01*
X82296Y63245D01*
X77582Y63245D01*
X68325Y72502D01*
X68325Y103727D01*
X68313Y103825D01*
X68310Y103924D01*
X68293Y103982D01*
X68285Y104042D01*
X68249Y104134D01*
X68221Y104229D01*
X68191Y104282D01*
X68168Y104338D01*
X68110Y104418D01*
X68060Y104503D01*
X67994Y104579D01*
X67982Y104595D01*
X67972Y104603D01*
X67954Y104624D01*
X63744Y108834D01*
X63666Y108894D01*
X63594Y108962D01*
X63541Y108991D01*
X63493Y109028D01*
X63402Y109068D01*
X63315Y109116D01*
X63257Y109131D01*
X63201Y109155D01*
X63103Y109170D01*
X63007Y109195D01*
X62907Y109201D01*
X62887Y109205D01*
X62875Y109203D01*
X62847Y109205D01*
X60498Y109205D01*
X60400Y109193D01*
X60301Y109190D01*
X60242Y109173D01*
X60182Y109165D01*
X60090Y109129D01*
X59995Y109101D01*
X59943Y109071D01*
X59887Y109048D01*
X59807Y108990D01*
X59721Y108940D01*
X59646Y108874D01*
X59629Y108862D01*
X59621Y108852D01*
X59600Y108834D01*
X57988Y107221D01*
X54735Y107221D01*
X54597Y107204D01*
X54459Y107191D01*
X54440Y107184D01*
X54420Y107181D01*
X54291Y107130D01*
X54160Y107083D01*
X54143Y107072D01*
X54124Y107064D01*
X54012Y106983D01*
X53897Y106905D01*
X53883Y106889D01*
X53867Y106878D01*
X53778Y106770D01*
X53686Y106666D01*
X53677Y106648D01*
X53664Y106633D01*
X53605Y106507D01*
X53541Y106383D01*
X53537Y106363D01*
X53528Y106345D01*
X53502Y106208D01*
X53472Y106073D01*
X53472Y106052D01*
X53469Y106033D01*
X53477Y105894D01*
X53481Y105755D01*
X53487Y105735D01*
X53488Y105715D01*
X53531Y105583D01*
X53570Y105449D01*
X53580Y105432D01*
X53586Y105413D01*
X53661Y105295D01*
X53731Y105175D01*
X53750Y105154D01*
X53757Y105144D01*
X53772Y105130D01*
X53838Y105055D01*
X55236Y103656D01*
X61215Y97678D01*
X61215Y70263D01*
X61227Y70165D01*
X61230Y70066D01*
X61247Y70008D01*
X61255Y69948D01*
X61291Y69856D01*
X61319Y69761D01*
X61349Y69708D01*
X61372Y69652D01*
X61430Y69572D01*
X61480Y69487D01*
X61546Y69411D01*
X61558Y69395D01*
X61568Y69387D01*
X61586Y69366D01*
X107561Y23392D01*
X107670Y23307D01*
X107777Y23218D01*
X107796Y23209D01*
X107812Y23197D01*
X107940Y23141D01*
X108065Y23082D01*
X108085Y23079D01*
X108104Y23071D01*
X108242Y23049D01*
X108378Y23023D01*
X108398Y23024D01*
X108418Y23021D01*
X108557Y23034D01*
G37*
G36*
X146885Y109367D02*
X146885Y109367D01*
X146984Y109370D01*
X147042Y109387D01*
X147102Y109395D01*
X147194Y109431D01*
X147289Y109459D01*
X147342Y109489D01*
X147398Y109512D01*
X147478Y109570D01*
X147563Y109620D01*
X147639Y109686D01*
X147655Y109698D01*
X147663Y109708D01*
X147684Y109726D01*
X159394Y121436D01*
X159454Y121514D01*
X159522Y121586D01*
X159551Y121639D01*
X159588Y121687D01*
X159628Y121778D01*
X159676Y121865D01*
X159691Y121923D01*
X159715Y121979D01*
X159730Y122077D01*
X159755Y122173D01*
X159761Y122273D01*
X159765Y122293D01*
X159763Y122305D01*
X159765Y122333D01*
X159765Y133320D01*
X159750Y133438D01*
X159743Y133557D01*
X159730Y133595D01*
X159725Y133636D01*
X159682Y133746D01*
X159645Y133859D01*
X159623Y133894D01*
X159608Y133931D01*
X159539Y134027D01*
X159475Y134128D01*
X159445Y134156D01*
X159422Y134189D01*
X159330Y134265D01*
X159243Y134346D01*
X159208Y134366D01*
X159177Y134391D01*
X159069Y134442D01*
X158965Y134500D01*
X158925Y134510D01*
X158889Y134527D01*
X158772Y134549D01*
X158657Y134579D01*
X158597Y134583D01*
X158577Y134587D01*
X158556Y134585D01*
X158496Y134589D01*
X157439Y134589D01*
X157439Y141400D01*
X157424Y141518D01*
X157417Y141637D01*
X157404Y141675D01*
X157399Y141715D01*
X157356Y141826D01*
X157319Y141939D01*
X157297Y141973D01*
X157282Y142011D01*
X157213Y142107D01*
X157149Y142208D01*
X157119Y142236D01*
X157096Y142268D01*
X157004Y142344D01*
X156917Y142426D01*
X156882Y142445D01*
X156851Y142471D01*
X156743Y142522D01*
X156639Y142579D01*
X156599Y142589D01*
X156563Y142607D01*
X156446Y142629D01*
X156331Y142659D01*
X156271Y142663D01*
X156251Y142666D01*
X156230Y142665D01*
X156170Y142669D01*
X154979Y142669D01*
X154979Y143860D01*
X154964Y143978D01*
X154957Y144097D01*
X154944Y144135D01*
X154939Y144176D01*
X154895Y144286D01*
X154859Y144399D01*
X154837Y144434D01*
X154822Y144471D01*
X154752Y144567D01*
X154689Y144668D01*
X154659Y144696D01*
X154635Y144729D01*
X154544Y144805D01*
X154457Y144886D01*
X154422Y144906D01*
X154390Y144931D01*
X154283Y144982D01*
X154178Y145040D01*
X154139Y145050D01*
X154103Y145067D01*
X153986Y145089D01*
X153870Y145119D01*
X153810Y145123D01*
X153790Y145127D01*
X153770Y145125D01*
X153710Y145129D01*
X147399Y145129D01*
X147399Y148030D01*
X147606Y148804D01*
X148007Y149497D01*
X148573Y150063D01*
X149176Y150412D01*
X149277Y150488D01*
X149380Y150558D01*
X149403Y150583D01*
X149430Y150604D01*
X149508Y150702D01*
X149591Y150797D01*
X149606Y150827D01*
X149627Y150853D01*
X149678Y150968D01*
X149736Y151080D01*
X149743Y151113D01*
X149757Y151143D01*
X149778Y151268D01*
X149805Y151390D01*
X149804Y151424D01*
X149810Y151457D01*
X149799Y151582D01*
X149796Y151708D01*
X149786Y151740D01*
X149783Y151774D01*
X149742Y151893D01*
X149707Y152013D01*
X149690Y152043D01*
X149679Y152074D01*
X149609Y152179D01*
X149546Y152287D01*
X149513Y152324D01*
X149503Y152339D01*
X149487Y152354D01*
X149439Y152408D01*
X148009Y153839D01*
X148004Y153849D01*
X147946Y153930D01*
X147896Y154015D01*
X147830Y154090D01*
X147827Y154093D01*
X147827Y154842D01*
X147815Y154940D01*
X147812Y155039D01*
X147795Y155098D01*
X147787Y155158D01*
X147751Y155250D01*
X147723Y155345D01*
X147693Y155397D01*
X147670Y155453D01*
X147612Y155534D01*
X147562Y155619D01*
X147496Y155694D01*
X147484Y155711D01*
X147474Y155719D01*
X147456Y155740D01*
X145580Y157616D01*
X145501Y157676D01*
X145429Y157744D01*
X145376Y157773D01*
X145328Y157810D01*
X145238Y157850D01*
X145151Y157898D01*
X145092Y157913D01*
X145037Y157937D01*
X144939Y157952D01*
X144843Y157977D01*
X144743Y157983D01*
X144723Y157987D01*
X144710Y157985D01*
X144682Y157987D01*
X139088Y157987D01*
X138970Y157972D01*
X138851Y157965D01*
X138813Y157952D01*
X138772Y157947D01*
X138662Y157904D01*
X138549Y157867D01*
X138514Y157845D01*
X138477Y157830D01*
X138381Y157761D01*
X138280Y157697D01*
X138252Y157667D01*
X138219Y157644D01*
X138143Y157552D01*
X138062Y157465D01*
X138042Y157430D01*
X138017Y157399D01*
X137966Y157291D01*
X137908Y157187D01*
X137898Y157147D01*
X137881Y157111D01*
X137859Y156994D01*
X137829Y156879D01*
X137825Y156819D01*
X137821Y156799D01*
X137823Y156778D01*
X137819Y156718D01*
X137819Y149522D01*
X137276Y148979D01*
X137191Y148870D01*
X137102Y148763D01*
X137093Y148744D01*
X137081Y148728D01*
X137026Y148600D01*
X136967Y148475D01*
X136963Y148455D01*
X136955Y148436D01*
X136933Y148298D01*
X136907Y148162D01*
X136908Y148142D01*
X136905Y148122D01*
X136918Y147983D01*
X136927Y147845D01*
X136933Y147826D01*
X136935Y147806D01*
X136982Y147674D01*
X137025Y147543D01*
X137035Y147525D01*
X137042Y147506D01*
X137120Y147391D01*
X137195Y147274D01*
X137209Y147260D01*
X137221Y147243D01*
X137325Y147151D01*
X137426Y147056D01*
X137444Y147046D01*
X137459Y147033D01*
X137583Y146970D01*
X137705Y146902D01*
X137724Y146897D01*
X137742Y146888D01*
X137878Y146858D01*
X138013Y146823D01*
X138041Y146821D01*
X138053Y146818D01*
X138073Y146819D01*
X138173Y146813D01*
X139272Y146813D01*
X140463Y145622D01*
X140463Y133778D01*
X139662Y132977D01*
X139589Y132883D01*
X139510Y132794D01*
X139492Y132758D01*
X139467Y132726D01*
X139420Y132617D01*
X139366Y132511D01*
X139357Y132472D01*
X139341Y132434D01*
X139322Y132317D01*
X139296Y132201D01*
X139297Y132160D01*
X139291Y132120D01*
X139302Y132002D01*
X139306Y131883D01*
X139317Y131844D01*
X139321Y131804D01*
X139361Y131692D01*
X139394Y131577D01*
X139415Y131542D01*
X139428Y131504D01*
X139495Y131406D01*
X139556Y131303D01*
X139596Y131258D01*
X139607Y131241D01*
X139622Y131228D01*
X139662Y131182D01*
X140463Y130382D01*
X140463Y129540D01*
X140478Y129422D01*
X140485Y129303D01*
X140498Y129265D01*
X140503Y129224D01*
X140546Y129114D01*
X140583Y129001D01*
X140605Y128966D01*
X140620Y128929D01*
X140689Y128833D01*
X140753Y128732D01*
X140783Y128704D01*
X140806Y128671D01*
X140898Y128595D01*
X140985Y128514D01*
X141020Y128494D01*
X141051Y128469D01*
X141159Y128418D01*
X141263Y128360D01*
X141303Y128350D01*
X141339Y128333D01*
X141456Y128311D01*
X141571Y128281D01*
X141631Y128277D01*
X141651Y128273D01*
X141672Y128275D01*
X141732Y128271D01*
X143818Y128271D01*
X144999Y127090D01*
X145077Y127030D01*
X145149Y126962D01*
X145202Y126933D01*
X145250Y126896D01*
X145341Y126856D01*
X145428Y126808D01*
X145486Y126793D01*
X145542Y126769D01*
X145640Y126754D01*
X145736Y126729D01*
X145836Y126723D01*
X145856Y126719D01*
X145868Y126721D01*
X145896Y126719D01*
X146768Y126719D01*
X149579Y123908D01*
X149579Y119932D01*
X146768Y117121D01*
X142792Y117121D01*
X142630Y117284D01*
X142520Y117369D01*
X142413Y117458D01*
X142394Y117467D01*
X142378Y117479D01*
X142250Y117534D01*
X142125Y117594D01*
X142105Y117597D01*
X142086Y117605D01*
X141948Y117627D01*
X141812Y117653D01*
X141792Y117652D01*
X141772Y117655D01*
X141633Y117642D01*
X141495Y117634D01*
X141476Y117627D01*
X141456Y117625D01*
X141325Y117578D01*
X141193Y117536D01*
X141175Y117525D01*
X141156Y117518D01*
X141042Y117440D01*
X140924Y117365D01*
X140910Y117351D01*
X140893Y117339D01*
X140801Y117235D01*
X140706Y117134D01*
X140696Y117116D01*
X140683Y117101D01*
X140620Y116977D01*
X140552Y116855D01*
X140547Y116836D01*
X140538Y116818D01*
X140508Y116682D01*
X140473Y116547D01*
X140471Y116519D01*
X140468Y116507D01*
X140469Y116487D01*
X140463Y116387D01*
X140463Y115998D01*
X136470Y112005D01*
X136385Y111896D01*
X136296Y111789D01*
X136288Y111770D01*
X136275Y111754D01*
X136220Y111626D01*
X136161Y111501D01*
X136157Y111481D01*
X136149Y111462D01*
X136127Y111324D01*
X136101Y111188D01*
X136102Y111168D01*
X136099Y111148D01*
X136112Y111009D01*
X136121Y110871D01*
X136127Y110852D01*
X136129Y110832D01*
X136176Y110700D01*
X136219Y110569D01*
X136230Y110551D01*
X136236Y110532D01*
X136315Y110417D01*
X136389Y110300D01*
X136404Y110286D01*
X136415Y110269D01*
X136519Y110177D01*
X136621Y110082D01*
X136638Y110072D01*
X136653Y110059D01*
X136778Y109995D01*
X136899Y109928D01*
X136919Y109923D01*
X136937Y109914D01*
X137073Y109884D01*
X137207Y109849D01*
X137235Y109847D01*
X137247Y109844D01*
X137267Y109845D01*
X137368Y109839D01*
X141463Y109839D01*
X141575Y109726D01*
X141654Y109666D01*
X141726Y109598D01*
X141779Y109569D01*
X141827Y109532D01*
X141918Y109492D01*
X142004Y109444D01*
X142063Y109429D01*
X142118Y109405D01*
X142216Y109390D01*
X142312Y109365D01*
X142412Y109359D01*
X142432Y109355D01*
X142445Y109357D01*
X142473Y109355D01*
X146787Y109355D01*
X146885Y109367D01*
G37*
G36*
X130575Y210860D02*
X130575Y210860D01*
X130713Y210868D01*
X130732Y210875D01*
X130752Y210877D01*
X130884Y210924D01*
X131015Y210966D01*
X131033Y210977D01*
X131052Y210984D01*
X131167Y211062D01*
X131284Y211137D01*
X131298Y211151D01*
X131315Y211163D01*
X131407Y211267D01*
X131502Y211368D01*
X131512Y211386D01*
X131525Y211401D01*
X131588Y211525D01*
X131656Y211647D01*
X131661Y211666D01*
X131670Y211684D01*
X131700Y211820D01*
X131735Y211955D01*
X131737Y211983D01*
X131740Y211995D01*
X131739Y212015D01*
X131745Y212115D01*
X131745Y232923D01*
X131733Y233021D01*
X131730Y233120D01*
X131713Y233178D01*
X131705Y233238D01*
X131669Y233330D01*
X131641Y233425D01*
X131611Y233478D01*
X131588Y233534D01*
X131530Y233614D01*
X131480Y233699D01*
X131414Y233775D01*
X131402Y233791D01*
X131392Y233799D01*
X131374Y233820D01*
X130225Y234969D01*
X128523Y239077D01*
X128523Y243523D01*
X130225Y247631D01*
X131632Y249039D01*
X131718Y249148D01*
X131806Y249255D01*
X131815Y249274D01*
X131827Y249290D01*
X131883Y249418D01*
X131942Y249543D01*
X131945Y249563D01*
X131954Y249582D01*
X131975Y249720D01*
X132001Y249856D01*
X132000Y249876D01*
X132003Y249896D01*
X131990Y250035D01*
X131982Y250173D01*
X131975Y250192D01*
X131974Y250212D01*
X131926Y250344D01*
X131884Y250475D01*
X131873Y250493D01*
X131866Y250512D01*
X131788Y250627D01*
X131714Y250744D01*
X131699Y250758D01*
X131687Y250775D01*
X131583Y250867D01*
X131482Y250962D01*
X131464Y250972D01*
X131449Y250985D01*
X131325Y251049D01*
X131203Y251116D01*
X131184Y251121D01*
X131166Y251130D01*
X131030Y251160D01*
X130895Y251195D01*
X130867Y251197D01*
X130855Y251200D01*
X130835Y251199D01*
X130735Y251205D01*
X123265Y251205D01*
X123127Y251188D01*
X122989Y251175D01*
X122970Y251168D01*
X122950Y251165D01*
X122820Y251114D01*
X122690Y251067D01*
X122673Y251056D01*
X122654Y251048D01*
X122542Y250967D01*
X122426Y250889D01*
X122413Y250873D01*
X122397Y250862D01*
X122308Y250754D01*
X122216Y250650D01*
X122207Y250632D01*
X122194Y250617D01*
X122135Y250491D01*
X122071Y250367D01*
X122067Y250347D01*
X122058Y250329D01*
X122032Y250192D01*
X122002Y250057D01*
X122002Y250036D01*
X121999Y250017D01*
X122007Y249878D01*
X122011Y249739D01*
X122017Y249719D01*
X122018Y249699D01*
X122061Y249567D01*
X122100Y249433D01*
X122110Y249416D01*
X122116Y249397D01*
X122191Y249279D01*
X122261Y249159D01*
X122280Y249138D01*
X122286Y249128D01*
X122301Y249114D01*
X122368Y249039D01*
X123775Y247631D01*
X125477Y243523D01*
X125477Y239077D01*
X123775Y234969D01*
X120631Y231825D01*
X116523Y230123D01*
X112077Y230123D01*
X107969Y231825D01*
X104825Y234969D01*
X103123Y239077D01*
X103123Y243523D01*
X104825Y247631D01*
X106232Y249039D01*
X106318Y249148D01*
X106406Y249255D01*
X106415Y249274D01*
X106427Y249290D01*
X106483Y249418D01*
X106542Y249543D01*
X106545Y249563D01*
X106554Y249582D01*
X106575Y249720D01*
X106601Y249856D01*
X106600Y249876D01*
X106603Y249896D01*
X106590Y250035D01*
X106582Y250173D01*
X106575Y250192D01*
X106574Y250212D01*
X106526Y250344D01*
X106484Y250475D01*
X106473Y250493D01*
X106466Y250512D01*
X106388Y250627D01*
X106314Y250744D01*
X106299Y250758D01*
X106287Y250775D01*
X106183Y250867D01*
X106082Y250962D01*
X106064Y250972D01*
X106049Y250985D01*
X105925Y251049D01*
X105803Y251116D01*
X105784Y251121D01*
X105766Y251130D01*
X105630Y251160D01*
X105495Y251195D01*
X105467Y251197D01*
X105455Y251200D01*
X105435Y251199D01*
X105335Y251205D01*
X97865Y251205D01*
X97727Y251188D01*
X97589Y251175D01*
X97570Y251168D01*
X97550Y251165D01*
X97420Y251114D01*
X97290Y251067D01*
X97273Y251056D01*
X97254Y251048D01*
X97142Y250967D01*
X97026Y250889D01*
X97013Y250873D01*
X96997Y250862D01*
X96908Y250754D01*
X96816Y250650D01*
X96807Y250632D01*
X96794Y250617D01*
X96735Y250491D01*
X96671Y250367D01*
X96667Y250347D01*
X96658Y250329D01*
X96632Y250192D01*
X96602Y250057D01*
X96602Y250036D01*
X96599Y250017D01*
X96607Y249878D01*
X96611Y249739D01*
X96617Y249719D01*
X96618Y249699D01*
X96661Y249567D01*
X96700Y249433D01*
X96710Y249416D01*
X96716Y249397D01*
X96791Y249279D01*
X96861Y249159D01*
X96880Y249138D01*
X96886Y249128D01*
X96901Y249114D01*
X96968Y249039D01*
X98375Y247631D01*
X100077Y243523D01*
X100077Y239077D01*
X98936Y236324D01*
X98929Y236296D01*
X98915Y236269D01*
X98887Y236142D01*
X98853Y236017D01*
X98852Y235988D01*
X98846Y235959D01*
X98850Y235829D01*
X98847Y235699D01*
X98854Y235671D01*
X98855Y235641D01*
X98891Y235516D01*
X98922Y235390D01*
X98935Y235364D01*
X98944Y235336D01*
X99010Y235224D01*
X99070Y235109D01*
X99090Y235087D01*
X99105Y235062D01*
X99212Y234941D01*
X122780Y211372D01*
X122875Y211299D01*
X122964Y211220D01*
X123000Y211202D01*
X123032Y211177D01*
X123141Y211130D01*
X123247Y211076D01*
X123286Y211067D01*
X123324Y211051D01*
X123441Y211032D01*
X123557Y211006D01*
X123598Y211007D01*
X123638Y211001D01*
X123756Y211012D01*
X123875Y211016D01*
X123914Y211027D01*
X123954Y211031D01*
X124066Y211071D01*
X124181Y211104D01*
X124216Y211124D01*
X124254Y211138D01*
X124352Y211205D01*
X124455Y211265D01*
X124500Y211305D01*
X124517Y211317D01*
X124530Y211332D01*
X124575Y211372D01*
X125012Y211809D01*
X128988Y211809D01*
X129579Y211218D01*
X129688Y211133D01*
X129795Y211044D01*
X129814Y211035D01*
X129830Y211023D01*
X129957Y210968D01*
X130083Y210908D01*
X130103Y210905D01*
X130122Y210897D01*
X130260Y210875D01*
X130396Y210849D01*
X130416Y210850D01*
X130436Y210847D01*
X130575Y210860D01*
G37*
G36*
X101656Y101363D02*
X101656Y101363D01*
X101713Y101373D01*
X101727Y101384D01*
X101735Y101386D01*
X101744Y101396D01*
X101779Y101421D01*
X105515Y105157D01*
X116840Y105157D01*
X116855Y105161D01*
X116871Y105159D01*
X116922Y105180D01*
X116975Y105196D01*
X116986Y105208D01*
X117000Y105214D01*
X117032Y105260D01*
X117069Y105301D01*
X117071Y105317D01*
X117080Y105330D01*
X117093Y105410D01*
X117093Y107950D01*
X117091Y107958D01*
X117091Y107962D01*
X117089Y107967D01*
X117091Y107981D01*
X117070Y108032D01*
X117054Y108085D01*
X117042Y108096D01*
X117036Y108110D01*
X116990Y108142D01*
X116949Y108179D01*
X116933Y108181D01*
X116920Y108190D01*
X116840Y108203D01*
X105515Y108203D01*
X102361Y111357D01*
X102361Y117687D01*
X102358Y117699D01*
X102360Y117711D01*
X102338Y117766D01*
X102322Y117822D01*
X102313Y117830D01*
X102308Y117842D01*
X102248Y117897D01*
X99708Y119591D01*
X99676Y119601D01*
X99648Y119620D01*
X99580Y119631D01*
X99574Y119633D01*
X99572Y119633D01*
X99568Y119633D01*
X76200Y119633D01*
X76185Y119629D01*
X76169Y119631D01*
X76118Y119610D01*
X76065Y119594D01*
X76054Y119582D01*
X76040Y119576D01*
X76008Y119530D01*
X75971Y119489D01*
X75969Y119473D01*
X75960Y119460D01*
X75947Y119380D01*
X75947Y101600D01*
X75951Y101585D01*
X75949Y101569D01*
X75970Y101518D01*
X75986Y101465D01*
X75998Y101454D01*
X76004Y101440D01*
X76050Y101408D01*
X76091Y101371D01*
X76107Y101369D01*
X76120Y101360D01*
X76200Y101347D01*
X101600Y101347D01*
X101656Y101363D01*
G37*
G36*
X167504Y164834D02*
X167504Y164834D01*
X167623Y164841D01*
X167661Y164854D01*
X167702Y164859D01*
X167812Y164902D01*
X167925Y164939D01*
X167960Y164961D01*
X167997Y164976D01*
X168093Y165045D01*
X168194Y165109D01*
X168222Y165139D01*
X168255Y165162D01*
X168331Y165254D01*
X168412Y165341D01*
X168432Y165376D01*
X168457Y165407D01*
X168508Y165515D01*
X168566Y165619D01*
X168576Y165659D01*
X168593Y165695D01*
X168615Y165812D01*
X168645Y165927D01*
X168649Y165987D01*
X168653Y166007D01*
X168651Y166028D01*
X168655Y166088D01*
X168655Y205327D01*
X168643Y205425D01*
X168640Y205524D01*
X168623Y205582D01*
X168615Y205642D01*
X168579Y205734D01*
X168551Y205829D01*
X168521Y205882D01*
X168498Y205938D01*
X168440Y206018D01*
X168390Y206103D01*
X168324Y206179D01*
X168312Y206195D01*
X168302Y206203D01*
X168284Y206224D01*
X155964Y218543D01*
X155855Y218628D01*
X155748Y218717D01*
X155729Y218726D01*
X155713Y218738D01*
X155585Y218794D01*
X155460Y218853D01*
X155440Y218856D01*
X155421Y218864D01*
X155283Y218886D01*
X155147Y218912D01*
X155127Y218911D01*
X155107Y218914D01*
X154968Y218901D01*
X154830Y218893D01*
X154811Y218886D01*
X154791Y218885D01*
X154659Y218837D01*
X154528Y218795D01*
X154510Y218784D01*
X154491Y218777D01*
X154376Y218699D01*
X154259Y218624D01*
X154245Y218610D01*
X154228Y218598D01*
X154136Y218494D01*
X154041Y218393D01*
X154031Y218375D01*
X154018Y218360D01*
X153954Y218236D01*
X153887Y218114D01*
X153882Y218095D01*
X153873Y218077D01*
X153843Y217941D01*
X153808Y217806D01*
X153806Y217778D01*
X153803Y217766D01*
X153804Y217746D01*
X153798Y217646D01*
X153798Y217181D01*
X151756Y215140D01*
X151696Y215061D01*
X151628Y214989D01*
X151599Y214936D01*
X151562Y214888D01*
X151522Y214797D01*
X151474Y214711D01*
X151459Y214652D01*
X151435Y214597D01*
X151420Y214499D01*
X151395Y214403D01*
X151389Y214303D01*
X151385Y214282D01*
X151387Y214270D01*
X151385Y214242D01*
X151385Y213078D01*
X151400Y212960D01*
X151407Y212841D01*
X151420Y212803D01*
X151425Y212762D01*
X151468Y212652D01*
X151505Y212539D01*
X151527Y212504D01*
X151542Y212467D01*
X151611Y212371D01*
X151675Y212270D01*
X151705Y212242D01*
X151728Y212209D01*
X151820Y212133D01*
X151907Y212052D01*
X151942Y212032D01*
X151973Y212007D01*
X152081Y211956D01*
X152185Y211898D01*
X152225Y211888D01*
X152261Y211871D01*
X152378Y211849D01*
X152493Y211819D01*
X152553Y211815D01*
X152573Y211811D01*
X152594Y211813D01*
X152654Y211809D01*
X156928Y211809D01*
X159739Y208998D01*
X159739Y205022D01*
X158360Y203644D01*
X158300Y203566D01*
X158232Y203494D01*
X158203Y203441D01*
X158166Y203393D01*
X158126Y203302D01*
X158078Y203215D01*
X158063Y203157D01*
X158039Y203101D01*
X158024Y203003D01*
X157999Y202907D01*
X157993Y202807D01*
X157989Y202787D01*
X157991Y202775D01*
X157989Y202747D01*
X157989Y176037D01*
X157365Y175413D01*
X157305Y175335D01*
X157237Y175263D01*
X157208Y175210D01*
X157170Y175162D01*
X157131Y175071D01*
X157083Y174984D01*
X157068Y174926D01*
X157044Y174870D01*
X157029Y174772D01*
X157004Y174676D01*
X156997Y174576D01*
X156994Y174556D01*
X156995Y174544D01*
X156994Y174516D01*
X156994Y172207D01*
X154086Y169299D01*
X154000Y169190D01*
X153912Y169083D01*
X153903Y169064D01*
X153891Y169048D01*
X153835Y168920D01*
X153776Y168795D01*
X153772Y168775D01*
X153764Y168756D01*
X153742Y168618D01*
X153716Y168482D01*
X153718Y168462D01*
X153715Y168442D01*
X153728Y168303D01*
X153736Y168165D01*
X153742Y168146D01*
X153744Y168126D01*
X153792Y167994D01*
X153834Y167863D01*
X153845Y167845D01*
X153852Y167826D01*
X153930Y167711D01*
X154004Y167594D01*
X154019Y167580D01*
X154031Y167563D01*
X154135Y167471D01*
X154236Y167376D01*
X154254Y167366D01*
X154269Y167353D01*
X154393Y167289D01*
X154515Y167222D01*
X154534Y167217D01*
X154552Y167208D01*
X154688Y167178D01*
X154822Y167143D01*
X154851Y167141D01*
X154862Y167138D01*
X154883Y167139D01*
X154983Y167133D01*
X160862Y167133D01*
X162070Y165924D01*
X162075Y165851D01*
X162088Y165813D01*
X162093Y165772D01*
X162136Y165662D01*
X162173Y165549D01*
X162195Y165514D01*
X162210Y165477D01*
X162279Y165381D01*
X162343Y165280D01*
X162373Y165252D01*
X162396Y165219D01*
X162488Y165143D01*
X162575Y165062D01*
X162610Y165042D01*
X162641Y165017D01*
X162749Y164966D01*
X162853Y164908D01*
X162893Y164898D01*
X162929Y164881D01*
X163046Y164859D01*
X163161Y164829D01*
X163221Y164825D01*
X163241Y164821D01*
X163262Y164823D01*
X163322Y164819D01*
X167386Y164819D01*
X167504Y164834D01*
G37*
G36*
X200992Y94930D02*
X200992Y94930D01*
X201111Y94934D01*
X201150Y94945D01*
X201190Y94949D01*
X201303Y94989D01*
X201417Y95022D01*
X201451Y95043D01*
X201490Y95056D01*
X201588Y95123D01*
X201691Y95184D01*
X201736Y95224D01*
X201753Y95235D01*
X201766Y95250D01*
X201811Y95290D01*
X203470Y96949D01*
X210278Y96949D01*
X210376Y96961D01*
X210475Y96964D01*
X210533Y96981D01*
X210593Y96989D01*
X210685Y97025D01*
X210781Y97053D01*
X210833Y97083D01*
X210889Y97106D01*
X210969Y97164D01*
X211054Y97214D01*
X211130Y97280D01*
X211146Y97292D01*
X211154Y97302D01*
X211175Y97320D01*
X215528Y101673D01*
X215588Y101751D01*
X215656Y101823D01*
X215685Y101876D01*
X215722Y101924D01*
X215762Y102015D01*
X215810Y102102D01*
X215825Y102160D01*
X215849Y102216D01*
X215864Y102314D01*
X215889Y102410D01*
X215895Y102510D01*
X215899Y102530D01*
X215897Y102542D01*
X215899Y102570D01*
X215899Y116920D01*
X215884Y117038D01*
X215877Y117157D01*
X215864Y117195D01*
X215859Y117236D01*
X215816Y117346D01*
X215779Y117459D01*
X215757Y117494D01*
X215742Y117531D01*
X215673Y117627D01*
X215609Y117728D01*
X215579Y117756D01*
X215556Y117789D01*
X215464Y117864D01*
X215377Y117946D01*
X215342Y117966D01*
X215311Y117991D01*
X215203Y118042D01*
X215099Y118100D01*
X215059Y118110D01*
X215023Y118127D01*
X214906Y118149D01*
X214791Y118179D01*
X214731Y118183D01*
X214711Y118187D01*
X214690Y118185D01*
X214630Y118189D01*
X212771Y118189D01*
X212640Y118173D01*
X212508Y118162D01*
X212483Y118153D01*
X212456Y118149D01*
X212333Y118101D01*
X212208Y118057D01*
X212185Y118042D01*
X212160Y118032D01*
X212053Y117955D01*
X211943Y117881D01*
X211925Y117861D01*
X211903Y117846D01*
X211818Y117744D01*
X211730Y117645D01*
X211717Y117621D01*
X211700Y117601D01*
X211644Y117481D01*
X211582Y117364D01*
X211576Y117337D01*
X211564Y117313D01*
X211540Y117183D01*
X211509Y117054D01*
X211510Y117027D01*
X211505Y117001D01*
X211513Y116869D01*
X211515Y116736D01*
X211523Y116710D01*
X211524Y116683D01*
X211565Y116557D01*
X211601Y116430D01*
X211618Y116395D01*
X211622Y116381D01*
X211634Y116362D01*
X211672Y116285D01*
X212029Y115668D01*
X212237Y114892D01*
X212237Y113499D01*
X203176Y113499D01*
X203058Y113484D01*
X202939Y113477D01*
X202932Y113475D01*
X202876Y113489D01*
X202816Y113493D01*
X202796Y113497D01*
X202776Y113495D01*
X202716Y113499D01*
X193655Y113499D01*
X193655Y114892D01*
X193863Y115668D01*
X194220Y116285D01*
X194271Y116407D01*
X194328Y116527D01*
X194333Y116554D01*
X194343Y116579D01*
X194363Y116710D01*
X194387Y116840D01*
X194386Y116866D01*
X194390Y116893D01*
X194376Y117025D01*
X194368Y117157D01*
X194359Y117183D01*
X194357Y117209D01*
X194310Y117334D01*
X194270Y117459D01*
X194255Y117482D01*
X194246Y117508D01*
X194171Y117616D01*
X194099Y117728D01*
X194080Y117747D01*
X194064Y117769D01*
X193964Y117855D01*
X193868Y117946D01*
X193844Y117959D01*
X193824Y117977D01*
X193705Y118036D01*
X193589Y118100D01*
X193563Y118106D01*
X193539Y118118D01*
X193409Y118146D01*
X193281Y118179D01*
X193243Y118181D01*
X193228Y118185D01*
X193206Y118184D01*
X193121Y118189D01*
X191222Y118189D01*
X191124Y118177D01*
X191025Y118174D01*
X190966Y118157D01*
X190906Y118149D01*
X190814Y118113D01*
X190719Y118085D01*
X190667Y118055D01*
X190611Y118032D01*
X190531Y117974D01*
X190445Y117924D01*
X190370Y117858D01*
X190353Y117846D01*
X190345Y117836D01*
X190324Y117817D01*
X189854Y117347D01*
X186309Y117347D01*
X186191Y117332D01*
X186072Y117325D01*
X186034Y117312D01*
X185993Y117307D01*
X185883Y117264D01*
X185770Y117227D01*
X185735Y117205D01*
X185698Y117190D01*
X185602Y117121D01*
X185501Y117057D01*
X185473Y117027D01*
X185440Y117004D01*
X185364Y116912D01*
X185283Y116825D01*
X185263Y116790D01*
X185238Y116759D01*
X185187Y116651D01*
X185129Y116547D01*
X185119Y116507D01*
X185102Y116471D01*
X185080Y116354D01*
X185050Y116239D01*
X185046Y116179D01*
X185042Y116159D01*
X185044Y116138D01*
X185040Y116078D01*
X185040Y106941D01*
X185057Y106803D01*
X185070Y106664D01*
X185077Y106645D01*
X185080Y106625D01*
X185131Y106496D01*
X185178Y106365D01*
X185189Y106348D01*
X185197Y106330D01*
X185278Y106217D01*
X185356Y106102D01*
X185372Y106089D01*
X185383Y106072D01*
X185491Y105983D01*
X185595Y105892D01*
X185613Y105882D01*
X185628Y105869D01*
X185754Y105810D01*
X185878Y105747D01*
X185898Y105742D01*
X185916Y105734D01*
X186052Y105708D01*
X186188Y105677D01*
X186209Y105678D01*
X186228Y105674D01*
X186367Y105683D01*
X186506Y105687D01*
X186526Y105693D01*
X186546Y105694D01*
X186678Y105737D01*
X186812Y105775D01*
X186829Y105786D01*
X186848Y105792D01*
X186966Y105866D01*
X187086Y105937D01*
X187107Y105955D01*
X187117Y105962D01*
X187131Y105977D01*
X187207Y106043D01*
X187336Y106173D01*
X191124Y106173D01*
X193803Y103494D01*
X193803Y101505D01*
X193815Y101407D01*
X193818Y101308D01*
X193835Y101250D01*
X193843Y101190D01*
X193879Y101098D01*
X193907Y101003D01*
X193937Y100950D01*
X193939Y100947D01*
X193939Y98218D01*
X193954Y98100D01*
X193961Y97981D01*
X193974Y97943D01*
X193979Y97902D01*
X194022Y97792D01*
X194059Y97679D01*
X194081Y97644D01*
X194096Y97607D01*
X194165Y97511D01*
X194229Y97410D01*
X194259Y97382D01*
X194282Y97349D01*
X194374Y97273D01*
X194461Y97192D01*
X194496Y97172D01*
X194527Y97147D01*
X194635Y97096D01*
X194739Y97038D01*
X194779Y97028D01*
X194815Y97011D01*
X194932Y96989D01*
X195047Y96959D01*
X195107Y96955D01*
X195127Y96951D01*
X195148Y96953D01*
X195208Y96949D01*
X198358Y96949D01*
X200016Y95290D01*
X200111Y95217D01*
X200200Y95138D01*
X200236Y95120D01*
X200268Y95095D01*
X200377Y95048D01*
X200483Y94994D01*
X200522Y94985D01*
X200560Y94969D01*
X200677Y94950D01*
X200793Y94924D01*
X200834Y94925D01*
X200874Y94919D01*
X200992Y94930D01*
G37*
G36*
X166467Y75175D02*
X166467Y75175D01*
X166586Y75179D01*
X166625Y75190D01*
X166665Y75194D01*
X166778Y75234D01*
X166892Y75267D01*
X166926Y75288D01*
X166965Y75302D01*
X167063Y75369D01*
X167166Y75429D01*
X167211Y75469D01*
X167228Y75480D01*
X167241Y75495D01*
X167286Y75535D01*
X173364Y81612D01*
X173424Y81691D01*
X173492Y81763D01*
X173521Y81816D01*
X173558Y81864D01*
X173598Y81955D01*
X173646Y82041D01*
X173661Y82100D01*
X173685Y82155D01*
X173700Y82253D01*
X173725Y82349D01*
X173731Y82449D01*
X173735Y82470D01*
X173733Y82482D01*
X173735Y82510D01*
X173735Y87242D01*
X173718Y87380D01*
X173705Y87519D01*
X173698Y87538D01*
X173695Y87558D01*
X173644Y87687D01*
X173597Y87818D01*
X173586Y87835D01*
X173578Y87853D01*
X173497Y87966D01*
X173419Y88081D01*
X173403Y88094D01*
X173392Y88111D01*
X173284Y88200D01*
X173180Y88291D01*
X173162Y88301D01*
X173147Y88314D01*
X173021Y88373D01*
X172897Y88436D01*
X172877Y88441D01*
X172859Y88449D01*
X172722Y88475D01*
X172587Y88506D01*
X172566Y88505D01*
X172547Y88509D01*
X172408Y88500D01*
X172269Y88496D01*
X172249Y88490D01*
X172229Y88489D01*
X172097Y88446D01*
X171963Y88408D01*
X171946Y88397D01*
X171927Y88391D01*
X171809Y88317D01*
X171689Y88246D01*
X171668Y88228D01*
X171658Y88221D01*
X171644Y88206D01*
X171569Y88140D01*
X170804Y87375D01*
X167016Y87375D01*
X165998Y88394D01*
X165919Y88454D01*
X165847Y88522D01*
X165794Y88551D01*
X165746Y88588D01*
X165655Y88628D01*
X165569Y88676D01*
X165510Y88691D01*
X165455Y88715D01*
X165357Y88730D01*
X165261Y88755D01*
X165161Y88761D01*
X165140Y88765D01*
X165128Y88763D01*
X165100Y88765D01*
X142473Y88765D01*
X142375Y88753D01*
X142276Y88750D01*
X142217Y88733D01*
X142157Y88725D01*
X142065Y88689D01*
X141970Y88661D01*
X141918Y88631D01*
X141862Y88608D01*
X141782Y88550D01*
X141696Y88500D01*
X141621Y88434D01*
X141604Y88422D01*
X141596Y88412D01*
X141575Y88394D01*
X141463Y88281D01*
X136548Y88281D01*
X136430Y88266D01*
X136311Y88259D01*
X136273Y88246D01*
X136232Y88241D01*
X136122Y88198D01*
X136009Y88161D01*
X135974Y88139D01*
X135937Y88124D01*
X135841Y88055D01*
X135740Y87991D01*
X135712Y87961D01*
X135679Y87938D01*
X135603Y87846D01*
X135522Y87759D01*
X135502Y87724D01*
X135477Y87693D01*
X135426Y87585D01*
X135368Y87481D01*
X135358Y87441D01*
X135341Y87405D01*
X135319Y87288D01*
X135289Y87173D01*
X135285Y87113D01*
X135281Y87093D01*
X135283Y87072D01*
X135279Y87012D01*
X135279Y86222D01*
X135268Y86211D01*
X135207Y86133D01*
X135139Y86061D01*
X135110Y86008D01*
X135073Y85960D01*
X135034Y85869D01*
X134986Y85782D01*
X134971Y85724D01*
X134947Y85668D01*
X134931Y85570D01*
X134906Y85474D01*
X134901Y85388D01*
X134899Y85376D01*
X134899Y85369D01*
X134897Y85354D01*
X134898Y85342D01*
X134896Y85314D01*
X134896Y85155D01*
X134909Y85057D01*
X134912Y84958D01*
X134928Y84900D01*
X134936Y84840D01*
X134973Y84748D01*
X135000Y84653D01*
X135031Y84600D01*
X135053Y84544D01*
X135111Y84464D01*
X135162Y84379D01*
X135228Y84303D01*
X135240Y84287D01*
X135249Y84279D01*
X135268Y84258D01*
X143089Y76436D01*
X143168Y76376D01*
X143240Y76308D01*
X143293Y76279D01*
X143341Y76242D01*
X143432Y76202D01*
X143518Y76154D01*
X143577Y76139D01*
X143632Y76115D01*
X143730Y76100D01*
X143826Y76075D01*
X143926Y76069D01*
X143947Y76065D01*
X143959Y76067D01*
X143987Y76065D01*
X144416Y76065D01*
X144534Y76080D01*
X144652Y76087D01*
X144691Y76100D01*
X144731Y76105D01*
X144842Y76148D01*
X144955Y76185D01*
X144989Y76207D01*
X145027Y76222D01*
X145123Y76291D01*
X145224Y76355D01*
X145251Y76385D01*
X145284Y76408D01*
X145360Y76500D01*
X145442Y76587D01*
X145461Y76622D01*
X145487Y76653D01*
X145538Y76761D01*
X145595Y76865D01*
X145605Y76905D01*
X145622Y76941D01*
X145645Y77058D01*
X145675Y77173D01*
X145678Y77233D01*
X145682Y77253D01*
X145681Y77274D01*
X145685Y77334D01*
X145685Y79214D01*
X147020Y80549D01*
X157907Y80549D01*
X159242Y79214D01*
X159242Y77842D01*
X159257Y77724D01*
X159265Y77605D01*
X159277Y77567D01*
X159282Y77526D01*
X159326Y77416D01*
X159363Y77303D01*
X159384Y77268D01*
X159399Y77231D01*
X159469Y77135D01*
X159533Y77034D01*
X159562Y77006D01*
X159586Y76973D01*
X159678Y76897D01*
X159764Y76816D01*
X159800Y76796D01*
X159831Y76771D01*
X159939Y76720D01*
X160043Y76662D01*
X160082Y76652D01*
X160119Y76635D01*
X160235Y76613D01*
X160351Y76583D01*
X160411Y76579D01*
X160431Y76575D01*
X160451Y76577D01*
X160511Y76573D01*
X164454Y76573D01*
X165491Y75535D01*
X165586Y75462D01*
X165675Y75384D01*
X165711Y75365D01*
X165743Y75340D01*
X165852Y75293D01*
X165958Y75239D01*
X165997Y75230D01*
X166035Y75214D01*
X166152Y75195D01*
X166268Y75169D01*
X166309Y75171D01*
X166349Y75164D01*
X166467Y75175D01*
G37*
G36*
X144644Y179564D02*
X144644Y179564D01*
X144763Y179571D01*
X144801Y179584D01*
X144842Y179589D01*
X144952Y179632D01*
X145065Y179669D01*
X145100Y179691D01*
X145137Y179706D01*
X145233Y179775D01*
X145334Y179839D01*
X145362Y179869D01*
X145395Y179892D01*
X145471Y179984D01*
X145552Y180071D01*
X145572Y180106D01*
X145597Y180137D01*
X145648Y180245D01*
X145706Y180349D01*
X145716Y180389D01*
X145733Y180425D01*
X145755Y180542D01*
X145785Y180657D01*
X145789Y180717D01*
X145793Y180737D01*
X145791Y180758D01*
X145795Y180818D01*
X145795Y215512D01*
X145783Y215610D01*
X145780Y215709D01*
X145763Y215768D01*
X145755Y215828D01*
X145719Y215920D01*
X145691Y216015D01*
X145661Y216067D01*
X145638Y216123D01*
X145580Y216203D01*
X145530Y216289D01*
X145464Y216364D01*
X145452Y216381D01*
X145442Y216389D01*
X145424Y216410D01*
X144652Y217181D01*
X144652Y218722D01*
X144637Y218840D01*
X144630Y218959D01*
X144617Y218997D01*
X144612Y219038D01*
X144569Y219148D01*
X144532Y219261D01*
X144510Y219296D01*
X144495Y219333D01*
X144426Y219429D01*
X144362Y219530D01*
X144332Y219558D01*
X144309Y219591D01*
X144217Y219667D01*
X144130Y219748D01*
X144095Y219768D01*
X144064Y219793D01*
X143956Y219844D01*
X143852Y219902D01*
X143812Y219912D01*
X143776Y219929D01*
X143659Y219951D01*
X143544Y219981D01*
X143484Y219985D01*
X143464Y219989D01*
X143443Y219987D01*
X143383Y219991D01*
X138604Y219991D01*
X138486Y219976D01*
X138367Y219969D01*
X138329Y219956D01*
X138288Y219951D01*
X138178Y219908D01*
X138065Y219871D01*
X138030Y219849D01*
X137993Y219834D01*
X137897Y219765D01*
X137796Y219701D01*
X137768Y219671D01*
X137735Y219648D01*
X137659Y219556D01*
X137578Y219469D01*
X137558Y219434D01*
X137533Y219403D01*
X137482Y219295D01*
X137424Y219191D01*
X137414Y219151D01*
X137397Y219115D01*
X137375Y218998D01*
X137345Y218883D01*
X137341Y218823D01*
X137337Y218803D01*
X137339Y218782D01*
X137335Y218722D01*
X137335Y189228D01*
X137347Y189129D01*
X137350Y189030D01*
X137367Y188972D01*
X137375Y188912D01*
X137411Y188820D01*
X137439Y188725D01*
X137469Y188673D01*
X137492Y188616D01*
X137550Y188536D01*
X137600Y188451D01*
X137666Y188375D01*
X137678Y188359D01*
X137688Y188351D01*
X137706Y188330D01*
X137819Y188218D01*
X137819Y180818D01*
X137834Y180700D01*
X137841Y180581D01*
X137854Y180543D01*
X137859Y180502D01*
X137902Y180392D01*
X137939Y180279D01*
X137961Y180244D01*
X137976Y180207D01*
X138045Y180111D01*
X138109Y180010D01*
X138139Y179982D01*
X138162Y179949D01*
X138254Y179873D01*
X138341Y179792D01*
X138376Y179772D01*
X138407Y179747D01*
X138515Y179696D01*
X138619Y179638D01*
X138659Y179628D01*
X138695Y179611D01*
X138812Y179589D01*
X138927Y179559D01*
X138987Y179555D01*
X139007Y179551D01*
X139028Y179553D01*
X139088Y179549D01*
X144526Y179549D01*
X144644Y179564D01*
G37*
G36*
X130873Y2812D02*
X130873Y2812D01*
X131011Y2825D01*
X131030Y2832D01*
X131050Y2835D01*
X131180Y2886D01*
X131310Y2933D01*
X131327Y2944D01*
X131346Y2952D01*
X131458Y3033D01*
X131574Y3111D01*
X131587Y3127D01*
X131603Y3138D01*
X131692Y3246D01*
X131784Y3350D01*
X131793Y3368D01*
X131806Y3383D01*
X131865Y3509D01*
X131929Y3633D01*
X131933Y3653D01*
X131942Y3671D01*
X131968Y3808D01*
X131998Y3943D01*
X131998Y3964D01*
X132001Y3983D01*
X131993Y4122D01*
X131989Y4261D01*
X131983Y4281D01*
X131982Y4301D01*
X131939Y4433D01*
X131900Y4567D01*
X131890Y4584D01*
X131884Y4603D01*
X131809Y4721D01*
X131739Y4841D01*
X131720Y4862D01*
X131714Y4872D01*
X131699Y4886D01*
X131632Y4961D01*
X130225Y6369D01*
X128523Y10477D01*
X128523Y14923D01*
X130225Y19031D01*
X133369Y22175D01*
X135397Y23015D01*
X135440Y23040D01*
X135487Y23057D01*
X135577Y23118D01*
X135673Y23173D01*
X135709Y23207D01*
X135750Y23235D01*
X135822Y23317D01*
X135901Y23394D01*
X135927Y23436D01*
X135960Y23474D01*
X136010Y23571D01*
X136068Y23665D01*
X136082Y23712D01*
X136105Y23757D01*
X136129Y23864D01*
X136161Y23969D01*
X136164Y24019D01*
X136174Y24067D01*
X136171Y24177D01*
X136176Y24287D01*
X136166Y24335D01*
X136165Y24385D01*
X136134Y24490D01*
X136112Y24598D01*
X136090Y24643D01*
X136076Y24690D01*
X136021Y24785D01*
X135972Y24884D01*
X135940Y24922D01*
X135915Y24964D01*
X135808Y25085D01*
X128500Y32394D01*
X128422Y32454D01*
X128350Y32522D01*
X128297Y32551D01*
X128249Y32588D01*
X128158Y32628D01*
X128071Y32676D01*
X128013Y32691D01*
X127957Y32715D01*
X127859Y32730D01*
X127763Y32755D01*
X127663Y32761D01*
X127643Y32765D01*
X127631Y32763D01*
X127603Y32765D01*
X117736Y32765D01*
X117598Y32748D01*
X117459Y32735D01*
X117440Y32728D01*
X117420Y32725D01*
X117291Y32674D01*
X117160Y32627D01*
X117143Y32616D01*
X117125Y32608D01*
X117012Y32527D01*
X116897Y32449D01*
X116884Y32433D01*
X116867Y32422D01*
X116778Y32314D01*
X116687Y32210D01*
X116677Y32192D01*
X116664Y32177D01*
X116605Y32051D01*
X116542Y31927D01*
X116537Y31907D01*
X116529Y31889D01*
X116503Y31753D01*
X116472Y31617D01*
X116473Y31596D01*
X116469Y31577D01*
X116478Y31438D01*
X116482Y31299D01*
X116488Y31279D01*
X116489Y31259D01*
X116532Y31127D01*
X116570Y30993D01*
X116581Y30976D01*
X116587Y30957D01*
X116661Y30839D01*
X116732Y30719D01*
X116750Y30698D01*
X116757Y30688D01*
X116772Y30674D01*
X116838Y30599D01*
X118873Y28564D01*
X118873Y24770D01*
X118861Y24756D01*
X118825Y24722D01*
X118764Y24631D01*
X118697Y24544D01*
X118677Y24498D01*
X118650Y24457D01*
X118614Y24353D01*
X118571Y24252D01*
X118563Y24203D01*
X118547Y24156D01*
X118538Y24046D01*
X118521Y23938D01*
X118525Y23889D01*
X118522Y23839D01*
X118540Y23731D01*
X118551Y23621D01*
X118567Y23575D01*
X118576Y23526D01*
X118621Y23426D01*
X118658Y23322D01*
X118686Y23281D01*
X118707Y23236D01*
X118775Y23150D01*
X118837Y23059D01*
X118874Y23026D01*
X118905Y22987D01*
X118993Y22921D01*
X119075Y22848D01*
X119119Y22826D01*
X119159Y22796D01*
X119304Y22725D01*
X120631Y22175D01*
X123775Y19031D01*
X125477Y14923D01*
X125477Y10477D01*
X123775Y6369D01*
X122368Y4961D01*
X122282Y4852D01*
X122194Y4745D01*
X122185Y4726D01*
X122173Y4710D01*
X122117Y4582D01*
X122058Y4457D01*
X122055Y4437D01*
X122046Y4418D01*
X122025Y4280D01*
X121999Y4144D01*
X122000Y4124D01*
X121997Y4104D01*
X122010Y3965D01*
X122018Y3827D01*
X122025Y3808D01*
X122026Y3788D01*
X122074Y3656D01*
X122116Y3525D01*
X122127Y3507D01*
X122134Y3488D01*
X122212Y3373D01*
X122286Y3256D01*
X122301Y3242D01*
X122313Y3225D01*
X122417Y3133D01*
X122518Y3038D01*
X122536Y3028D01*
X122551Y3015D01*
X122675Y2951D01*
X122797Y2884D01*
X122816Y2879D01*
X122834Y2870D01*
X122970Y2840D01*
X123105Y2805D01*
X123133Y2803D01*
X123145Y2800D01*
X123165Y2801D01*
X123265Y2795D01*
X130735Y2795D01*
X130873Y2812D01*
G37*
G36*
X106365Y79007D02*
X106365Y79007D01*
X106464Y79010D01*
X106522Y79027D01*
X106582Y79035D01*
X106674Y79071D01*
X106769Y79099D01*
X106822Y79129D01*
X106878Y79152D01*
X106958Y79210D01*
X107043Y79260D01*
X107119Y79326D01*
X107135Y79338D01*
X107143Y79348D01*
X107164Y79366D01*
X111872Y84075D01*
X116427Y84075D01*
X116525Y84087D01*
X116624Y84090D01*
X116682Y84107D01*
X116742Y84115D01*
X116834Y84151D01*
X116929Y84179D01*
X116982Y84209D01*
X117038Y84232D01*
X117118Y84290D01*
X117203Y84340D01*
X117279Y84406D01*
X117295Y84418D01*
X117303Y84428D01*
X117324Y84446D01*
X118350Y85472D01*
X118410Y85550D01*
X118478Y85622D01*
X118507Y85675D01*
X118544Y85723D01*
X118584Y85814D01*
X118632Y85901D01*
X118647Y85959D01*
X118671Y86015D01*
X118686Y86113D01*
X118711Y86209D01*
X118717Y86309D01*
X118721Y86329D01*
X118719Y86341D01*
X118721Y86369D01*
X118721Y87012D01*
X118706Y87130D01*
X118699Y87249D01*
X118686Y87287D01*
X118681Y87328D01*
X118638Y87438D01*
X118601Y87551D01*
X118579Y87586D01*
X118564Y87623D01*
X118495Y87719D01*
X118431Y87820D01*
X118401Y87848D01*
X118378Y87881D01*
X118286Y87957D01*
X118199Y88038D01*
X118164Y88058D01*
X118133Y88083D01*
X118025Y88134D01*
X117921Y88192D01*
X117881Y88202D01*
X117845Y88219D01*
X117728Y88241D01*
X117613Y88271D01*
X117553Y88275D01*
X117533Y88279D01*
X117512Y88277D01*
X117452Y88281D01*
X112537Y88281D01*
X111196Y89622D01*
X111196Y93795D01*
X111201Y93824D01*
X111227Y93941D01*
X111226Y93981D01*
X111232Y94020D01*
X111221Y94139D01*
X111217Y94259D01*
X111206Y94297D01*
X111202Y94336D01*
X111161Y94449D01*
X111128Y94564D01*
X111108Y94598D01*
X111094Y94636D01*
X111027Y94735D01*
X110966Y94838D01*
X110927Y94882D01*
X110916Y94899D01*
X110907Y94906D01*
X110905Y94910D01*
X110896Y94918D01*
X110859Y94959D01*
X110849Y94970D01*
X110755Y95042D01*
X110667Y95120D01*
X110630Y95139D01*
X110597Y95164D01*
X110489Y95211D01*
X110383Y95265D01*
X110343Y95274D01*
X110305Y95290D01*
X110188Y95308D01*
X110073Y95334D01*
X110032Y95333D01*
X109991Y95339D01*
X109874Y95328D01*
X109755Y95325D01*
X109716Y95313D01*
X109674Y95309D01*
X109563Y95269D01*
X109450Y95236D01*
X109414Y95215D01*
X109375Y95201D01*
X109278Y95135D01*
X109176Y95075D01*
X109129Y95034D01*
X109112Y95022D01*
X109099Y95007D01*
X109055Y94968D01*
X108574Y94487D01*
X105330Y94487D01*
X105212Y94472D01*
X105093Y94465D01*
X105055Y94452D01*
X105014Y94447D01*
X104904Y94404D01*
X104791Y94367D01*
X104756Y94345D01*
X104719Y94330D01*
X104623Y94261D01*
X104522Y94197D01*
X104494Y94167D01*
X104461Y94144D01*
X104385Y94052D01*
X104304Y93965D01*
X104284Y93930D01*
X104259Y93899D01*
X104208Y93791D01*
X104150Y93687D01*
X104140Y93647D01*
X104123Y93611D01*
X104101Y93494D01*
X104071Y93379D01*
X104067Y93319D01*
X104063Y93299D01*
X104065Y93278D01*
X104061Y93218D01*
X104061Y92996D01*
X97750Y92996D01*
X97632Y92981D01*
X97513Y92973D01*
X97475Y92961D01*
X97435Y92956D01*
X97324Y92912D01*
X97211Y92875D01*
X97177Y92854D01*
X97139Y92839D01*
X97043Y92769D01*
X96942Y92705D01*
X96914Y92676D01*
X96882Y92652D01*
X96806Y92560D01*
X96724Y92474D01*
X96705Y92438D01*
X96679Y92407D01*
X96628Y92299D01*
X96571Y92195D01*
X96561Y92156D01*
X96543Y92119D01*
X96521Y92003D01*
X96491Y91887D01*
X96487Y91827D01*
X96484Y91807D01*
X96485Y91787D01*
X96481Y91727D01*
X96481Y90536D01*
X95290Y90536D01*
X95172Y90521D01*
X95053Y90513D01*
X95015Y90501D01*
X94974Y90496D01*
X94864Y90452D01*
X94751Y90415D01*
X94716Y90394D01*
X94679Y90379D01*
X94582Y90309D01*
X94482Y90245D01*
X94454Y90216D01*
X94421Y90192D01*
X94345Y90100D01*
X94264Y90013D01*
X94244Y89978D01*
X94219Y89947D01*
X94168Y89839D01*
X94110Y89735D01*
X94100Y89696D01*
X94083Y89659D01*
X94061Y89542D01*
X94031Y89427D01*
X94027Y89367D01*
X94023Y89347D01*
X94025Y89326D01*
X94021Y89266D01*
X94021Y82238D01*
X93992Y82217D01*
X93876Y82139D01*
X93863Y82124D01*
X93847Y82112D01*
X93758Y82005D01*
X93666Y81901D01*
X93657Y81883D01*
X93644Y81867D01*
X93585Y81741D01*
X93521Y81617D01*
X93517Y81598D01*
X93508Y81579D01*
X93482Y81443D01*
X93452Y81307D01*
X93452Y81287D01*
X93449Y81267D01*
X93457Y81129D01*
X93461Y80989D01*
X93467Y80970D01*
X93468Y80950D01*
X93511Y80818D01*
X93550Y80684D01*
X93560Y80666D01*
X93566Y80647D01*
X93641Y80530D01*
X93711Y80410D01*
X93730Y80389D01*
X93737Y80378D01*
X93751Y80364D01*
X93818Y80289D01*
X94740Y79366D01*
X94818Y79306D01*
X94891Y79238D01*
X94944Y79209D01*
X94992Y79172D01*
X95082Y79132D01*
X95169Y79084D01*
X95228Y79069D01*
X95283Y79045D01*
X95381Y79030D01*
X95477Y79005D01*
X95577Y78999D01*
X95598Y78995D01*
X95610Y78997D01*
X95638Y78995D01*
X106267Y78995D01*
X106365Y79007D01*
G37*
G36*
X105095Y68847D02*
X105095Y68847D01*
X105194Y68850D01*
X105252Y68867D01*
X105312Y68875D01*
X105404Y68911D01*
X105499Y68939D01*
X105552Y68969D01*
X105608Y68992D01*
X105688Y69050D01*
X105773Y69100D01*
X105849Y69166D01*
X105865Y69178D01*
X105873Y69188D01*
X105894Y69206D01*
X107926Y71239D01*
X108011Y71348D01*
X108100Y71455D01*
X108109Y71474D01*
X108121Y71490D01*
X108177Y71618D01*
X108236Y71743D01*
X108239Y71763D01*
X108247Y71782D01*
X108269Y71920D01*
X108295Y72056D01*
X108294Y72076D01*
X108297Y72096D01*
X108284Y72235D01*
X108276Y72373D01*
X108269Y72392D01*
X108268Y72412D01*
X108220Y72544D01*
X108178Y72675D01*
X108167Y72693D01*
X108160Y72712D01*
X108082Y72827D01*
X108007Y72944D01*
X107993Y72958D01*
X107981Y72975D01*
X107877Y73067D01*
X107776Y73162D01*
X107758Y73172D01*
X107743Y73185D01*
X107619Y73249D01*
X107497Y73316D01*
X107478Y73321D01*
X107460Y73330D01*
X107324Y73360D01*
X107189Y73395D01*
X107161Y73397D01*
X107149Y73400D01*
X107129Y73399D01*
X107029Y73405D01*
X95638Y73405D01*
X95540Y73393D01*
X95441Y73390D01*
X95382Y73373D01*
X95322Y73365D01*
X95230Y73329D01*
X95135Y73301D01*
X95083Y73271D01*
X95027Y73248D01*
X94947Y73190D01*
X94861Y73140D01*
X94786Y73074D01*
X94769Y73062D01*
X94761Y73052D01*
X94740Y73034D01*
X93334Y71627D01*
X89546Y71627D01*
X88140Y73034D01*
X88061Y73094D01*
X87989Y73162D01*
X87936Y73191D01*
X87888Y73228D01*
X87797Y73268D01*
X87711Y73316D01*
X87652Y73331D01*
X87597Y73355D01*
X87499Y73370D01*
X87403Y73395D01*
X87303Y73401D01*
X87282Y73405D01*
X87270Y73403D01*
X87242Y73405D01*
X86472Y73405D01*
X78993Y80884D01*
X78993Y81949D01*
X78978Y82067D01*
X78971Y82185D01*
X78958Y82224D01*
X78953Y82264D01*
X78910Y82375D01*
X78873Y82488D01*
X78851Y82522D01*
X78836Y82560D01*
X78767Y82656D01*
X78703Y82757D01*
X78673Y82784D01*
X78650Y82817D01*
X78558Y82893D01*
X78471Y82975D01*
X78436Y82994D01*
X78405Y83020D01*
X78297Y83071D01*
X78193Y83128D01*
X78153Y83138D01*
X78117Y83155D01*
X78000Y83178D01*
X77885Y83208D01*
X77825Y83211D01*
X77805Y83215D01*
X77784Y83214D01*
X77724Y83218D01*
X76344Y83218D01*
X76082Y83480D01*
X75972Y83566D01*
X75865Y83654D01*
X75846Y83663D01*
X75830Y83675D01*
X75702Y83731D01*
X75577Y83790D01*
X75557Y83794D01*
X75538Y83802D01*
X75400Y83824D01*
X75264Y83850D01*
X75244Y83848D01*
X75224Y83852D01*
X75085Y83838D01*
X74947Y83830D01*
X74928Y83824D01*
X74908Y83822D01*
X74777Y83775D01*
X74645Y83732D01*
X74627Y83721D01*
X74608Y83714D01*
X74494Y83636D01*
X74376Y83562D01*
X74362Y83547D01*
X74345Y83536D01*
X74253Y83432D01*
X74158Y83330D01*
X74148Y83312D01*
X74135Y83297D01*
X74072Y83173D01*
X74004Y83052D01*
X73999Y83032D01*
X73990Y83014D01*
X73960Y82877D01*
X73925Y82744D01*
X73923Y82716D01*
X73920Y82704D01*
X73921Y82683D01*
X73915Y82583D01*
X73915Y75343D01*
X73927Y75245D01*
X73930Y75146D01*
X73947Y75088D01*
X73955Y75028D01*
X73991Y74936D01*
X74019Y74841D01*
X74049Y74788D01*
X74072Y74732D01*
X74130Y74652D01*
X74180Y74567D01*
X74246Y74491D01*
X74258Y74475D01*
X74268Y74467D01*
X74286Y74446D01*
X79526Y69206D01*
X79604Y69146D01*
X79676Y69078D01*
X79729Y69049D01*
X79777Y69012D01*
X79868Y68972D01*
X79955Y68924D01*
X80013Y68909D01*
X80069Y68885D01*
X80167Y68870D01*
X80263Y68845D01*
X80363Y68839D01*
X80383Y68835D01*
X80395Y68837D01*
X80423Y68835D01*
X104997Y68835D01*
X105095Y68847D01*
G37*
G36*
X138445Y134371D02*
X138445Y134371D01*
X138461Y134369D01*
X138512Y134390D01*
X138565Y134406D01*
X138576Y134418D01*
X138590Y134424D01*
X138622Y134470D01*
X138659Y134511D01*
X138661Y134527D01*
X138670Y134540D01*
X138683Y134620D01*
X138683Y144780D01*
X138679Y144795D01*
X138681Y144811D01*
X138660Y144862D01*
X138644Y144915D01*
X138632Y144926D01*
X138626Y144940D01*
X138580Y144972D01*
X138539Y145009D01*
X138523Y145011D01*
X138510Y145020D01*
X138430Y145033D01*
X137386Y145033D01*
X137365Y145027D01*
X131731Y145027D01*
X131694Y145033D01*
X129645Y145033D01*
X125983Y148695D01*
X125983Y157480D01*
X125979Y157495D01*
X125981Y157511D01*
X125960Y157562D01*
X125944Y157615D01*
X125932Y157626D01*
X125926Y157640D01*
X125880Y157672D01*
X125839Y157709D01*
X125823Y157711D01*
X125810Y157720D01*
X125730Y157733D01*
X123190Y157733D01*
X123175Y157729D01*
X123159Y157731D01*
X123108Y157710D01*
X123055Y157694D01*
X123044Y157682D01*
X123030Y157676D01*
X122998Y157630D01*
X122961Y157589D01*
X122959Y157573D01*
X122950Y157560D01*
X122937Y157480D01*
X122937Y146050D01*
X122953Y145994D01*
X122963Y145937D01*
X122974Y145923D01*
X122976Y145915D01*
X122986Y145906D01*
X123011Y145871D01*
X125477Y143405D01*
X125477Y134620D01*
X125481Y134605D01*
X125479Y134589D01*
X125500Y134538D01*
X125516Y134485D01*
X125528Y134474D01*
X125534Y134460D01*
X125580Y134428D01*
X125621Y134391D01*
X125637Y134389D01*
X125650Y134380D01*
X125730Y134367D01*
X138430Y134367D01*
X138445Y134371D01*
G37*
G36*
X133365Y106431D02*
X133365Y106431D01*
X133381Y106429D01*
X133432Y106450D01*
X133485Y106466D01*
X133496Y106478D01*
X133510Y106484D01*
X133542Y106530D01*
X133579Y106571D01*
X133581Y106587D01*
X133590Y106600D01*
X133603Y106680D01*
X133603Y111655D01*
X138609Y116661D01*
X138637Y116712D01*
X138670Y116760D01*
X138673Y116777D01*
X138677Y116784D01*
X138676Y116797D01*
X138683Y116840D01*
X138683Y129540D01*
X138679Y129555D01*
X138681Y129571D01*
X138660Y129622D01*
X138644Y129675D01*
X138632Y129686D01*
X138626Y129700D01*
X138580Y129732D01*
X138539Y129769D01*
X138523Y129771D01*
X138510Y129780D01*
X138430Y129793D01*
X128270Y129793D01*
X128255Y129789D01*
X128239Y129791D01*
X128188Y129770D01*
X128135Y129754D01*
X128124Y129742D01*
X128110Y129736D01*
X128078Y129690D01*
X128041Y129649D01*
X128039Y129633D01*
X128030Y129620D01*
X128017Y129540D01*
X128017Y119380D01*
X128033Y119324D01*
X128043Y119267D01*
X128054Y119253D01*
X128056Y119245D01*
X128066Y119236D01*
X128091Y119201D01*
X130557Y116735D01*
X130557Y106680D01*
X130561Y106665D01*
X130559Y106649D01*
X130580Y106598D01*
X130596Y106545D01*
X130608Y106534D01*
X130614Y106520D01*
X130660Y106488D01*
X130701Y106451D01*
X130717Y106449D01*
X130730Y106440D01*
X130810Y106427D01*
X133350Y106427D01*
X133365Y106431D01*
G37*
G36*
X120821Y47262D02*
X120821Y47262D01*
X120959Y47275D01*
X120978Y47282D01*
X120998Y47285D01*
X121128Y47336D01*
X121259Y47383D01*
X121275Y47394D01*
X121294Y47402D01*
X121406Y47483D01*
X121522Y47561D01*
X121535Y47577D01*
X121551Y47588D01*
X121640Y47696D01*
X121732Y47800D01*
X121741Y47818D01*
X121754Y47833D01*
X121814Y47959D01*
X121877Y48083D01*
X121881Y48103D01*
X121890Y48121D01*
X121916Y48258D01*
X121946Y48393D01*
X121946Y48414D01*
X121950Y48433D01*
X121941Y48572D01*
X121937Y48711D01*
X121931Y48731D01*
X121930Y48751D01*
X121887Y48883D01*
X121848Y49017D01*
X121838Y49034D01*
X121832Y49053D01*
X121757Y49171D01*
X121687Y49291D01*
X121668Y49312D01*
X121662Y49322D01*
X121647Y49336D01*
X121580Y49411D01*
X120666Y50326D01*
X120666Y52206D01*
X120651Y52324D01*
X120643Y52443D01*
X120631Y52481D01*
X120626Y52522D01*
X120582Y52632D01*
X120545Y52745D01*
X120524Y52780D01*
X120509Y52817D01*
X120439Y52913D01*
X120375Y53014D01*
X120346Y53042D01*
X120322Y53075D01*
X120230Y53151D01*
X120144Y53232D01*
X120108Y53252D01*
X120077Y53277D01*
X119969Y53328D01*
X119865Y53386D01*
X119826Y53396D01*
X119789Y53413D01*
X119673Y53435D01*
X119557Y53465D01*
X119497Y53469D01*
X119477Y53473D01*
X119457Y53471D01*
X119397Y53475D01*
X106656Y53475D01*
X105640Y54492D01*
X105562Y54552D01*
X105490Y54620D01*
X105437Y54649D01*
X105389Y54686D01*
X105298Y54726D01*
X105211Y54774D01*
X105153Y54789D01*
X105097Y54813D01*
X104999Y54828D01*
X104903Y54853D01*
X104803Y54859D01*
X104783Y54863D01*
X104771Y54861D01*
X104743Y54863D01*
X102754Y54863D01*
X100075Y57542D01*
X100075Y61460D01*
X100133Y61583D01*
X100137Y61603D01*
X100145Y61621D01*
X100167Y61759D01*
X100193Y61896D01*
X100192Y61916D01*
X100195Y61936D01*
X100182Y62074D01*
X100173Y62213D01*
X100167Y62232D01*
X100165Y62252D01*
X100118Y62383D01*
X100075Y62515D01*
X100064Y62533D01*
X100058Y62551D01*
X99980Y62666D01*
X99905Y62784D01*
X99890Y62798D01*
X99879Y62815D01*
X99775Y62907D01*
X99673Y63002D01*
X99656Y63012D01*
X99641Y63025D01*
X99517Y63088D01*
X99395Y63156D01*
X99375Y63161D01*
X99357Y63170D01*
X99221Y63200D01*
X99087Y63235D01*
X99059Y63237D01*
X99047Y63240D01*
X99026Y63239D01*
X98926Y63245D01*
X95130Y63245D01*
X94992Y63228D01*
X94853Y63215D01*
X94834Y63208D01*
X94814Y63205D01*
X94685Y63154D01*
X94554Y63107D01*
X94537Y63096D01*
X94519Y63088D01*
X94406Y63007D01*
X94291Y62929D01*
X94278Y62913D01*
X94261Y62902D01*
X94172Y62794D01*
X94081Y62690D01*
X94071Y62672D01*
X94058Y62657D01*
X93999Y62531D01*
X93936Y62407D01*
X93931Y62387D01*
X93923Y62369D01*
X93897Y62233D01*
X93866Y62097D01*
X93867Y62076D01*
X93863Y62057D01*
X93872Y61918D01*
X93876Y61779D01*
X93882Y61759D01*
X93883Y61739D01*
X93926Y61607D01*
X93964Y61473D01*
X93975Y61456D01*
X93981Y61437D01*
X94055Y61319D01*
X94126Y61199D01*
X94144Y61178D01*
X94151Y61168D01*
X94166Y61154D01*
X94232Y61079D01*
X96267Y59044D01*
X96267Y56801D01*
X96279Y56703D01*
X96282Y56604D01*
X96299Y56546D01*
X96307Y56486D01*
X96343Y56394D01*
X96371Y56299D01*
X96401Y56246D01*
X96424Y56190D01*
X96482Y56110D01*
X96532Y56025D01*
X96598Y55949D01*
X96610Y55933D01*
X96620Y55925D01*
X96638Y55904D01*
X104926Y47616D01*
X105004Y47556D01*
X105076Y47488D01*
X105129Y47459D01*
X105177Y47422D01*
X105268Y47382D01*
X105355Y47334D01*
X105413Y47319D01*
X105469Y47295D01*
X105567Y47280D01*
X105663Y47255D01*
X105763Y47249D01*
X105783Y47245D01*
X105795Y47247D01*
X105823Y47245D01*
X120683Y47245D01*
X120821Y47262D01*
G37*
G36*
X160035Y154691D02*
X160035Y154691D01*
X160051Y154689D01*
X160102Y154710D01*
X160155Y154726D01*
X160166Y154738D01*
X160180Y154744D01*
X160212Y154790D01*
X160249Y154831D01*
X160251Y154847D01*
X160260Y154860D01*
X160273Y154940D01*
X160273Y165100D01*
X160269Y165115D01*
X160271Y165131D01*
X160250Y165182D01*
X160234Y165235D01*
X160222Y165246D01*
X160216Y165260D01*
X160170Y165292D01*
X160129Y165329D01*
X160113Y165331D01*
X160100Y165340D01*
X160020Y165353D01*
X148590Y165353D01*
X148534Y165337D01*
X148477Y165327D01*
X148463Y165316D01*
X148455Y165314D01*
X148446Y165304D01*
X148411Y165279D01*
X145945Y162813D01*
X138430Y162813D01*
X138415Y162809D01*
X138399Y162811D01*
X138348Y162790D01*
X138295Y162774D01*
X138284Y162762D01*
X138270Y162756D01*
X138238Y162710D01*
X138201Y162669D01*
X138199Y162653D01*
X138190Y162640D01*
X138177Y162560D01*
X138177Y160020D01*
X138181Y160005D01*
X138179Y159989D01*
X138200Y159938D01*
X138216Y159885D01*
X138228Y159874D01*
X138234Y159860D01*
X138280Y159828D01*
X138321Y159791D01*
X138337Y159789D01*
X138350Y159780D01*
X138430Y159767D01*
X145945Y159767D01*
X149607Y156105D01*
X149607Y154940D01*
X149611Y154925D01*
X149609Y154909D01*
X149630Y154858D01*
X149646Y154805D01*
X149658Y154794D01*
X149664Y154780D01*
X149710Y154748D01*
X149751Y154711D01*
X149767Y154709D01*
X149780Y154700D01*
X149860Y154687D01*
X160020Y154687D01*
X160035Y154691D01*
G37*
G36*
X130825Y181361D02*
X130825Y181361D01*
X130841Y181359D01*
X130892Y181380D01*
X130945Y181396D01*
X130956Y181408D01*
X130970Y181414D01*
X131002Y181460D01*
X131039Y181501D01*
X131041Y181517D01*
X131050Y181530D01*
X131063Y181610D01*
X131063Y194310D01*
X131047Y194366D01*
X131037Y194423D01*
X131026Y194437D01*
X131024Y194445D01*
X131014Y194454D01*
X130989Y194489D01*
X127179Y198299D01*
X127128Y198327D01*
X127080Y198360D01*
X127063Y198363D01*
X127056Y198367D01*
X127043Y198366D01*
X127000Y198373D01*
X123190Y198373D01*
X123175Y198369D01*
X123159Y198371D01*
X123108Y198350D01*
X123055Y198334D01*
X123044Y198322D01*
X123030Y198316D01*
X122998Y198270D01*
X122961Y198229D01*
X122959Y198213D01*
X122950Y198200D01*
X122937Y198120D01*
X122937Y189664D01*
X122941Y189649D01*
X122939Y189633D01*
X122960Y189582D01*
X122976Y189529D01*
X122988Y189518D01*
X122994Y189504D01*
X123040Y189472D01*
X123081Y189435D01*
X123097Y189433D01*
X123110Y189424D01*
X123190Y189411D01*
X125907Y189411D01*
X126267Y189051D01*
X126318Y189023D01*
X126366Y188990D01*
X126383Y188987D01*
X126391Y188983D01*
X126403Y188984D01*
X126446Y188977D01*
X126895Y188977D01*
X128017Y187855D01*
X128017Y181610D01*
X128021Y181595D01*
X128019Y181579D01*
X128040Y181528D01*
X128056Y181475D01*
X128068Y181464D01*
X128074Y181450D01*
X128120Y181418D01*
X128161Y181381D01*
X128177Y181379D01*
X128190Y181370D01*
X128270Y181357D01*
X130810Y181357D01*
X130825Y181361D01*
G37*
%LPC*%
G36*
X20605Y190626D02*
X20605Y190626D01*
X18784Y191380D01*
X17390Y192774D01*
X16636Y194595D01*
X16636Y196565D01*
X17390Y198386D01*
X18784Y199780D01*
X20605Y200534D01*
X22575Y200534D01*
X24396Y199780D01*
X25790Y198386D01*
X26544Y196565D01*
X26544Y194595D01*
X25790Y192774D01*
X24396Y191380D01*
X22575Y190626D01*
X20605Y190626D01*
G37*
%LPD*%
%LPC*%
G36*
X211359Y50926D02*
X211359Y50926D01*
X209538Y51680D01*
X208144Y53074D01*
X207390Y54895D01*
X207390Y56865D01*
X208144Y58686D01*
X209538Y60080D01*
X211359Y60834D01*
X213329Y60834D01*
X215150Y60080D01*
X216544Y58686D01*
X217298Y56865D01*
X217298Y54895D01*
X216544Y53074D01*
X215150Y51680D01*
X213329Y50926D01*
X211359Y50926D01*
G37*
%LPD*%
%LPC*%
G36*
X51815Y15239D02*
X51815Y15239D01*
X51855Y15496D01*
X52436Y17283D01*
X53289Y18957D01*
X54394Y20478D01*
X55722Y21806D01*
X57243Y22911D01*
X58917Y23764D01*
X60704Y24345D01*
X60961Y24385D01*
X60961Y15239D01*
X51815Y15239D01*
G37*
%LPD*%
%LPC*%
G36*
X107919Y126959D02*
X107919Y126959D01*
X107919Y129360D01*
X108126Y130134D01*
X108527Y130827D01*
X108882Y131183D01*
X108955Y131277D01*
X109034Y131366D01*
X109052Y131402D01*
X109077Y131434D01*
X109125Y131543D01*
X109179Y131649D01*
X109187Y131689D01*
X109204Y131726D01*
X109222Y131843D01*
X109248Y131959D01*
X109247Y132000D01*
X109253Y132040D01*
X109242Y132159D01*
X109239Y132277D01*
X109227Y132316D01*
X109224Y132356D01*
X109183Y132469D01*
X109150Y132583D01*
X109130Y132618D01*
X109116Y132656D01*
X109049Y132754D01*
X108989Y132857D01*
X108949Y132902D01*
X108937Y132919D01*
X108922Y132932D01*
X108882Y132978D01*
X108527Y133333D01*
X108126Y134026D01*
X107919Y134800D01*
X107919Y137201D01*
X110237Y137201D01*
X110237Y134620D01*
X110241Y134605D01*
X110239Y134589D01*
X110260Y134538D01*
X110276Y134485D01*
X110288Y134474D01*
X110294Y134460D01*
X110340Y134428D01*
X110381Y134391D01*
X110397Y134389D01*
X110410Y134380D01*
X110490Y134367D01*
X113461Y134367D01*
X113461Y129793D01*
X110490Y129793D01*
X110475Y129789D01*
X110459Y129791D01*
X110408Y129770D01*
X110355Y129754D01*
X110344Y129742D01*
X110330Y129736D01*
X110298Y129690D01*
X110261Y129649D01*
X110259Y129633D01*
X110250Y129620D01*
X110237Y129540D01*
X110237Y126959D01*
X107919Y126959D01*
G37*
%LPD*%
%LPC*%
G36*
X52299Y143499D02*
X52299Y143499D01*
X52299Y147541D01*
X57442Y147541D01*
X58218Y147333D01*
X58913Y146931D01*
X59481Y146363D01*
X59883Y145668D01*
X60091Y144892D01*
X60091Y143499D01*
X52299Y143499D01*
G37*
%LPD*%
%LPC*%
G36*
X41509Y143499D02*
X41509Y143499D01*
X41509Y144892D01*
X41717Y145668D01*
X42119Y146363D01*
X42687Y146931D01*
X43382Y147333D01*
X44158Y147541D01*
X49301Y147541D01*
X49301Y143499D01*
X41509Y143499D01*
G37*
%LPD*%
%LPC*%
G36*
X204445Y110501D02*
X204445Y110501D01*
X212237Y110501D01*
X212237Y109108D01*
X212029Y108332D01*
X211627Y107637D01*
X211059Y107069D01*
X210364Y106667D01*
X209588Y106459D01*
X204445Y106459D01*
X204445Y110501D01*
G37*
%LPD*%
%LPC*%
G36*
X196304Y106459D02*
X196304Y106459D01*
X195528Y106667D01*
X194833Y107069D01*
X194265Y107637D01*
X193863Y108332D01*
X193655Y109108D01*
X193655Y110501D01*
X201447Y110501D01*
X201447Y106459D01*
X196304Y106459D01*
G37*
%LPD*%
%LPC*%
G36*
X99019Y82456D02*
X99019Y82456D01*
X99019Y87997D01*
X104061Y87997D01*
X104061Y85096D01*
X103854Y84323D01*
X103453Y83629D01*
X102887Y83063D01*
X102194Y82663D01*
X101420Y82456D01*
X99019Y82456D01*
G37*
%LPD*%
%LPC*%
G36*
X211659Y66119D02*
X211659Y66119D01*
X211659Y71161D01*
X217201Y71161D01*
X217201Y68760D01*
X216994Y67986D01*
X216593Y67293D01*
X216027Y66727D01*
X215334Y66326D01*
X214560Y66119D01*
X211659Y66119D01*
G37*
%LPD*%
%LPC*%
G36*
X150040Y134589D02*
X150040Y134589D01*
X149266Y134796D01*
X148573Y135197D01*
X148007Y135763D01*
X147606Y136456D01*
X147399Y137230D01*
X147399Y140131D01*
X152441Y140131D01*
X152441Y134589D01*
X150040Y134589D01*
G37*
%LPD*%
%LPC*%
G36*
X110560Y116919D02*
X110560Y116919D01*
X109786Y117126D01*
X109093Y117527D01*
X108527Y118093D01*
X108126Y118786D01*
X107919Y119560D01*
X107919Y121961D01*
X110237Y121961D01*
X110237Y119380D01*
X110241Y119365D01*
X110239Y119349D01*
X110260Y119298D01*
X110276Y119245D01*
X110288Y119234D01*
X110294Y119220D01*
X110340Y119188D01*
X110381Y119151D01*
X110397Y119149D01*
X110410Y119140D01*
X110490Y119127D01*
X113461Y119127D01*
X113461Y116919D01*
X110560Y116919D01*
G37*
%LPD*%
%LPC*%
G36*
X107919Y142199D02*
X107919Y142199D01*
X107919Y144600D01*
X108126Y145374D01*
X108527Y146067D01*
X109093Y146633D01*
X109786Y147034D01*
X110560Y147241D01*
X112593Y147241D01*
X110311Y144959D01*
X110283Y144908D01*
X110250Y144860D01*
X110247Y144843D01*
X110243Y144836D01*
X110244Y144823D01*
X110237Y144780D01*
X110237Y142199D01*
X107919Y142199D01*
G37*
%LPD*%
D10*
X92020Y102497D02*
X92020Y112497D01*
X101020Y112497D01*
X101020Y102497D01*
X92020Y102497D01*
X92020Y103447D02*
X101020Y103447D01*
X101020Y104397D02*
X92020Y104397D01*
X92020Y105347D02*
X101020Y105347D01*
X101020Y106297D02*
X92020Y106297D01*
X92020Y107247D02*
X101020Y107247D01*
X101020Y108197D02*
X92020Y108197D01*
X92020Y109147D02*
X101020Y109147D01*
X101020Y110097D02*
X92020Y110097D01*
X92020Y111047D02*
X101020Y111047D01*
X101020Y111997D02*
X92020Y111997D01*
X92020Y95497D02*
X92020Y85497D01*
X92020Y95497D02*
X101020Y95497D01*
X101020Y85497D01*
X92020Y85497D01*
X92020Y86447D02*
X101020Y86447D01*
X101020Y87397D02*
X92020Y87397D01*
X92020Y88347D02*
X101020Y88347D01*
X101020Y89297D02*
X92020Y89297D01*
X92020Y90247D02*
X101020Y90247D01*
X101020Y91197D02*
X92020Y91197D01*
X92020Y92147D02*
X101020Y92147D01*
X101020Y93097D02*
X92020Y93097D01*
X92020Y94047D02*
X101020Y94047D01*
X101020Y94997D02*
X92020Y94997D01*
X127960Y128960D02*
X137960Y128960D01*
X137960Y119960D01*
X127960Y119960D01*
X127960Y128960D01*
X127960Y120910D02*
X137960Y120910D01*
X137960Y121860D02*
X127960Y121860D01*
X127960Y122810D02*
X137960Y122810D01*
X137960Y123760D02*
X127960Y123760D01*
X127960Y124710D02*
X137960Y124710D01*
X137960Y125660D02*
X127960Y125660D01*
X127960Y126610D02*
X137960Y126610D01*
X137960Y127560D02*
X127960Y127560D01*
X127960Y128510D02*
X137960Y128510D01*
X120960Y128960D02*
X110960Y128960D01*
X120960Y128960D02*
X120960Y119960D01*
X110960Y119960D01*
X110960Y128960D01*
X110960Y120910D02*
X120960Y120910D01*
X120960Y121860D02*
X110960Y121860D01*
X110960Y122810D02*
X120960Y122810D01*
X120960Y123760D02*
X110960Y123760D01*
X110960Y124710D02*
X120960Y124710D01*
X120960Y125660D02*
X110960Y125660D01*
X110960Y126610D02*
X120960Y126610D01*
X120960Y127560D02*
X110960Y127560D01*
X110960Y128510D02*
X120960Y128510D01*
X122945Y78270D02*
X122945Y68270D01*
X122945Y78270D02*
X131945Y78270D01*
X131945Y68270D01*
X122945Y68270D01*
X122945Y69220D02*
X131945Y69220D01*
X131945Y70170D02*
X122945Y70170D01*
X122945Y71120D02*
X131945Y71120D01*
X131945Y72070D02*
X122945Y72070D01*
X122945Y73020D02*
X131945Y73020D01*
X131945Y73970D02*
X122945Y73970D01*
X122945Y74920D02*
X131945Y74920D01*
X131945Y75870D02*
X122945Y75870D01*
X122945Y76820D02*
X131945Y76820D01*
X131945Y77770D02*
X122945Y77770D01*
X122945Y61270D02*
X122945Y51270D01*
X122945Y61270D02*
X131945Y61270D01*
X131945Y51270D01*
X122945Y51270D01*
X122945Y52220D02*
X131945Y52220D01*
X131945Y53170D02*
X122945Y53170D01*
X122945Y54120D02*
X131945Y54120D01*
X131945Y55070D02*
X122945Y55070D01*
X122945Y56020D02*
X131945Y56020D01*
X131945Y56970D02*
X122945Y56970D01*
X122945Y57920D02*
X131945Y57920D01*
X131945Y58870D02*
X122945Y58870D01*
X122945Y59820D02*
X131945Y59820D01*
X131945Y60770D02*
X122945Y60770D01*
X147964Y68270D02*
X147964Y78270D01*
X156964Y78270D01*
X156964Y68270D01*
X147964Y68270D01*
X147964Y69220D02*
X156964Y69220D01*
X156964Y70170D02*
X147964Y70170D01*
X147964Y71120D02*
X156964Y71120D01*
X156964Y72070D02*
X147964Y72070D01*
X147964Y73020D02*
X156964Y73020D01*
X156964Y73970D02*
X147964Y73970D01*
X147964Y74920D02*
X156964Y74920D01*
X156964Y75870D02*
X147964Y75870D01*
X147964Y76820D02*
X156964Y76820D01*
X156964Y77770D02*
X147964Y77770D01*
X147964Y61270D02*
X147964Y51270D01*
X147964Y61270D02*
X156964Y61270D01*
X156964Y51270D01*
X147964Y51270D01*
X147964Y52220D02*
X156964Y52220D01*
X156964Y53170D02*
X147964Y53170D01*
X147964Y54120D02*
X156964Y54120D01*
X156964Y55070D02*
X147964Y55070D01*
X147964Y56020D02*
X156964Y56020D01*
X156964Y56970D02*
X147964Y56970D01*
X147964Y57920D02*
X156964Y57920D01*
X156964Y58870D02*
X147964Y58870D01*
X147964Y59820D02*
X156964Y59820D01*
X156964Y60770D02*
X147964Y60770D01*
D11*
X21590Y195580D03*
X212344Y55880D03*
D10*
X86288Y85497D02*
X86288Y95497D01*
X86288Y85497D02*
X77288Y85497D01*
X77288Y95497D01*
X86288Y95497D01*
X86288Y86447D02*
X77288Y86447D01*
X77288Y87397D02*
X86288Y87397D01*
X86288Y88347D02*
X77288Y88347D01*
X77288Y89297D02*
X86288Y89297D01*
X86288Y90247D02*
X77288Y90247D01*
X77288Y91197D02*
X86288Y91197D01*
X86288Y92147D02*
X77288Y92147D01*
X77288Y93097D02*
X86288Y93097D01*
X86288Y94047D02*
X77288Y94047D01*
X77288Y94997D02*
X86288Y94997D01*
X86288Y102497D02*
X86288Y112497D01*
X86288Y102497D02*
X77288Y102497D01*
X77288Y112497D01*
X86288Y112497D01*
X86288Y103447D02*
X77288Y103447D01*
X77288Y104397D02*
X86288Y104397D01*
X86288Y105347D02*
X77288Y105347D01*
X77288Y106297D02*
X86288Y106297D01*
X86288Y107247D02*
X77288Y107247D01*
X77288Y108197D02*
X86288Y108197D01*
X86288Y109147D02*
X77288Y109147D01*
X77288Y110097D02*
X86288Y110097D01*
X86288Y111047D02*
X77288Y111047D01*
X77288Y111997D02*
X86288Y111997D01*
D12*
X190500Y12700D03*
X165100Y12700D03*
X139700Y12700D03*
X114300Y12700D03*
X88900Y12700D03*
X63500Y12700D03*
X88900Y241300D03*
X114300Y241300D03*
X139700Y241300D03*
X165100Y241300D03*
D13*
X249216Y104520D02*
X249216Y93480D01*
X230176Y93480D01*
X230176Y104520D01*
X249216Y104520D01*
X249216Y94392D02*
X230176Y94392D01*
X230176Y95304D02*
X249216Y95304D01*
X249216Y96216D02*
X230176Y96216D01*
X230176Y97128D02*
X249216Y97128D01*
X249216Y98040D02*
X230176Y98040D01*
X230176Y98952D02*
X249216Y98952D01*
X249216Y99864D02*
X230176Y99864D01*
X230176Y100776D02*
X249216Y100776D01*
X249216Y101688D02*
X230176Y101688D01*
X230176Y102600D02*
X249216Y102600D01*
X249216Y103512D02*
X230176Y103512D01*
X230176Y104424D02*
X249216Y104424D01*
X249216Y149480D02*
X249216Y160520D01*
X249216Y149480D02*
X230176Y149480D01*
X230176Y160520D01*
X249216Y160520D01*
X249216Y150392D02*
X230176Y150392D01*
X230176Y151304D02*
X249216Y151304D01*
X249216Y152216D02*
X230176Y152216D01*
X230176Y153128D02*
X249216Y153128D01*
X249216Y154040D02*
X230176Y154040D01*
X230176Y154952D02*
X249216Y154952D01*
X249216Y155864D02*
X230176Y155864D01*
X230176Y156776D02*
X249216Y156776D01*
X249216Y157688D02*
X230176Y157688D01*
X230176Y158600D02*
X249216Y158600D01*
X249216Y159512D02*
X230176Y159512D01*
X230176Y160424D02*
X249216Y160424D01*
D14*
X209186Y114490D02*
X209186Y109510D01*
X196706Y109510D01*
X196706Y114490D01*
X209186Y114490D01*
X209186Y110479D02*
X196706Y110479D01*
X196706Y111448D02*
X209186Y111448D01*
X209186Y112417D02*
X196706Y112417D01*
X196706Y113386D02*
X209186Y113386D01*
X209186Y114355D02*
X196706Y114355D01*
X209186Y119510D02*
X209186Y124490D01*
X209186Y119510D02*
X196706Y119510D01*
X196706Y124490D01*
X209186Y124490D01*
X209186Y120479D02*
X196706Y120479D01*
X196706Y121448D02*
X209186Y121448D01*
X209186Y122417D02*
X196706Y122417D01*
X196706Y123386D02*
X209186Y123386D01*
X209186Y124355D02*
X196706Y124355D01*
X209186Y129510D02*
X209186Y134490D01*
X209186Y129510D02*
X196706Y129510D01*
X196706Y134490D01*
X209186Y134490D01*
X209186Y130479D02*
X196706Y130479D01*
X196706Y131448D02*
X209186Y131448D01*
X209186Y132417D02*
X196706Y132417D01*
X196706Y133386D02*
X209186Y133386D01*
X209186Y134355D02*
X196706Y134355D01*
X209186Y139510D02*
X209186Y144490D01*
X209186Y139510D02*
X196706Y139510D01*
X196706Y144490D01*
X209186Y144490D01*
X209186Y140479D02*
X196706Y140479D01*
X196706Y141448D02*
X209186Y141448D01*
X209186Y142417D02*
X196706Y142417D01*
X196706Y143386D02*
X209186Y143386D01*
X209186Y144355D02*
X196706Y144355D01*
D13*
X4530Y149480D02*
X4530Y160520D01*
X23570Y160520D01*
X23570Y149480D01*
X4530Y149480D01*
X4530Y150392D02*
X23570Y150392D01*
X23570Y151304D02*
X4530Y151304D01*
X4530Y152216D02*
X23570Y152216D01*
X23570Y153128D02*
X4530Y153128D01*
X4530Y154040D02*
X23570Y154040D01*
X23570Y154952D02*
X4530Y154952D01*
X4530Y155864D02*
X23570Y155864D01*
X23570Y156776D02*
X4530Y156776D01*
X4530Y157688D02*
X23570Y157688D01*
X23570Y158600D02*
X4530Y158600D01*
X4530Y159512D02*
X23570Y159512D01*
X23570Y160424D02*
X4530Y160424D01*
X4530Y104520D02*
X4530Y93480D01*
X4530Y104520D02*
X23570Y104520D01*
X23570Y93480D01*
X4530Y93480D01*
X4530Y94392D02*
X23570Y94392D01*
X23570Y95304D02*
X4530Y95304D01*
X4530Y96216D02*
X23570Y96216D01*
X23570Y97128D02*
X4530Y97128D01*
X4530Y98040D02*
X23570Y98040D01*
X23570Y98952D02*
X4530Y98952D01*
X4530Y99864D02*
X23570Y99864D01*
X23570Y100776D02*
X4530Y100776D01*
X4530Y101688D02*
X23570Y101688D01*
X23570Y102600D02*
X4530Y102600D01*
X4530Y103512D02*
X23570Y103512D01*
X23570Y104424D02*
X4530Y104424D01*
D14*
X44560Y139510D02*
X44560Y144490D01*
X57040Y144490D01*
X57040Y139510D01*
X44560Y139510D01*
X44560Y140479D02*
X57040Y140479D01*
X57040Y141448D02*
X44560Y141448D01*
X44560Y142417D02*
X57040Y142417D01*
X57040Y143386D02*
X44560Y143386D01*
X44560Y144355D02*
X57040Y144355D01*
X44560Y134490D02*
X44560Y129510D01*
X44560Y134490D02*
X57040Y134490D01*
X57040Y129510D01*
X44560Y129510D01*
X44560Y130479D02*
X57040Y130479D01*
X57040Y131448D02*
X44560Y131448D01*
X44560Y132417D02*
X57040Y132417D01*
X57040Y133386D02*
X44560Y133386D01*
X44560Y134355D02*
X57040Y134355D01*
X44560Y124490D02*
X44560Y119510D01*
X44560Y124490D02*
X57040Y124490D01*
X57040Y119510D01*
X44560Y119510D01*
X44560Y120479D02*
X57040Y120479D01*
X57040Y121448D02*
X44560Y121448D01*
X44560Y122417D02*
X57040Y122417D01*
X57040Y123386D02*
X44560Y123386D01*
X44560Y124355D02*
X57040Y124355D01*
X44560Y114490D02*
X44560Y109510D01*
X44560Y114490D02*
X57040Y114490D01*
X57040Y109510D01*
X44560Y109510D01*
X44560Y110479D02*
X57040Y110479D01*
X57040Y111448D02*
X44560Y111448D01*
X44560Y112417D02*
X57040Y112417D01*
X57040Y113386D02*
X44560Y113386D01*
X44560Y114355D02*
X57040Y114355D01*
D15*
X240594Y184594D02*
X247594Y184594D01*
X240594Y184594D02*
X240594Y191594D01*
X247594Y191594D01*
X247594Y184594D01*
X247594Y187444D02*
X240594Y187444D01*
X240594Y190294D02*
X247594Y190294D01*
X247594Y167054D02*
X240594Y167054D01*
X240594Y174054D01*
X247594Y174054D01*
X247594Y167054D01*
X247594Y169904D02*
X240594Y169904D01*
X240594Y172754D02*
X247594Y172754D01*
D10*
X232592Y176332D02*
X232592Y166332D01*
X223592Y166332D01*
X223592Y176332D01*
X232592Y176332D01*
X232592Y167282D02*
X223592Y167282D01*
X223592Y168232D02*
X232592Y168232D01*
X232592Y169182D02*
X223592Y169182D01*
X223592Y170132D02*
X232592Y170132D01*
X232592Y171082D02*
X223592Y171082D01*
X223592Y172032D02*
X232592Y172032D01*
X232592Y172982D02*
X223592Y172982D01*
X223592Y173932D02*
X232592Y173932D01*
X232592Y174882D02*
X223592Y174882D01*
X223592Y175832D02*
X232592Y175832D01*
X232592Y183332D02*
X232592Y193332D01*
X232592Y183332D02*
X223592Y183332D01*
X223592Y193332D01*
X232592Y193332D01*
X232592Y184282D02*
X223592Y184282D01*
X223592Y185232D02*
X232592Y185232D01*
X232592Y186182D02*
X223592Y186182D01*
X223592Y187132D02*
X232592Y187132D01*
X232592Y188082D02*
X223592Y188082D01*
X223592Y189032D02*
X232592Y189032D01*
X232592Y189982D02*
X223592Y189982D01*
X223592Y190932D02*
X232592Y190932D01*
X232592Y191882D02*
X223592Y191882D01*
X223592Y192832D02*
X232592Y192832D01*
X197414Y85670D02*
X187414Y85670D01*
X187414Y94670D01*
X197414Y94670D01*
X197414Y85670D01*
X197414Y86620D02*
X187414Y86620D01*
X187414Y87570D02*
X197414Y87570D01*
X197414Y88520D02*
X187414Y88520D01*
X187414Y89470D02*
X197414Y89470D01*
X197414Y90420D02*
X187414Y90420D01*
X187414Y91370D02*
X197414Y91370D01*
X197414Y92320D02*
X187414Y92320D01*
X187414Y93270D02*
X197414Y93270D01*
X197414Y94220D02*
X187414Y94220D01*
X204414Y85670D02*
X214414Y85670D01*
X204414Y85670D02*
X204414Y94670D01*
X214414Y94670D01*
X214414Y85670D01*
X214414Y86620D02*
X204414Y86620D01*
X204414Y87570D02*
X214414Y87570D01*
X214414Y88520D02*
X204414Y88520D01*
X204414Y89470D02*
X214414Y89470D01*
X214414Y90420D02*
X204414Y90420D01*
X204414Y91370D02*
X214414Y91370D01*
X214414Y92320D02*
X204414Y92320D01*
X204414Y93270D02*
X214414Y93270D01*
X214414Y94220D02*
X204414Y94220D01*
D14*
X140515Y92550D02*
X136735Y92550D01*
X140515Y92550D02*
X140515Y90570D01*
X136735Y90570D01*
X136735Y92550D01*
X136735Y91539D02*
X140515Y91539D01*
X140515Y92508D02*
X136735Y92508D01*
X136735Y97550D02*
X140515Y97550D01*
X140515Y95570D01*
X136735Y95570D01*
X136735Y97550D01*
X136735Y96539D02*
X140515Y96539D01*
X140515Y97508D02*
X136735Y97508D01*
X136735Y102550D02*
X140515Y102550D01*
X140515Y100570D01*
X136735Y100570D01*
X136735Y102550D01*
X136735Y101539D02*
X140515Y101539D01*
X140515Y102508D02*
X136735Y102508D01*
X136735Y107550D02*
X140515Y107550D01*
X140515Y105570D01*
X136735Y105570D01*
X136735Y107550D01*
X136735Y106539D02*
X140515Y106539D01*
X140515Y107508D02*
X136735Y107508D01*
X117265Y105570D02*
X113485Y105570D01*
X113485Y107550D01*
X117265Y107550D01*
X117265Y105570D01*
X117265Y106539D02*
X113485Y106539D01*
X113485Y107508D02*
X117265Y107508D01*
X117265Y100570D02*
X113485Y100570D01*
X113485Y102550D01*
X117265Y102550D01*
X117265Y100570D01*
X117265Y101539D02*
X113485Y101539D01*
X113485Y102508D02*
X117265Y102508D01*
X117265Y95570D02*
X113485Y95570D01*
X113485Y97550D01*
X117265Y97550D01*
X117265Y95570D01*
X117265Y96539D02*
X113485Y96539D01*
X113485Y97508D02*
X117265Y97508D01*
X117265Y90570D02*
X113485Y90570D01*
X113485Y92550D01*
X117265Y92550D01*
X117265Y90570D01*
X117265Y91539D02*
X113485Y91539D01*
X113485Y92508D02*
X117265Y92508D01*
X131010Y110950D02*
X132990Y110950D01*
X132990Y107170D01*
X131010Y107170D01*
X131010Y110950D01*
X131010Y108139D02*
X132990Y108139D01*
X132990Y109108D02*
X131010Y109108D01*
X131010Y110077D02*
X132990Y110077D01*
X127990Y110950D02*
X126010Y110950D01*
X127990Y110950D02*
X127990Y107170D01*
X126010Y107170D01*
X126010Y110950D01*
X126010Y108139D02*
X127990Y108139D01*
X127990Y109108D02*
X126010Y109108D01*
X126010Y110077D02*
X127990Y110077D01*
X122990Y110950D02*
X121010Y110950D01*
X122990Y110950D02*
X122990Y107170D01*
X121010Y107170D01*
X121010Y110950D01*
X121010Y108139D02*
X122990Y108139D01*
X122990Y109108D02*
X121010Y109108D01*
X121010Y110077D02*
X122990Y110077D01*
X122990Y87170D02*
X121010Y87170D01*
X121010Y90950D01*
X122990Y90950D01*
X122990Y87170D01*
X122990Y88139D02*
X121010Y88139D01*
X121010Y89108D02*
X122990Y89108D01*
X122990Y90077D02*
X121010Y90077D01*
X126010Y87170D02*
X127990Y87170D01*
X126010Y87170D02*
X126010Y90950D01*
X127990Y90950D01*
X127990Y87170D01*
X127990Y88139D02*
X126010Y88139D01*
X126010Y89108D02*
X127990Y89108D01*
X127990Y90077D02*
X126010Y90077D01*
X131010Y87170D02*
X132990Y87170D01*
X131010Y87170D02*
X131010Y90950D01*
X132990Y90950D01*
X132990Y87170D01*
X132990Y88139D02*
X131010Y88139D01*
X131010Y89108D02*
X132990Y89108D01*
X132990Y90077D02*
X131010Y90077D01*
D10*
X204160Y78160D02*
X214160Y78160D01*
X214160Y69160D01*
X204160Y69160D01*
X204160Y78160D01*
X204160Y70110D02*
X214160Y70110D01*
X214160Y71060D02*
X204160Y71060D01*
X204160Y72010D02*
X214160Y72010D01*
X214160Y72960D02*
X204160Y72960D01*
X204160Y73910D02*
X214160Y73910D01*
X214160Y74860D02*
X204160Y74860D01*
X204160Y75810D02*
X214160Y75810D01*
X214160Y76760D02*
X204160Y76760D01*
X204160Y77710D02*
X214160Y77710D01*
X197160Y78160D02*
X187160Y78160D01*
X197160Y78160D02*
X197160Y69160D01*
X187160Y69160D01*
X187160Y78160D01*
X187160Y70110D02*
X197160Y70110D01*
X197160Y71060D02*
X187160Y71060D01*
X187160Y72010D02*
X197160Y72010D01*
X197160Y72960D02*
X187160Y72960D01*
X187160Y73910D02*
X197160Y73910D01*
X197160Y74860D02*
X187160Y74860D01*
X187160Y75810D02*
X197160Y75810D01*
X197160Y76760D02*
X187160Y76760D01*
X187160Y77710D02*
X197160Y77710D01*
D16*
X134915Y180765D02*
X134915Y187015D01*
X134915Y180765D02*
X134165Y180765D01*
X134165Y187015D01*
X134915Y187015D01*
X134915Y182902D02*
X134165Y182902D01*
X134165Y185039D02*
X134915Y185039D01*
X129915Y187015D02*
X129915Y180765D01*
X129165Y180765D01*
X129165Y187015D01*
X129915Y187015D01*
X129915Y182902D02*
X129165Y182902D01*
X129165Y185039D02*
X129915Y185039D01*
X124915Y187015D02*
X124915Y180765D01*
X124165Y180765D01*
X124165Y187015D01*
X124915Y187015D01*
X124915Y182902D02*
X124165Y182902D01*
X124165Y185039D02*
X124915Y185039D01*
X119915Y187015D02*
X119915Y180765D01*
X119165Y180765D01*
X119165Y187015D01*
X119915Y187015D01*
X119915Y182902D02*
X119165Y182902D01*
X119165Y185039D02*
X119915Y185039D01*
X115045Y175995D02*
X108795Y175995D01*
X108795Y176745D01*
X115045Y176745D01*
X115045Y175995D01*
X115045Y170995D02*
X108795Y170995D01*
X108795Y171745D01*
X115045Y171745D01*
X115045Y170995D01*
X115045Y165995D02*
X108795Y165995D01*
X108795Y166745D01*
X115045Y166745D01*
X115045Y165995D01*
X115045Y160995D02*
X108795Y160995D01*
X108795Y161745D01*
X115045Y161745D01*
X115045Y160995D01*
X119165Y156975D02*
X119165Y150725D01*
X119165Y156975D02*
X119915Y156975D01*
X119915Y150725D01*
X119165Y150725D01*
X119165Y152862D02*
X119915Y152862D01*
X119915Y154999D02*
X119165Y154999D01*
X124165Y156975D02*
X124165Y150725D01*
X124165Y156975D02*
X124915Y156975D01*
X124915Y150725D01*
X124165Y150725D01*
X124165Y152862D02*
X124915Y152862D01*
X124915Y154999D02*
X124165Y154999D01*
X129165Y156975D02*
X129165Y150725D01*
X129165Y156975D02*
X129915Y156975D01*
X129915Y150725D01*
X129165Y150725D01*
X129165Y152862D02*
X129915Y152862D01*
X129915Y154999D02*
X129165Y154999D01*
X134165Y156975D02*
X134165Y150725D01*
X134165Y156975D02*
X134915Y156975D01*
X134915Y150725D01*
X134165Y150725D01*
X134165Y152862D02*
X134915Y152862D01*
X134915Y154999D02*
X134165Y154999D01*
X138835Y161645D02*
X145085Y161645D01*
X145085Y160895D01*
X138835Y160895D01*
X138835Y161645D01*
X138835Y166645D02*
X145085Y166645D01*
X145085Y165895D01*
X138835Y165895D01*
X138835Y166645D01*
X138835Y171645D02*
X145085Y171645D01*
X145085Y170895D01*
X138835Y170895D01*
X138835Y171645D01*
X138835Y176645D02*
X145085Y176645D01*
X145085Y175895D01*
X138835Y175895D01*
X138835Y176645D01*
D10*
X150440Y164630D02*
X150440Y154630D01*
X150440Y164630D02*
X159440Y164630D01*
X159440Y154630D01*
X150440Y154630D01*
X150440Y155580D02*
X159440Y155580D01*
X159440Y156530D02*
X150440Y156530D01*
X150440Y157480D02*
X159440Y157480D01*
X159440Y158430D02*
X150440Y158430D01*
X150440Y159380D02*
X159440Y159380D01*
X159440Y160330D02*
X150440Y160330D01*
X150440Y161280D02*
X159440Y161280D01*
X159440Y162230D02*
X150440Y162230D01*
X150440Y163180D02*
X159440Y163180D01*
X159440Y164130D02*
X150440Y164130D01*
X150440Y147630D02*
X150440Y137630D01*
X150440Y147630D02*
X159440Y147630D01*
X159440Y137630D01*
X150440Y137630D01*
X150440Y138580D02*
X159440Y138580D01*
X159440Y139530D02*
X150440Y139530D01*
X150440Y140480D02*
X159440Y140480D01*
X159440Y141430D02*
X150440Y141430D01*
X150440Y142380D02*
X159440Y142380D01*
X159440Y143330D02*
X150440Y143330D01*
X150440Y144280D02*
X159440Y144280D01*
X159440Y145230D02*
X150440Y145230D01*
X150440Y146180D02*
X159440Y146180D01*
X159440Y147130D02*
X150440Y147130D01*
X137960Y144200D02*
X127960Y144200D01*
X137960Y144200D02*
X137960Y135200D01*
X127960Y135200D01*
X127960Y144200D01*
X127960Y136150D02*
X137960Y136150D01*
X137960Y137100D02*
X127960Y137100D01*
X127960Y138050D02*
X137960Y138050D01*
X137960Y139000D02*
X127960Y139000D01*
X127960Y139950D02*
X137960Y139950D01*
X137960Y140900D02*
X127960Y140900D01*
X127960Y141850D02*
X137960Y141850D01*
X137960Y142800D02*
X127960Y142800D01*
X127960Y143750D02*
X137960Y143750D01*
X120960Y144200D02*
X110960Y144200D01*
X120960Y144200D02*
X120960Y135200D01*
X110960Y135200D01*
X110960Y144200D01*
X110960Y136150D02*
X120960Y136150D01*
X120960Y137100D02*
X110960Y137100D01*
X110960Y138050D02*
X120960Y138050D01*
X120960Y139000D02*
X110960Y139000D01*
X110960Y139950D02*
X120960Y139950D01*
X120960Y140900D02*
X110960Y140900D01*
X110960Y141850D02*
X120960Y141850D01*
X120960Y142800D02*
X110960Y142800D01*
X110960Y143750D02*
X120960Y143750D01*
X92020Y173680D02*
X92020Y183680D01*
X101020Y183680D01*
X101020Y173680D01*
X92020Y173680D01*
X92020Y174630D02*
X101020Y174630D01*
X101020Y175580D02*
X92020Y175580D01*
X92020Y176530D02*
X101020Y176530D01*
X101020Y177480D02*
X92020Y177480D01*
X92020Y178430D02*
X101020Y178430D01*
X101020Y179380D02*
X92020Y179380D01*
X92020Y180330D02*
X101020Y180330D01*
X101020Y181280D02*
X92020Y181280D01*
X92020Y182230D02*
X101020Y182230D01*
X101020Y183180D02*
X92020Y183180D01*
X92020Y166680D02*
X92020Y156680D01*
X92020Y166680D02*
X101020Y166680D01*
X101020Y156680D01*
X92020Y156680D01*
X92020Y157630D02*
X101020Y157630D01*
X101020Y158580D02*
X92020Y158580D01*
X92020Y159530D02*
X101020Y159530D01*
X101020Y160480D02*
X92020Y160480D01*
X92020Y161430D02*
X101020Y161430D01*
X101020Y162380D02*
X92020Y162380D01*
X92020Y163330D02*
X101020Y163330D01*
X101020Y164280D02*
X92020Y164280D01*
X92020Y165230D02*
X101020Y165230D01*
X101020Y166180D02*
X92020Y166180D01*
D17*
X106680Y85090D03*
X217170Y196850D03*
X204470Y102870D03*
X222250Y73660D03*
X66040Y142240D03*
X193802Y51308D03*
X83058Y71628D03*
X189230Y111760D03*
X102870Y124460D03*
X102870Y139700D03*
X154940Y129540D03*
D18*
X129540Y153850D02*
X129484Y153794D01*
X129484Y150582D01*
X132752Y147314D01*
X136328Y147314D01*
X136334Y147320D01*
X142240Y147320D01*
D17*
X174752Y56388D03*
X122682Y25908D03*
X167132Y84328D03*
X155702Y215138D03*
X141732Y216408D03*
X125222Y215138D03*
X97536Y60960D03*
X107950Y190500D03*
X65278Y81788D03*
X77978Y58928D03*
X104648Y29718D03*
X138938Y58928D03*
X146558Y41148D03*
D18*
X127445Y73270D02*
X125757Y74957D01*
X190500Y142000D02*
X202946Y142000D01*
X127000Y89060D02*
X127000Y76200D01*
X125757Y74957D01*
X171216Y65230D02*
X182245Y76259D01*
X171216Y65230D02*
X135485Y65230D01*
X127445Y73270D01*
X113910Y73270D01*
X139700Y25146D02*
X139700Y12700D01*
X106680Y66040D02*
X113910Y73270D01*
X105410Y35560D02*
X129286Y35560D01*
X139700Y25146D01*
X64530Y112000D02*
X50800Y112000D01*
X71120Y73660D02*
X78740Y66040D01*
X71120Y73660D02*
X71120Y105410D01*
X64530Y112000D01*
X182245Y133745D02*
X190500Y142000D01*
X182245Y133745D02*
X182245Y76259D01*
X105410Y35560D02*
X86360Y54610D01*
X86360Y66040D02*
X78740Y66040D01*
X86360Y66040D02*
X106680Y66040D01*
X86360Y66040D02*
X86360Y54610D01*
X138625Y91560D02*
X168522Y91560D01*
X168910Y91948D01*
D17*
X168910Y91948D03*
X185420Y50800D03*
D18*
X185420Y17780D01*
X190500Y12700D01*
X148470Y106560D02*
X138625Y106560D01*
X148470Y106560D02*
X162560Y120650D01*
X162560Y149860D01*
X171450Y158750D01*
X171450Y207010D02*
X153670Y224790D01*
X140970Y224790D01*
D19*
X140970Y224790D03*
D18*
X171450Y207010D02*
X171450Y158750D01*
D20*
X219710Y100466D02*
X209414Y90170D01*
X219710Y121920D02*
X226060Y128270D01*
X219710Y121920D02*
X219710Y100466D01*
X215900Y188332D02*
X228092Y188332D01*
X219630Y122000D02*
X202946Y122000D01*
X219630Y122000D02*
X219710Y121920D01*
X202946Y122000D02*
X188040Y122000D01*
X187960Y121920D01*
D17*
X187960Y121920D03*
X97790Y118110D03*
D20*
X72470Y132000D02*
X50800Y132000D01*
X78740Y118110D02*
X97790Y118110D01*
X74930Y129540D02*
X72470Y132000D01*
X74930Y129540D02*
X76835Y127635D01*
D19*
X144780Y121920D03*
D20*
X142240Y124460D01*
X132960Y124460D01*
D19*
X165100Y160020D03*
D20*
X155330Y160020D01*
X154940Y159630D01*
D19*
X126116Y193040D03*
D20*
X96520Y151130D02*
X74930Y129540D01*
X96520Y151130D02*
X96520Y161680D01*
X226060Y143510D02*
X226060Y128270D01*
X212090Y157480D02*
X212090Y184522D01*
X212090Y157480D02*
X226060Y143510D01*
X212090Y184522D02*
X215900Y188332D01*
X78740Y118110D02*
X76835Y120015D01*
X76835Y127635D01*
D18*
X107814Y56270D02*
X127445Y56270D01*
X107814Y56270D02*
X104648Y59436D01*
D17*
X104648Y59436D03*
D18*
X152464Y56270D02*
X167250Y56270D01*
X167640Y55880D01*
D17*
X167640Y55880D03*
D18*
X228092Y171332D02*
X243316Y171332D01*
X244094Y170554D01*
X244094Y188094D02*
X244094Y196596D01*
X242570Y198120D01*
D17*
X242570Y198120D03*
X189230Y101600D03*
D18*
X191144Y99686D01*
X191144Y91440D01*
X192414Y90170D01*
D17*
X193040Y60960D03*
D18*
X193040Y72780D01*
X192160Y73660D01*
X138665Y101600D02*
X138625Y101560D01*
X138665Y101600D02*
X153670Y101600D01*
X167306Y115236D01*
X167306Y145716D02*
X177800Y156210D01*
X177800Y208280D01*
X167306Y145716D02*
X167306Y115236D01*
X144780Y241300D02*
X139700Y241300D01*
X144780Y241300D02*
X177800Y208280D01*
X134540Y183890D02*
X134540Y236140D01*
X139700Y241300D01*
X142304Y73270D02*
X152464Y73270D01*
X142304Y73270D02*
X132102Y83472D01*
X132102Y88959D02*
X132000Y89060D01*
X132102Y88959D02*
X132102Y83472D01*
X162560Y72000D02*
X167704Y72000D01*
X162560Y72000D02*
X153734Y72000D01*
X152464Y73270D01*
X176530Y136198D02*
X188922Y148590D01*
X212090Y148590D01*
X217170Y143510D01*
X217170Y137160D01*
X212010Y132000D01*
X202946Y132000D01*
X114300Y26670D02*
X114300Y12700D01*
D17*
X114300Y26670D03*
D18*
X114300Y12700D02*
X58420Y68580D01*
X58420Y96520D01*
X52070Y102870D01*
X40640Y102870D01*
X35560Y107950D01*
X39450Y122000D02*
X50800Y122000D01*
X35560Y118110D02*
X35560Y107950D01*
X35560Y118110D02*
X39450Y122000D01*
X167704Y72000D02*
X176530Y80827D01*
X176530Y136198D01*
D17*
X162560Y72000D03*
D18*
X158790Y96560D02*
X138625Y96560D01*
X184150Y151130D02*
X184150Y222250D01*
X165100Y241300D01*
D17*
X149225Y219075D03*
D18*
X171878Y109648D02*
X158790Y96560D01*
X171878Y138858D02*
X184150Y151130D01*
X171878Y138858D02*
X171878Y109648D01*
X145790Y176270D02*
X148590Y179070D01*
X145790Y176270D02*
X141960Y176270D01*
X148590Y179070D02*
X148590Y218440D01*
X149225Y219075D01*
X149270Y171270D02*
X141960Y171270D01*
X149270Y171270D02*
X152195Y174195D01*
D19*
X154940Y207010D03*
D18*
X155194Y177194D02*
X152195Y174195D01*
X155194Y206756D02*
X154940Y207010D01*
X155194Y206756D02*
X155194Y177194D01*
D19*
X127000Y207010D03*
D18*
X123190Y207010D01*
X88900Y241300D01*
X109180Y101560D02*
X115375Y101560D01*
X109180Y101560D02*
X106680Y99060D01*
D17*
X106680Y99060D03*
D19*
X152195Y174195D03*
D18*
X81788Y82042D02*
X87630Y76200D01*
X81788Y82042D02*
X81788Y90497D01*
X113030Y81280D02*
X118110Y81280D01*
X122000Y85170D01*
X91440Y76200D02*
X87630Y76200D01*
X91440Y76200D02*
X107950Y76200D01*
X113030Y81280D01*
X122000Y85170D02*
X122000Y89060D01*
X133350Y44450D02*
X165100Y12700D01*
X133350Y44450D02*
X104140Y44450D01*
X91440Y57150D01*
X91694Y57150D01*
D17*
X91694Y57150D03*
X91440Y76200D03*
D18*
X119540Y183890D02*
X119540Y192880D01*
X115570Y196850D01*
X101600Y196850D01*
X96520Y191770D02*
X96520Y178680D01*
X96520Y191770D02*
X101600Y196850D01*
M02*
