M48
;GenerationSoftware,Autodesk,EAGLE,9.6.2*%
;CreationDate,2022-04-26T17:01:42Z*%
FMAT,2
ICI,OFF
METRIC,TZ,000.000
T4C0.305
T3C0.350
T2C1.016
T1C3.048
%
G90
M71
T1
X2540Y22860
X2540Y2540
X22860Y2540
X22860Y22860
T2
X16510Y24130
X13970Y1270
X19050Y1270
X16510Y1270
X11430Y1270
X8890Y1270
X6350Y1270
X8890Y24130
X11430Y24130
X13970Y24130
T3
X16510Y16002
X14097Y22479
X14478Y12192
X12612Y19304
X15494Y20701
X12700Y20701
X15219Y17420
T4
X10795Y19050
X6528Y8179
X7798Y5893
X10465Y2972
X13894Y5893
X16891Y9195
X18542Y5080
X18796Y12192
X9779Y11811
X18923Y11176
X10668Y8509
X10465Y5944
X16764Y5588
X24257Y19812
X18923Y10160
X19304Y6096
X11430Y2667
X16256Y7200
X14922Y21907
X21717Y19685
X20447Y10287
X10668Y9906
X22225Y7366
X9169Y5715
X6604Y14224
X19380Y5131
X8306Y7163
X10287Y12446
X10287Y13970
X15494Y12954
X17475Y5639
X14656Y4115
X12268Y2591
X16713Y8433
X15570Y21514
X14173Y21641
X12522Y21514
X9754Y6096
X9144Y7620
M30