G04 EAGLE Gerber RS-274X export*
G75*
%MOMM*%
%FSLAX34Y34*%
%LPD*%
%INSoldermask Bottom*%
%IPPOS*%
%AMOC8*
5,1,8,0,0,1.08239X$1,22.5*%
G01*
%ADD10C,0.228344*%
%ADD11C,3.175000*%
%ADD12C,2.006600*%
%ADD13C,0.762000*%

G36*
X203582Y82562D02*
X203582Y82562D01*
X203648Y82564D01*
X203692Y82582D01*
X203738Y82590D01*
X203795Y82624D01*
X203856Y82649D01*
X203891Y82680D01*
X203932Y82705D01*
X203973Y82756D01*
X204022Y82800D01*
X204043Y82842D01*
X204073Y82879D01*
X204094Y82941D01*
X204124Y83000D01*
X204132Y83054D01*
X204145Y83091D01*
X204144Y83131D01*
X204152Y83185D01*
X204152Y86995D01*
X204140Y87060D01*
X204138Y87126D01*
X204120Y87169D01*
X204112Y87216D01*
X204079Y87273D01*
X204054Y87333D01*
X204022Y87368D01*
X203998Y87409D01*
X203947Y87451D01*
X203902Y87499D01*
X203860Y87521D01*
X203824Y87550D01*
X203762Y87571D01*
X203703Y87602D01*
X203648Y87610D01*
X203611Y87622D01*
X203572Y87621D01*
X203518Y87629D01*
X200978Y87629D01*
X200913Y87618D01*
X200847Y87616D01*
X200803Y87598D01*
X200757Y87590D01*
X200700Y87556D01*
X200639Y87531D01*
X200604Y87500D01*
X200563Y87475D01*
X200522Y87424D01*
X200473Y87380D01*
X200452Y87338D01*
X200422Y87301D01*
X200401Y87239D01*
X200371Y87180D01*
X200363Y87126D01*
X200350Y87089D01*
X200350Y87085D01*
X200350Y87084D01*
X200351Y87049D01*
X200343Y86995D01*
X200343Y83185D01*
X200355Y83120D01*
X200357Y83054D01*
X200375Y83011D01*
X200383Y82964D01*
X200416Y82907D01*
X200441Y82847D01*
X200473Y82812D01*
X200497Y82771D01*
X200548Y82730D01*
X200593Y82681D01*
X200635Y82659D01*
X200671Y82630D01*
X200734Y82609D01*
X200792Y82578D01*
X200847Y82570D01*
X200884Y82558D01*
X200923Y82559D01*
X200978Y82551D01*
X203518Y82551D01*
X203582Y82562D01*
G37*
G36*
X238952Y183527D02*
X238952Y183527D01*
X239018Y183529D01*
X239061Y183547D01*
X239108Y183555D01*
X239165Y183589D01*
X239225Y183614D01*
X239260Y183645D01*
X239301Y183670D01*
X239343Y183721D01*
X239391Y183765D01*
X239413Y183807D01*
X239442Y183844D01*
X239463Y183906D01*
X239494Y183965D01*
X239502Y184019D01*
X239514Y184056D01*
X239513Y184096D01*
X239521Y184150D01*
X239521Y186690D01*
X239510Y186755D01*
X239508Y186821D01*
X239490Y186864D01*
X239482Y186911D01*
X239448Y186968D01*
X239423Y187028D01*
X239392Y187063D01*
X239367Y187104D01*
X239316Y187146D01*
X239272Y187194D01*
X239230Y187216D01*
X239193Y187245D01*
X239131Y187266D01*
X239072Y187297D01*
X239018Y187305D01*
X238981Y187317D01*
X238941Y187316D01*
X238887Y187324D01*
X235077Y187324D01*
X235012Y187313D01*
X234946Y187311D01*
X234903Y187293D01*
X234856Y187285D01*
X234799Y187251D01*
X234739Y187226D01*
X234704Y187195D01*
X234663Y187170D01*
X234622Y187119D01*
X234573Y187075D01*
X234551Y187033D01*
X234522Y186996D01*
X234501Y186934D01*
X234470Y186875D01*
X234462Y186821D01*
X234450Y186784D01*
X234450Y186781D01*
X234451Y186744D01*
X234443Y186690D01*
X234443Y184150D01*
X234454Y184085D01*
X234456Y184019D01*
X234474Y183976D01*
X234482Y183929D01*
X234516Y183872D01*
X234541Y183812D01*
X234572Y183777D01*
X234597Y183736D01*
X234648Y183695D01*
X234692Y183646D01*
X234734Y183624D01*
X234771Y183595D01*
X234833Y183574D01*
X234892Y183543D01*
X234946Y183535D01*
X234983Y183523D01*
X235023Y183524D01*
X235077Y183516D01*
X238887Y183516D01*
X238952Y183527D01*
G37*
G36*
X124906Y79197D02*
X124906Y79197D01*
X124972Y79199D01*
X125015Y79217D01*
X125062Y79225D01*
X125119Y79258D01*
X125179Y79283D01*
X125214Y79315D01*
X125255Y79339D01*
X125297Y79390D01*
X125345Y79435D01*
X125367Y79477D01*
X125396Y79513D01*
X125417Y79576D01*
X125448Y79634D01*
X125456Y79689D01*
X125468Y79726D01*
X125467Y79765D01*
X125475Y79820D01*
X125475Y82360D01*
X125464Y82424D01*
X125462Y82490D01*
X125444Y82534D01*
X125436Y82580D01*
X125402Y82637D01*
X125377Y82698D01*
X125346Y82733D01*
X125321Y82774D01*
X125270Y82815D01*
X125226Y82864D01*
X125184Y82885D01*
X125147Y82915D01*
X125085Y82936D01*
X125026Y82966D01*
X124972Y82974D01*
X124935Y82987D01*
X124895Y82986D01*
X124841Y82994D01*
X121031Y82994D01*
X120966Y82982D01*
X120900Y82980D01*
X120857Y82962D01*
X120810Y82954D01*
X120753Y82921D01*
X120693Y82896D01*
X120658Y82864D01*
X120617Y82840D01*
X120576Y82789D01*
X120527Y82744D01*
X120505Y82702D01*
X120476Y82666D01*
X120455Y82604D01*
X120424Y82545D01*
X120416Y82490D01*
X120404Y82453D01*
X120404Y82450D01*
X120405Y82413D01*
X120397Y82360D01*
X120397Y79820D01*
X120408Y79755D01*
X120410Y79689D01*
X120428Y79645D01*
X120436Y79599D01*
X120470Y79542D01*
X120495Y79481D01*
X120526Y79446D01*
X120551Y79405D01*
X120602Y79364D01*
X120646Y79315D01*
X120688Y79294D01*
X120725Y79264D01*
X120787Y79243D01*
X120846Y79213D01*
X120900Y79205D01*
X120937Y79192D01*
X120977Y79193D01*
X121031Y79185D01*
X124841Y79185D01*
X124906Y79197D01*
G37*
G36*
X135066Y79197D02*
X135066Y79197D01*
X135132Y79199D01*
X135175Y79217D01*
X135222Y79225D01*
X135279Y79258D01*
X135339Y79283D01*
X135374Y79315D01*
X135415Y79339D01*
X135457Y79390D01*
X135505Y79435D01*
X135527Y79477D01*
X135556Y79513D01*
X135577Y79576D01*
X135608Y79634D01*
X135616Y79689D01*
X135628Y79726D01*
X135627Y79765D01*
X135635Y79820D01*
X135635Y82360D01*
X135624Y82424D01*
X135622Y82490D01*
X135604Y82534D01*
X135596Y82580D01*
X135562Y82637D01*
X135537Y82698D01*
X135506Y82733D01*
X135481Y82774D01*
X135430Y82815D01*
X135386Y82864D01*
X135344Y82885D01*
X135307Y82915D01*
X135245Y82936D01*
X135186Y82966D01*
X135132Y82974D01*
X135095Y82987D01*
X135055Y82986D01*
X135001Y82994D01*
X131191Y82994D01*
X131126Y82982D01*
X131060Y82980D01*
X131017Y82962D01*
X130970Y82954D01*
X130913Y82921D01*
X130853Y82896D01*
X130818Y82864D01*
X130777Y82840D01*
X130736Y82789D01*
X130687Y82744D01*
X130665Y82702D01*
X130636Y82666D01*
X130615Y82604D01*
X130584Y82545D01*
X130576Y82490D01*
X130564Y82453D01*
X130564Y82450D01*
X130565Y82413D01*
X130557Y82360D01*
X130557Y79820D01*
X130568Y79755D01*
X130570Y79689D01*
X130588Y79645D01*
X130596Y79599D01*
X130630Y79542D01*
X130655Y79481D01*
X130686Y79446D01*
X130711Y79405D01*
X130762Y79364D01*
X130806Y79315D01*
X130848Y79294D01*
X130885Y79264D01*
X130947Y79243D01*
X131006Y79213D01*
X131060Y79205D01*
X131097Y79192D01*
X131137Y79193D01*
X131191Y79185D01*
X135001Y79185D01*
X135066Y79197D01*
G37*
D10*
X208092Y72392D02*
X208092Y66800D01*
X196404Y66800D01*
X196404Y72392D01*
X208092Y72392D01*
X208092Y68969D02*
X196404Y68969D01*
X196404Y71138D02*
X208092Y71138D01*
X208092Y77214D02*
X208092Y82806D01*
X208092Y77214D02*
X196404Y77214D01*
X196404Y82806D01*
X208092Y82806D01*
X208092Y79383D02*
X196404Y79383D01*
X196404Y81552D02*
X208092Y81552D01*
X208092Y87628D02*
X208092Y93220D01*
X208092Y87628D02*
X196404Y87628D01*
X196404Y93220D01*
X208092Y93220D01*
X208092Y89797D02*
X196404Y89797D01*
X196404Y91966D02*
X208092Y91966D01*
D11*
X25400Y228600D03*
X25400Y25400D03*
X228600Y25400D03*
D10*
X120398Y75246D02*
X114806Y75246D01*
X114806Y86934D01*
X120398Y86934D01*
X120398Y75246D01*
X120398Y77415D02*
X114806Y77415D01*
X114806Y79584D02*
X120398Y79584D01*
X120398Y81753D02*
X114806Y81753D01*
X114806Y83922D02*
X120398Y83922D01*
X120398Y86091D02*
X114806Y86091D01*
X125220Y75246D02*
X130812Y75246D01*
X125220Y75246D02*
X125220Y86934D01*
X130812Y86934D01*
X130812Y75246D01*
X130812Y77415D02*
X125220Y77415D01*
X125220Y79584D02*
X130812Y79584D01*
X130812Y81753D02*
X125220Y81753D01*
X125220Y83922D02*
X130812Y83922D01*
X130812Y86091D02*
X125220Y86091D01*
X135634Y75246D02*
X141226Y75246D01*
X135634Y75246D02*
X135634Y86934D01*
X141226Y86934D01*
X141226Y75246D01*
X141226Y77415D02*
X135634Y77415D01*
X135634Y79584D02*
X141226Y79584D01*
X141226Y81753D02*
X135634Y81753D01*
X135634Y83922D02*
X141226Y83922D01*
X141226Y86091D02*
X135634Y86091D01*
D12*
X190500Y12700D03*
X165100Y12700D03*
X139700Y12700D03*
X114300Y12700D03*
X88900Y12700D03*
X63500Y12700D03*
X88900Y241300D03*
X114300Y241300D03*
X139700Y241300D03*
X165100Y241300D03*
D13*
X21590Y195580D03*
X212344Y55880D03*
D10*
X228979Y179576D02*
X234571Y179576D01*
X228979Y179576D02*
X228979Y191264D01*
X234571Y191264D01*
X234571Y179576D01*
X234571Y181745D02*
X228979Y181745D01*
X228979Y183914D02*
X234571Y183914D01*
X234571Y186083D02*
X228979Y186083D01*
X228979Y188252D02*
X234571Y188252D01*
X234571Y190421D02*
X228979Y190421D01*
X239393Y179576D02*
X244985Y179576D01*
X239393Y179576D02*
X239393Y191264D01*
X244985Y191264D01*
X244985Y179576D01*
X244985Y181745D02*
X239393Y181745D01*
X239393Y183914D02*
X244985Y183914D01*
X244985Y186083D02*
X239393Y186083D01*
X239393Y188252D02*
X244985Y188252D01*
X244985Y190421D02*
X239393Y190421D01*
D11*
X228600Y228600D03*
M02*
